Subscribe.ufo
<glyph name="exclam" format="2">
  <advance width="216"/>
  <unicode hex="0021"/>
  <outline>
    <contour>
      <point x="121" y="201" type="qcurve"/>
      <point x="114" y="200"/>
      <point x="107" y="200" type="qcurve" smooth="yes"/>
      <point x="76" y="200"/>
      <point x="34" y="241"/>
      <point x="34" y="272" type="qcurve"/>
      <point x="34" y="274"/>
      <point x="34" y="277" type="qcurve" smooth="yes"/>
      <point x="34" y="302"/>
      <point x="30" y="370"/>
      <point x="26" y="444"/>
      <point x="25" y="488"/>
      <point x="25" y="495" type="qcurve" smooth="yes"/>
      <point x="25" y="526"/>
      <point x="30" y="588"/>
      <point x="43" y="641"/>
      <point x="56" y="656" type="qcurve"/>
      <point x="63" y="673"/>
      <point x="95" y="683"/>
      <point x="108" y="683" type="qcurve" smooth="yes"/>
      <point x="114" y="683"/>
      <point x="141" y="679"/>
      <point x="175" y="658"/>
      <point x="178" y="641" type="qcurve" smooth="yes"/>
      <point x="180" y="629"/>
      <point x="188" y="556"/>
      <point x="193" y="471"/>
      <point x="193" y="432" type="qcurve" smooth="yes"/>
      <point x="193" y="419"/>
      <point x="192" y="351"/>
      <point x="178" y="261"/>
      <point x="148" y="202"/>
    </contour>
    <contour>
      <point x="114" y="9" type="qcurve" smooth="yes"/>
      <point x="110" y="9"/>
      <point x="105" y="9" type="qcurve" smooth="yes"/>
      <point x="83" y="9"/>
      <point x="49" y="28"/>
      <point x="28" y="62"/>
      <point x="27" y="84"/>
      <point x="27" y="85" type="qcurve"/>
      <point x="27" y="105"/>
      <point x="44" y="142"/>
      <point x="81" y="169"/>
      <point x="110" y="172" type="qcurve"/>
      <point x="139" y="166"/>
      <point x="173" y="137"/>
      <point x="186" y="103"/>
      <point x="186" y="87" type="qcurve" smooth="yes"/>
      <point x="186" y="84"/>
      <point x="184" y="60"/>
      <point x="165" y="27"/>
      <point x="137" y="9"/>
      <point x="121" y="9" type="qcurve" smooth="yes"/>
      <point x="117" y="9"/>
    </contour>
  </outline>
</glyph>
<glyph name="quotedbl" format="2">
  <advance width="366"/>
  <unicode hex="0022"/>
  <outline>
    <contour>
      <point x="163" y="625" type="qcurve"/>
      <point x="169" y="602"/>
      <point x="170" y="514"/>
      <point x="170" y="510" type="qcurve" smooth="yes"/>
      <point x="170" y="434"/>
      <point x="135" y="405"/>
      <point x="108" y="398"/>
      <point x="99" y="398" type="qcurve" smooth="yes"/>
      <point x="91" y="398"/>
      <point x="82" y="400" type="qcurve" smooth="yes"/>
      <point x="68" y="403"/>
      <point x="41" y="419"/>
      <point x="24" y="444"/>
      <point x="24" y="516" type="qcurve" smooth="yes"/>
      <point x="24" y="521"/>
      <point x="25" y="605"/>
      <point x="33" y="641"/>
      <point x="51" y="661"/>
      <point x="77" y="670"/>
      <point x="90" y="670" type="qcurve"/>
      <point x="92" y="670"/>
      <point x="111" y="669"/>
      <point x="140" y="658"/>
      <point x="161" y="638"/>
    </contour>
    <contour>
      <point x="338" y="625" type="qcurve"/>
      <point x="344" y="602"/>
      <point x="345" y="514"/>
      <point x="345" y="510" type="qcurve" smooth="yes"/>
      <point x="345" y="434"/>
      <point x="310" y="405"/>
      <point x="283" y="398"/>
      <point x="274" y="398" type="qcurve" smooth="yes"/>
      <point x="266" y="398"/>
      <point x="257" y="400" type="qcurve" smooth="yes"/>
      <point x="243" y="403"/>
      <point x="216" y="419"/>
      <point x="199" y="444"/>
      <point x="199" y="516" type="qcurve" smooth="yes"/>
      <point x="199" y="521"/>
      <point x="200" y="605"/>
      <point x="208" y="641"/>
      <point x="226" y="661"/>
      <point x="252" y="670"/>
      <point x="265" y="670" type="qcurve"/>
      <point x="267" y="670"/>
      <point x="286" y="669"/>
      <point x="315" y="658"/>
      <point x="336" y="638"/>
    </contour>
  </outline>
</glyph>
<glyph name="numbersign" format="2">
  <advance width="609"/>
  <unicode hex="0023"/>
  <outline>
    <contour>
      <point x="548" y="314" type="qcurve"/>
      <point x="570" y="312"/>
      <point x="592" y="277"/>
      <point x="592" y="256" type="qcurve" smooth="yes"/>
      <point x="592" y="233"/>
      <point x="568" y="192"/>
      <point x="547" y="189" type="qcurve" smooth="yes"/>
      <point x="538" y="187"/>
      <point x="458" y="185" type="qcurve"/>
      <point x="456" y="106"/>
      <point x="455" y="93" type="qcurve"/>
      <point x="451" y="72"/>
      <point x="417" y="51"/>
      <point x="397" y="51" type="qcurve" smooth="yes"/>
      <point x="374" y="51"/>
      <point x="333" y="74"/>
      <point x="329" y="94" type="qcurve"/>
      <point x="327" y="99"/>
      <point x="326" y="144"/>
      <point x="324" y="183" type="qcurve"/>
      <point x="280" y="183" type="line"/>
      <point x="278" y="101"/>
      <point x="276" y="90" type="qcurve" smooth="yes"/>
      <point x="271" y="68"/>
      <point x="237" y="47"/>
      <point x="215" y="47" type="qcurve" smooth="yes"/>
      <point x="193" y="47"/>
      <point x="155" y="70"/>
      <point x="150" y="91" type="qcurve" smooth="yes"/>
      <point x="148" y="100"/>
      <point x="146" y="185" type="qcurve"/>
      <point x="51" y="188"/>
      <point x="40" y="199" type="qcurve"/>
      <point x="21" y="225"/>
      <point x="21" y="249" type="qcurve" smooth="yes"/>
      <point x="21" y="257"/>
      <point x="23" y="265" type="qcurve"/>
      <point x="23" y="264" type="line"/>
      <point x="27" y="278"/>
      <point x="41" y="302"/>
      <point x="52" y="310" type="qcurve" smooth="yes"/>
      <point x="61" y="316"/>
      <point x="144" y="317" type="qcurve"/>
      <point x="144" y="364" type="line"/>
      <point x="48" y="367"/>
      <point x="37" y="378" type="qcurve"/>
      <point x="18" y="404"/>
      <point x="18" y="428" type="qcurve" smooth="yes"/>
      <point x="18" y="436"/>
      <point x="20" y="444" type="qcurve"/>
      <point x="22" y="458"/>
      <point x="37" y="482"/>
      <point x="50" y="490" type="qcurve"/>
      <point x="49" y="489" type="line"/>
      <point x="55" y="494"/>
      <point x="146" y="497" type="qcurve"/>
      <point x="149" y="588"/>
      <point x="160" y="597" type="qcurve" smooth="yes"/>
      <point x="185" y="617"/>
      <point x="210" y="617" type="qcurve" smooth="yes"/>
      <point x="219" y="617"/>
      <point x="227" y="615" type="qcurve"/>
      <point x="241" y="613"/>
      <point x="265" y="598"/>
      <point x="273" y="584" type="qcurve"/>
      <point x="272" y="585" type="line"/>
      <point x="278" y="576"/>
      <point x="279" y="498" type="qcurve"/>
      <point x="324" y="498" type="line"/>
      <point x="329" y="591"/>
      <point x="340" y="600" type="qcurve" smooth="yes"/>
      <point x="365" y="620"/>
      <point x="390" y="620" type="qcurve" smooth="yes"/>
      <point x="398" y="620"/>
      <point x="406" y="618" type="qcurve" smooth="yes"/>
      <point x="418" y="615"/>
      <point x="444" y="602"/>
      <point x="452" y="588" type="qcurve"/>
      <point x="451" y="589" type="line"/>
      <point x="457" y="580"/>
      <point x="458" y="497" type="qcurve"/>
      <point x="534" y="495"/>
      <point x="545" y="493" type="qcurve" smooth="yes"/>
      <point x="566" y="489"/>
      <point x="588" y="456"/>
      <point x="588" y="436" type="qcurve" smooth="yes"/>
      <point x="588" y="413"/>
      <point x="564" y="372"/>
      <point x="544" y="367" type="qcurve" smooth="yes"/>
      <point x="533" y="365"/>
      <point x="459" y="364" type="qcurve"/>
      <point x="459" y="318" type="line"/>
      <point x="497" y="317"/>
      <point x="541" y="316"/>
    </contour>
    <contour>
      <point x="322" y="319" type="line"/>
      <point x="322" y="362" type="line"/>
      <point x="281" y="362" type="line"/>
      <point x="281" y="319" type="line"/>
    </contour>
  </outline>
</glyph>
<glyph name="dollar" format="2">
  <advance width="429"/>
  <unicode hex="0024"/>
  <outline>
    <contour>
      <point x="403" y="302" type="qcurve" smooth="yes"/>
      <point x="408" y="286"/>
      <point x="411" y="257"/>
      <point x="411" y="243" type="qcurve" smooth="yes"/>
      <point x="411" y="186"/>
      <point x="352" y="110"/>
      <point x="308" y="92" type="qcurve"/>
      <point x="306" y="75"/>
      <point x="296" y="45"/>
      <point x="288" y="37" type="qcurve"/>
      <point x="270" y="23"/>
      <point x="240" y="16"/>
      <point x="229" y="16" type="qcurve" smooth="yes"/>
      <point x="221" y="16"/>
      <point x="214" y="17" type="qcurve" smooth="yes"/>
      <point x="198" y="19"/>
      <point x="171" y="36"/>
      <point x="160" y="48" type="qcurve"/>
      <point x="153" y="58"/>
      <point x="148" y="87" type="qcurve"/>
      <point x="119" y="94"/>
      <point x="65" y="115"/>
      <point x="26" y="145"/>
      <point x="12" y="177"/>
      <point x="12" y="191" type="qcurve" smooth="yes"/>
      <point x="12" y="201"/>
      <point x="15" y="213" type="qcurve" smooth="yes"/>
      <point x="26" y="251"/>
      <point x="57" y="273"/>
      <point x="80" y="273" type="qcurve" smooth="yes"/>
      <point x="93" y="273"/>
      <point x="121" y="261"/>
      <point x="152" y="252"/>
      <point x="171" y="251"/>
      <point x="172" y="251" type="qcurve"/>
      <point x="189" y="251"/>
      <point x="211" y="262" type="qcurve"/>
      <point x="186" y="270"/>
      <point x="120" y="289"/>
      <point x="60" y="324"/>
      <point x="19" y="382"/>
      <point x="19" y="429" type="qcurve" smooth="yes"/>
      <point x="19" y="447"/>
      <point x="26" y="489"/>
      <point x="35" y="512" type="qcurve" smooth="yes"/>
      <point x="50" y="551"/>
      <point x="109" y="592"/>
      <point x="140" y="600" type="qcurve"/>
      <point x="140" y="601"/>
      <point x="140" y="602" type="qcurve"/>
      <point x="140" y="603"/>
      <point x="140" y="603" type="qcurve"/>
      <point x="140" y="604" type="line"/>
      <point x="140" y="604"/>
      <point x="140" y="605" type="qcurve"/>
      <point x="140" y="610" type="line"/>
      <point x="140" y="610"/>
      <point x="140" y="611" type="qcurve"/>
      <point x="140" y="612"/>
      <point x="140" y="612" type="qcurve"/>
      <point x="140" y="623" type="line" smooth="yes"/>
      <point x="140" y="632"/>
      <point x="142" y="638" type="qcurve"/>
      <point x="144" y="665"/>
      <point x="186" y="689"/>
      <point x="213" y="689" type="qcurve" smooth="yes"/>
      <point x="239" y="689"/>
      <point x="283" y="665"/>
      <point x="290" y="643" type="qcurve" smooth="yes"/>
      <point x="293" y="635"/>
      <point x="297" y="615"/>
      <point x="298" y="599" type="qcurve"/>
      <point x="320" y="594"/>
      <point x="360" y="578"/>
      <point x="392" y="554"/>
      <point x="411" y="520"/>
      <point x="411" y="497" type="qcurve" smooth="yes"/>
      <point x="411" y="453"/>
      <point x="370" y="422"/>
      <point x="338" y="422" type="qcurve" smooth="yes"/>
      <point x="333" y="422"/>
      <point x="292" y="429"/>
      <point x="246" y="438"/>
      <point x="213" y="444"/>
      <point x="210" y="444" type="qcurve"/>
      <point x="209" y="444"/>
      <point x="209" y="444" type="qcurve"/>
      <point x="208" y="440"/>
      <point x="208" y="437" type="qcurve" smooth="yes"/>
      <point x="208" y="427"/>
      <point x="236" y="416"/>
      <point x="259" y="410" type="qcurve" smooth="yes"/>
      <point x="279" y="405"/>
      <point x="323" y="392"/>
      <point x="362" y="369"/>
      <point x="394" y="332"/>
    </contour>
  </outline>
</glyph>
<glyph name="percent" format="2">
  <advance width="648"/>
  <unicode hex="0025"/>
  <outline>
    <contour>
      <point x="22" y="537" type="qcurve" smooth="yes"/>
      <point x="22" y="566"/>
      <point x="40" y="620"/>
      <point x="73" y="659"/>
      <point x="123" y="682"/>
      <point x="155" y="682" type="qcurve" smooth="yes"/>
      <point x="225" y="682"/>
      <point x="288" y="609"/>
      <point x="288" y="542" type="qcurve" smooth="yes"/>
      <point x="288" y="516"/>
      <point x="275" y="463"/>
      <point x="246" y="418"/>
      <point x="197" y="389"/>
      <point x="159" y="387" type="qcurve"/>
      <point x="153" y="387"/>
      <point x="148" y="387" type="qcurve" smooth="yes"/>
      <point x="117" y="387"/>
      <point x="68" y="408"/>
      <point x="35" y="451"/>
      <point x="22" y="508"/>
    </contour>
    <contour>
      <point x="444" y="681" type="qcurve"/>
      <point x="448" y="681"/>
      <point x="452" y="681" type="qcurve" smooth="yes"/>
      <point x="458" y="681"/>
      <point x="478" y="679"/>
      <point x="498" y="669"/>
      <point x="516" y="654"/>
      <point x="517" y="641" type="qcurve"/>
      <point x="517" y="624"/>
      <point x="497" y="564"/>
      <point x="465" y="487"/>
      <point x="424" y="394"/>
      <point x="372" y="280"/>
      <point x="338" y="214"/>
      <point x="318" y="166"/>
      <point x="285" y="100"/>
      <point x="244" y="44"/>
      <point x="206" y="20"/>
      <point x="193" y="20" type="qcurve" smooth="yes"/>
      <point x="182" y="20"/>
      <point x="171" y="26" type="qcurve" smooth="yes"/>
      <point x="155" y="34"/>
      <point x="150" y="60"/>
      <point x="150" y="69" type="qcurve" smooth="yes"/>
      <point x="150" y="80"/>
      <point x="156" y="115"/>
      <point x="175" y="167"/>
      <point x="196" y="217"/>
      <point x="217" y="269"/>
      <point x="222" y="281" type="qcurve"/>
      <point x="258" y="349"/>
      <point x="369" y="588"/>
      <point x="370" y="588" type="qcurve"/>
      <point x="370" y="588"/>
      <point x="370" y="588" type="qcurve"/>
      <point x="373" y="594"/>
      <point x="376" y="599" type="qcurve"/>
      <point x="376" y="600" type="line"/>
      <point x="380" y="608"/>
      <point x="384" y="616" type="qcurve" smooth="yes"/>
      <point x="391" y="630"/>
      <point x="408" y="655"/>
      <point x="428" y="676"/>
      <point x="443" y="681" type="qcurve"/>
      <point x="443" y="681"/>
      <point x="443" y="681" type="qcurve"/>
      <point x="443" y="681"/>
      <point x="443" y="681" type="qcurve"/>
      <point x="443" y="681"/>
      <point x="443" y="681" type="qcurve"/>
      <point x="443" y="681"/>
      <point x="444" y="681" type="qcurve"/>
      <point x="444" y="681"/>
      <point x="444" y="681" type="qcurve"/>
      <point x="444" y="681"/>
      <point x="444" y="681" type="qcurve"/>
      <point x="444" y="681"/>
      <point x="444" y="681" type="qcurve"/>
      <point x="444" y="681"/>
    </contour>
    <contour>
      <point x="152" y="487" type="qcurve" smooth="yes"/>
      <point x="173" y="487"/>
      <point x="184" y="518"/>
      <point x="184" y="539" type="qcurve" smooth="yes"/>
      <point x="184" y="555"/>
      <point x="164" y="580"/>
      <point x="150" y="580" type="qcurve" smooth="yes"/>
      <point x="136" y="580"/>
      <point x="125" y="553"/>
      <point x="125" y="538" type="qcurve" smooth="yes"/>
      <point x="125" y="529"/>
      <point x="126" y="512"/>
      <point x="132" y="497"/>
      <point x="143" y="487"/>
    </contour>
    <contour>
      <point x="366" y="166" type="qcurve" smooth="yes"/>
      <point x="366" y="195"/>
      <point x="384" y="249"/>
      <point x="417" y="288"/>
      <point x="467" y="311"/>
      <point x="499" y="311" type="qcurve" smooth="yes"/>
      <point x="569" y="311"/>
      <point x="632" y="238"/>
      <point x="632" y="171" type="qcurve" smooth="yes"/>
      <point x="632" y="145"/>
      <point x="619" y="92"/>
      <point x="590" y="47"/>
      <point x="541" y="18"/>
      <point x="503" y="16" type="qcurve"/>
      <point x="497" y="16"/>
      <point x="492" y="16" type="qcurve" smooth="yes"/>
      <point x="461" y="16"/>
      <point x="412" y="37"/>
      <point x="379" y="80"/>
      <point x="366" y="137"/>
    </contour>
    <contour>
      <point x="496" y="116" type="qcurve" smooth="yes"/>
      <point x="517" y="116"/>
      <point x="528" y="147"/>
      <point x="528" y="168" type="qcurve" smooth="yes"/>
      <point x="528" y="184"/>
      <point x="508" y="209"/>
      <point x="494" y="209" type="qcurve" smooth="yes"/>
      <point x="480" y="209"/>
      <point x="469" y="182"/>
      <point x="469" y="167" type="qcurve" smooth="yes"/>
      <point x="469" y="158"/>
      <point x="470" y="141"/>
      <point x="476" y="126"/>
      <point x="487" y="116"/>
    </contour>
  </outline>
</glyph>
<glyph name="ampersand" format="2">
  <advance width="540"/>
  <unicode hex="0026"/>
  <outline>
    <contour>
      <point x="521" y="247" type="qcurve" smooth="yes"/>
      <point x="521" y="236"/>
      <point x="517" y="211"/>
      <point x="507" y="190"/>
      <point x="491" y="177"/>
      <point x="478" y="177" type="qcurve" smooth="yes"/>
      <point x="468" y="177"/>
      <point x="450" y="173"/>
      <point x="446" y="173" type="qcurve" smooth="yes"/>
      <point x="439" y="173"/>
      <point x="434" y="176" type="qcurve"/>
      <point x="426" y="143"/>
      <point x="409" y="87"/>
      <point x="378" y="45"/>
      <point x="327" y="17"/>
      <point x="285" y="13" type="qcurve" smooth="yes"/>
      <point x="269" y="11"/>
      <point x="253" y="11" type="qcurve" smooth="yes"/>
      <point x="220" y="11"/>
      <point x="140" y="29"/>
      <point x="64" y="80"/>
      <point x="18" y="161"/>
      <point x="18" y="217" type="qcurve" smooth="yes"/>
      <point x="18" y="244"/>
      <point x="29" y="299"/>
      <point x="53" y="349"/>
      <point x="90" y="388"/>
      <point x="117" y="400" type="qcurve"/>
      <point x="88" y="425"/>
      <point x="52" y="496"/>
      <point x="52" y="535" type="qcurve" smooth="yes"/>
      <point x="52" y="540" type="line"/>
      <point x="58" y="591"/>
      <point x="111" y="656"/>
      <point x="184" y="688"/>
      <point x="229" y="689"/>
      <point x="230" y="689" type="qcurve"/>
      <point x="272" y="689"/>
      <point x="309" y="677" type="qcurve" smooth="yes"/>
      <point x="334" y="669"/>
      <point x="362" y="654"/>
      <point x="377" y="636"/>
      <point x="379" y="617"/>
      <point x="379" y="608" type="qcurve" smooth="yes"/>
      <point x="379" y="602"/>
      <point x="379" y="596" type="qcurve"/>
      <point x="378" y="571"/>
      <point x="352" y="551"/>
      <point x="318" y="546"/>
      <point x="302" y="546" type="qcurve" smooth="yes"/>
      <point x="296" y="546"/>
      <point x="283" y="546"/>
      <point x="276" y="546" type="qcurve" smooth="yes"/>
      <point x="262" y="546"/>
      <point x="229" y="543"/>
      <point x="202" y="525"/>
      <point x="200" y="501" type="qcurve"/>
      <point x="200" y="495"/>
      <point x="206" y="482"/>
      <point x="216" y="471"/>
      <point x="228" y="463"/>
      <point x="233" y="463" type="qcurve"/>
      <point x="248" y="461"/>
      <point x="261" y="461"/>
      <point x="271" y="463"/>
      <point x="283" y="464"/>
      <point x="297" y="464" type="qcurve" smooth="yes"/>
      <point x="312" y="464"/>
      <point x="328" y="450"/>
      <point x="335" y="429"/>
      <point x="337" y="403"/>
      <point x="337" y="391" type="qcurve" smooth="yes"/>
      <point x="337" y="367"/>
      <point x="314" y="343"/>
      <point x="280" y="328"/>
      <point x="239" y="318"/>
      <point x="205" y="298"/>
      <point x="182" y="264"/>
      <point x="182" y="234" type="qcurve" smooth="yes"/>
      <point x="182" y="210"/>
      <point x="212" y="174"/>
      <point x="238" y="174" type="qcurve" smooth="yes"/>
      <point x="262" y="174"/>
      <point x="290" y="196"/>
      <point x="307" y="230"/>
      <point x="321" y="269"/>
      <point x="340" y="303"/>
      <point x="372" y="325"/>
      <point x="399" y="325" type="qcurve" smooth="yes"/>
      <point x="421" y="325"/>
      <point x="465" y="318"/>
      <point x="499" y="300"/>
      <point x="521" y="270"/>
    </contour>
  </outline>
</glyph>
<glyph name="quotesingle" format="2">
  <advance width="197"/>
  <unicode hex="0027"/>
  <outline>
    <contour>
      <point x="163" y="625" type="qcurve"/>
      <point x="169" y="602"/>
      <point x="170" y="514"/>
      <point x="170" y="510" type="qcurve" smooth="yes"/>
      <point x="170" y="434"/>
      <point x="135" y="405"/>
      <point x="108" y="398"/>
      <point x="99" y="398" type="qcurve" smooth="yes"/>
      <point x="91" y="398"/>
      <point x="82" y="400" type="qcurve" smooth="yes"/>
      <point x="68" y="403"/>
      <point x="41" y="419"/>
      <point x="24" y="444"/>
      <point x="24" y="516" type="qcurve" smooth="yes"/>
      <point x="24" y="521"/>
      <point x="25" y="605"/>
      <point x="33" y="641"/>
      <point x="51" y="661"/>
      <point x="77" y="670"/>
      <point x="90" y="670" type="qcurve"/>
      <point x="92" y="670"/>
      <point x="111" y="669"/>
      <point x="140" y="658"/>
      <point x="161" y="638"/>
    </contour>
  </outline>
</glyph>
<glyph name="parenleft" format="2">
  <advance width="233"/>
  <unicode hex="0028"/>
  <outline>
    <contour>
      <point x="188" y="137" type="line"/>
      <point x="188" y="137"/>
      <point x="188" y="138" type="qcurve"/>
      <point x="188" y="140" type="line"/>
      <point x="188" y="139"/>
      <point x="188" y="138" type="qcurve"/>
    </contour>
    <contour>
      <point x="188" y="136" type="line"/>
      <point x="188" y="135"/>
      <point x="188" y="135" type="qcurve"/>
    </contour>
    <contour>
      <point x="203" y="8" type="qcurve" smooth="yes"/>
      <point x="232" y="-18"/>
      <point x="248" y="-69"/>
      <point x="248" y="-85" type="qcurve" smooth="yes"/>
      <point x="248" y="-97"/>
      <point x="237" y="-133"/>
      <point x="201" y="-149"/>
      <point x="187" y="-149" type="qcurve" smooth="yes"/>
      <point x="168" y="-149"/>
      <point x="143" y="-140" type="qcurve" smooth="yes"/>
      <point x="103" y="-127"/>
      <point x="55" y="-69"/>
      <point x="30" y="6"/>
      <point x="22" y="93"/>
      <point x="22" y="136" type="qcurve"/>
      <point x="22" y="137" type="line"/>
      <point x="22" y="138"/>
      <point x="22" y="139" type="qcurve"/>
      <point x="22" y="140"/>
      <point x="22" y="140" type="qcurve"/>
      <point x="22" y="141" type="line"/>
      <point x="22" y="142"/>
      <point x="22" y="142" type="qcurve"/>
      <point x="22" y="144" type="line"/>
      <point x="22" y="144"/>
      <point x="22" y="145" type="qcurve"/>
      <point x="22" y="147" type="line"/>
      <point x="22" y="147"/>
      <point x="22" y="148" type="qcurve"/>
      <point x="22" y="165" type="line"/>
      <point x="22" y="166"/>
      <point x="22" y="167" type="qcurve"/>
      <point x="22" y="181" type="line" smooth="yes"/>
      <point x="22" y="184"/>
      <point x="22" y="187" type="qcurve"/>
      <point x="22" y="189" type="line"/>
      <point x="22" y="190"/>
      <point x="22" y="191" type="qcurve"/>
      <point x="22" y="193" type="line"/>
      <point x="22" y="195"/>
      <point x="22" y="197" type="qcurve"/>
      <point x="22" y="201" type="line"/>
      <point x="22" y="203"/>
      <point x="22" y="204" type="qcurve"/>
      <point x="22" y="207" type="line"/>
      <point x="22" y="209"/>
      <point x="22" y="210" type="qcurve"/>
      <point x="22" y="241" type="line"/>
      <point x="22" y="243"/>
      <point x="22" y="244" type="qcurve"/>
      <point x="22" y="264" type="line" smooth="yes"/>
      <point x="22" y="268"/>
      <point x="22" y="272" type="qcurve" smooth="yes"/>
      <point x="22" y="275" type="line"/>
      <point x="22" y="276"/>
      <point x="22" y="278" type="qcurve"/>
      <point x="22" y="281" type="line"/>
      <point x="22" y="283"/>
      <point x="22" y="285" type="qcurve"/>
      <point x="22" y="291" type="line"/>
      <point x="22" y="293"/>
      <point x="22" y="294" type="qcurve"/>
      <point x="22" y="299" type="line"/>
      <point x="22" y="301"/>
      <point x="22" y="302" type="qcurve"/>
      <point x="22" y="341" type="line"/>
      <point x="22" y="342"/>
      <point x="22" y="344" type="qcurve"/>
      <point x="22" y="367" type="line" smooth="yes"/>
      <point x="22" y="371"/>
      <point x="22" y="375" type="qcurve" smooth="yes"/>
      <point x="22" y="379" type="line"/>
      <point x="22" y="380"/>
      <point x="22" y="382" type="qcurve"/>
      <point x="22" y="385" type="line" smooth="yes"/>
      <point x="22" y="388"/>
      <point x="22" y="390" type="qcurve"/>
      <point x="22" y="396" type="line"/>
      <point x="22" y="398"/>
      <point x="22" y="400" type="qcurve"/>
      <point x="22" y="404" type="line"/>
      <point x="22" y="406"/>
      <point x="22" y="407" type="qcurve"/>
      <point x="22" y="444" type="line"/>
      <point x="22" y="446"/>
      <point x="22" y="447" type="qcurve"/>
      <point x="22" y="468" type="line" smooth="yes"/>
      <point x="22" y="471"/>
      <point x="22" y="475" type="qcurve"/>
      <point x="22" y="477" type="line"/>
      <point x="22" y="479"/>
      <point x="22" y="480" type="qcurve"/>
      <point x="22" y="483" type="line"/>
      <point x="22" y="485"/>
      <point x="22" y="487" type="qcurve"/>
      <point x="22" y="492" type="line"/>
      <point x="22" y="493"/>
      <point x="22" y="495" type="qcurve"/>
      <point x="22" y="498" type="line"/>
      <point x="22" y="500"/>
      <point x="22" y="501" type="qcurve"/>
      <point x="22" y="529" type="line"/>
      <point x="22" y="530"/>
      <point x="22" y="532" type="qcurve"/>
      <point x="22" y="546" type="line"/>
      <point x="22" y="548"/>
      <point x="22" y="551" type="qcurve"/>
      <point x="22" y="552" type="line"/>
      <point x="22" y="553"/>
      <point x="22" y="554" type="qcurve"/>
      <point x="22" y="556" type="line"/>
      <point x="22" y="557"/>
      <point x="22" y="558" type="qcurve"/>
      <point x="22" y="561" type="line"/>
      <point x="22" y="562"/>
      <point x="22" y="562" type="qcurve"/>
      <point x="22" y="564" type="line"/>
      <point x="22" y="565"/>
      <point x="22" y="566" type="qcurve"/>
      <point x="22" y="577" type="line"/>
      <point x="22" y="577"/>
      <point x="22" y="577" type="qcurve"/>
      <point x="22" y="579" type="line"/>
      <point x="22" y="618"/>
      <point x="30" y="695"/>
      <point x="55" y="761"/>
      <point x="103" y="811"/>
      <point x="143" y="824" type="qcurve" smooth="yes"/>
      <point x="167" y="831"/>
      <point x="185" y="831" type="qcurve" smooth="yes"/>
      <point x="200" y="831"/>
      <point x="237" y="817"/>
      <point x="248" y="785"/>
      <point x="248" y="775" type="qcurve" smooth="yes"/>
      <point x="248" y="761"/>
      <point x="232" y="716"/>
      <point x="203" y="693" type="qcurve" smooth="yes"/>
      <point x="197" y="688"/>
      <point x="191" y="654"/>
      <point x="189" y="628" type="qcurve" smooth="yes"/>
      <point x="188" y="615"/>
      <point x="188" y="602" type="qcurve" smooth="yes"/>
      <point x="188" y="599" type="line"/>
      <point x="188" y="598"/>
      <point x="188" y="596" type="qcurve"/>
      <point x="188" y="595"/>
      <point x="188" y="594" type="qcurve"/>
      <point x="188" y="593" type="line"/>
      <point x="188" y="593"/>
      <point x="188" y="593" type="qcurve"/>
      <point x="188" y="590" type="line"/>
      <point x="188" y="590"/>
      <point x="188" y="589" type="qcurve"/>
      <point x="188" y="588"/>
      <point x="188" y="588" type="qcurve"/>
      <point x="188" y="577" type="line"/>
      <point x="188" y="576"/>
      <point x="188" y="576" type="qcurve"/>
      <point x="188" y="572" type="line"/>
      <point x="189" y="567"/>
      <point x="190" y="515"/>
      <point x="191" y="457"/>
      <point x="191" y="436" type="qcurve" smooth="yes"/>
      <point x="191" y="415"/>
      <point x="190" y="346"/>
      <point x="190" y="255"/>
      <point x="189" y="177"/>
      <point x="188" y="128"/>
      <point x="188" y="124" type="qcurve"/>
      <point x="188" y="123" type="line"/>
      <point x="188" y="123"/>
      <point x="188" y="123"/>
      <point x="188" y="123" type="qcurve"/>
      <point x="188" y="115" type="line"/>
      <point x="188" y="114"/>
      <point x="188" y="114" type="qcurve"/>
      <point x="188" y="110" type="line" smooth="yes"/>
      <point x="188" y="94"/>
      <point x="189" y="80" type="qcurve" smooth="yes"/>
      <point x="191" y="52"/>
      <point x="197" y="13"/>
    </contour>
    <contour>
      <point x="188" y="134" type="line"/>
      <point x="188" y="134"/>
      <point x="188" y="134" type="qcurve"/>
      <point x="188" y="133" type="line"/>
      <point x="188" y="132"/>
      <point x="188" y="132" type="qcurve"/>
    </contour>
    <contour>
      <point x="188" y="130" type="line"/>
      <point x="188" y="129"/>
      <point x="188" y="129" type="qcurve"/>
    </contour>
    <contour>
      <point x="188" y="128" type="line"/>
      <point x="188" y="127"/>
      <point x="188" y="127" type="qcurve"/>
    </contour>
  </outline>
</glyph>
<glyph name="parenright" format="2">
  <advance width="233"/>
  <unicode hex="0029"/>
  <outline>
    <contour>
      <point x="25" y="8" type="qcurve"/>
      <point x="32" y="13"/>
      <point x="37" y="52"/>
      <point x="39" y="80" type="qcurve" smooth="yes"/>
      <point x="40" y="94"/>
      <point x="40" y="110" type="qcurve" smooth="yes"/>
      <point x="40" y="117" type="line"/>
      <point x="40" y="117"/>
      <point x="40" y="118" type="qcurve"/>
      <point x="40" y="119" type="line"/>
      <point x="40" y="120"/>
      <point x="40" y="120" type="qcurve"/>
      <point x="40" y="122" type="line"/>
      <point x="40" y="123"/>
      <point x="40" y="123" type="qcurve"/>
      <point x="40" y="124" type="line"/>
      <point x="40" y="128"/>
      <point x="39" y="177"/>
      <point x="38" y="255"/>
      <point x="38" y="346"/>
      <point x="37" y="415"/>
      <point x="37" y="436" type="qcurve" smooth="yes"/>
      <point x="37" y="457"/>
      <point x="38" y="515"/>
      <point x="39" y="567"/>
      <point x="40" y="572" type="qcurve"/>
      <point x="40" y="579" type="line"/>
      <point x="40" y="579"/>
      <point x="40" y="580" type="qcurve"/>
      <point x="40" y="581" type="line"/>
      <point x="40" y="581"/>
      <point x="40" y="582" type="qcurve"/>
      <point x="40" y="584" type="line"/>
      <point x="40" y="585"/>
      <point x="40" y="585" type="qcurve"/>
      <point x="40" y="586" type="line"/>
      <point x="40" y="587"/>
      <point x="40" y="587" type="qcurve"/>
      <point x="40" y="602" type="line" smooth="yes"/>
      <point x="40" y="615"/>
      <point x="39" y="628" type="qcurve" smooth="yes"/>
      <point x="37" y="654"/>
      <point x="32" y="688"/>
      <point x="25" y="693" type="qcurve" smooth="yes"/>
      <point x="-4" y="716"/>
      <point x="-20" y="761"/>
      <point x="-20" y="775" type="qcurve" smooth="yes"/>
      <point x="-20" y="785"/>
      <point x="-9" y="817"/>
      <point x="28" y="831"/>
      <point x="43" y="831" type="qcurve" smooth="yes"/>
      <point x="61" y="831"/>
      <point x="85" y="824" type="qcurve" smooth="yes"/>
      <point x="125" y="811"/>
      <point x="172" y="761"/>
      <point x="197" y="695"/>
      <point x="205" y="618"/>
      <point x="205" y="579" type="qcurve"/>
      <point x="205" y="578" type="line"/>
      <point x="205" y="578"/>
      <point x="205" y="577" type="qcurve"/>
      <point x="205" y="575" type="line"/>
      <point x="205" y="575"/>
      <point x="205" y="574" type="qcurve"/>
      <point x="205" y="573"/>
      <point x="205" y="573" type="qcurve"/>
      <point x="205" y="572" type="line"/>
      <point x="205" y="571"/>
      <point x="205" y="571" type="qcurve"/>
      <point x="205" y="567" type="line"/>
      <point x="205" y="567"/>
      <point x="205" y="566" type="qcurve"/>
      <point x="205" y="534" type="line"/>
      <point x="205" y="532"/>
      <point x="205" y="530" type="qcurve"/>
      <point x="205" y="524" type="line"/>
      <point x="205" y="523"/>
      <point x="205" y="521" type="qcurve"/>
      <point x="205" y="519" type="line"/>
      <point x="205" y="518"/>
      <point x="205" y="517" type="qcurve"/>
      <point x="205" y="514" type="line"/>
      <point x="205" y="513"/>
      <point x="205" y="512" type="qcurve"/>
      <point x="205" y="505" type="line"/>
      <point x="205" y="504"/>
      <point x="205" y="502" type="qcurve"/>
      <point x="205" y="450" type="line"/>
      <point x="205" y="448"/>
      <point x="205" y="446" type="qcurve"/>
      <point x="205" y="437" type="line"/>
      <point x="205" y="435"/>
      <point x="205" y="434" type="qcurve"/>
      <point x="205" y="431" type="line"/>
      <point x="205" y="429"/>
      <point x="205" y="428" type="qcurve"/>
      <point x="205" y="425" type="line"/>
      <point x="205" y="423"/>
      <point x="205" y="421" type="qcurve"/>
      <point x="205" y="412" type="line"/>
      <point x="205" y="411"/>
      <point x="205" y="409" type="qcurve"/>
      <point x="205" y="347" type="line"/>
      <point x="205" y="345"/>
      <point x="205" y="342" type="qcurve" smooth="yes"/>
      <point x="205" y="332" type="line"/>
      <point x="205" y="331"/>
      <point x="205" y="329" type="qcurve"/>
      <point x="205" y="326" type="line"/>
      <point x="205" y="324"/>
      <point x="205" y="323" type="qcurve"/>
      <point x="205" y="319" type="line"/>
      <point x="205" y="318"/>
      <point x="205" y="316" type="qcurve"/>
      <point x="205" y="307" type="line"/>
      <point x="205" y="305"/>
      <point x="205" y="304" type="qcurve"/>
      <point x="205" y="247" type="line"/>
      <point x="205" y="245"/>
      <point x="205" y="243" type="qcurve"/>
      <point x="205" y="234" type="line"/>
      <point x="205" y="233"/>
      <point x="205" y="232" type="qcurve"/>
      <point x="205" y="229" type="line"/>
      <point x="205" y="228"/>
      <point x="205" y="226" type="qcurve"/>
      <point x="205" y="224" type="line"/>
      <point x="205" y="222"/>
      <point x="205" y="221" type="qcurve"/>
      <point x="205" y="214" type="line"/>
      <point x="205" y="212"/>
      <point x="205" y="211" type="qcurve"/>
      <point x="205" y="169" type="line"/>
      <point x="205" y="168"/>
      <point x="205" y="166" type="qcurve"/>
      <point x="205" y="161" type="line"/>
      <point x="205" y="160"/>
      <point x="205" y="159" type="qcurve"/>
      <point x="205" y="158" type="line"/>
      <point x="205" y="157"/>
      <point x="205" y="156" type="qcurve"/>
      <point x="205" y="155" type="line"/>
      <point x="205" y="154"/>
      <point x="205" y="153" type="qcurve"/>
      <point x="205" y="150" type="line"/>
      <point x="205" y="149"/>
      <point x="205" y="148" type="qcurve"/>
      <point x="205" y="136" type="line" smooth="yes"/>
      <point x="205" y="93"/>
      <point x="197" y="6"/>
      <point x="172" y="-69"/>
      <point x="125" y="-127"/>
      <point x="85" y="-140" type="qcurve"/>
      <point x="61" y="-149"/>
      <point x="42" y="-149" type="qcurve" smooth="yes"/>
      <point x="28" y="-149"/>
      <point x="-9" y="-133"/>
      <point x="-20" y="-97"/>
      <point x="-20" y="-85" type="qcurve" smooth="yes"/>
      <point x="-20" y="-69"/>
      <point x="-4" y="-18"/>
    </contour>
    <contour>
      <point x="40" y="134" type="line"/>
      <point x="40" y="133"/>
      <point x="40" y="133" type="qcurve"/>
    </contour>
    <contour>
      <point x="40" y="132" type="line"/>
      <point x="40" y="131"/>
      <point x="40" y="130" type="qcurve"/>
    </contour>
    <contour>
      <point x="40" y="129" type="line"/>
      <point x="40" y="128"/>
      <point x="40" y="128" type="qcurve"/>
    </contour>
    <contour>
      <point x="40" y="127" type="line"/>
      <point x="40" y="127"/>
      <point x="40" y="126" type="qcurve"/>
    </contour>
  </outline>
</glyph>
<glyph name="asterisk" format="2">
  <advance width="489"/>
  <unicode hex="002A"/>
  <outline>
    <contour>
      <point x="452" y="322" type="qcurve"/>
      <point x="469" y="307"/>
      <point x="469" y="289" type="qcurve"/>
      <point x="469" y="287"/>
      <point x="467" y="266"/>
      <point x="439" y="236"/>
      <point x="410" y="228"/>
      <point x="403" y="228" type="qcurve" smooth="yes"/>
      <point x="390" y="228"/>
      <point x="379" y="234" type="qcurve" smooth="yes"/>
      <point x="365" y="241"/>
      <point x="316" y="277" type="qcurve"/>
      <point x="315" y="246"/>
      <point x="314" y="209"/>
      <point x="312" y="204" type="qcurve"/>
      <point x="310" y="179"/>
      <point x="278" y="158"/>
      <point x="260" y="158" type="qcurve"/>
      <point x="258" y="158"/>
      <point x="234" y="160"/>
      <point x="199" y="184"/>
      <point x="196" y="204" type="qcurve"/>
      <point x="194" y="211"/>
      <point x="192" y="249"/>
      <point x="191" y="282" type="qcurve"/>
      <point x="160" y="258"/>
      <point x="124" y="232"/>
      <point x="118" y="229" type="qcurve"/>
      <point x="103" y="218"/>
      <point x="89" y="218" type="qcurve" smooth="yes"/>
      <point x="83" y="218"/>
      <point x="57" y="226"/>
      <point x="33" y="259"/>
      <point x="31" y="283"/>
      <point x="31" y="285" type="qcurve"/>
      <point x="31" y="303"/>
      <point x="43" y="317" type="qcurve" smooth="yes"/>
      <point x="49" y="324"/>
      <point x="101" y="368"/>
      <point x="147" y="406" type="qcurve"/>
      <point x="22" y="507"/>
      <point x="19" y="525" type="qcurve" smooth="yes"/>
      <point x="18" y="531"/>
      <point x="18" y="537" type="qcurve" smooth="yes"/>
      <point x="18" y="571"/>
      <point x="43" y="585" type="qcurve"/>
      <point x="52" y="593"/>
      <point x="74" y="599"/>
      <point x="82" y="599" type="qcurve" smooth="yes"/>
      <point x="89" y="599"/>
      <point x="95" y="598" type="qcurve" smooth="yes"/>
      <point x="106" y="597"/>
      <point x="190" y="532" type="qcurve"/>
      <point x="193" y="647"/>
      <point x="204" y="658" type="qcurve" smooth="yes"/>
      <point x="228" y="682"/>
      <point x="251" y="682" type="qcurve" smooth="yes"/>
      <point x="259" y="682"/>
      <point x="267" y="679" type="qcurve"/>
      <point x="279" y="677"/>
      <point x="303" y="660"/>
      <point x="310" y="646" type="qcurve" smooth="yes"/>
      <point x="316" y="635"/>
      <point x="317" y="542" type="qcurve"/>
      <point x="394" y="600"/>
      <point x="409" y="600" type="qcurve"/>
      <point x="409" y="600"/>
      <point x="409" y="600" type="qcurve"/>
      <point x="431" y="599"/>
      <point x="460" y="580"/>
      <point x="466" y="566" type="qcurve" smooth="yes"/>
      <point x="470" y="555"/>
      <point x="472" y="539"/>
      <point x="472" y="536" type="qcurve" smooth="yes"/>
      <point x="472" y="525"/>
      <point x="467" y="513" type="qcurve" smooth="yes"/>
      <point x="463" y="501"/>
      <point x="349" y="409" type="qcurve"/>
      <point x="440" y="335"/>
    </contour>
  </outline>
</glyph>
<glyph name="plus" format="2">
  <advance width="433"/>
  <unicode hex="002B"/>
  <outline>
    <contour>
      <point x="369" y="381" type="qcurve"/>
      <point x="393" y="379"/>
      <point x="414" y="342"/>
      <point x="414" y="320" type="qcurve"/>
      <point x="414" y="318"/>
      <point x="413" y="293"/>
      <point x="389" y="252"/>
      <point x="369" y="249" type="qcurve"/>
      <point x="353" y="245"/>
      <point x="286" y="244" type="qcurve"/>
      <point x="284" y="176"/>
      <point x="280" y="163" type="qcurve"/>
      <point x="278" y="139"/>
      <point x="241" y="118"/>
      <point x="219" y="118" type="qcurve"/>
      <point x="217" y="118"/>
      <point x="192" y="119"/>
      <point x="151" y="143"/>
      <point x="148" y="163" type="qcurve"/>
      <point x="146" y="171"/>
      <point x="144" y="211"/>
      <point x="143" y="243" type="qcurve"/>
      <point x="55" y="246"/>
      <point x="43" y="259" type="qcurve"/>
      <point x="21" y="287"/>
      <point x="21" y="313" type="qcurve" smooth="yes"/>
      <point x="21" y="322"/>
      <point x="23" y="330" type="qcurve" smooth="yes"/>
      <point x="26" y="344"/>
      <point x="42" y="371"/>
      <point x="55" y="379" type="qcurve" smooth="yes"/>
      <point x="66" y="387"/>
      <point x="142" y="387" type="qcurve"/>
      <point x="143" y="478"/>
      <point x="158" y="489" type="qcurve"/>
      <point x="186" y="512"/>
      <point x="212" y="512" type="qcurve" smooth="yes"/>
      <point x="221" y="512"/>
      <point x="229" y="509" type="qcurve"/>
      <point x="243" y="506"/>
      <point x="270" y="490"/>
      <point x="278" y="477" type="qcurve"/>
      <point x="286" y="467"/>
      <point x="286" y="387" type="qcurve"/>
      <point x="357" y="385"/>
    </contour>
  </outline>
</glyph>
<glyph name="comma" format="2">
  <advance width="225"/>
  <unicode hex="002C"/>
  <outline>
    <contour>
      <point x="45" y="-63" type="qcurve" smooth="yes"/>
      <point x="42" y="-57"/>
      <point x="42" y="-51" type="qcurve" smooth="yes"/>
      <point x="42" y="-47"/>
      <point x="45" y="-34"/>
      <point x="51" y="-14"/>
      <point x="53" y="-3"/>
      <point x="53" y="-1" type="qcurve"/>
      <point x="53" y="7"/>
      <point x="48" y="14" type="qcurve"/>
      <point x="39" y="33"/>
      <point x="24" y="69"/>
      <point x="24" y="83" type="qcurve" smooth="yes"/>
      <point x="24" y="91"/>
      <point x="26" y="100" type="qcurve"/>
      <point x="26" y="102"/>
      <point x="26" y="104" type="qcurve"/>
      <point x="26" y="126"/>
      <point x="46" y="160"/>
      <point x="79" y="181"/>
      <point x="104" y="184"/>
      <point x="108" y="184" type="qcurve" smooth="yes"/>
      <point x="123" y="184"/>
      <point x="137" y="178" type="qcurve"/>
      <point x="151" y="176"/>
      <point x="171" y="157"/>
      <point x="185" y="130"/>
      <point x="191" y="99"/>
      <point x="191" y="85" type="qcurve"/>
      <point x="188" y="37"/>
      <point x="152" y="-39"/>
      <point x="106" y="-83"/>
      <point x="80" y="-86"/>
      <point x="78" y="-86" type="qcurve"/>
      <point x="57" y="-86"/>
    </contour>
  </outline>
</glyph>
<glyph name="period" format="2">
  <advance width="201"/>
  <unicode hex="002E"/>
  <outline>
    <contour>
      <point x="127" y="18" type="qcurve" smooth="yes"/>
      <point x="113" y="15"/>
      <point x="101" y="15" type="qcurve" smooth="yes"/>
      <point x="86" y="15"/>
      <point x="51" y="26"/>
      <point x="22" y="55"/>
      <point x="14" y="84"/>
      <point x="14" y="93" type="qcurve" smooth="yes"/>
      <point x="14" y="104"/>
      <point x="17" y="114" type="qcurve"/>
      <point x="20" y="130"/>
      <point x="37" y="159"/>
      <point x="64" y="178"/>
      <point x="91" y="184"/>
      <point x="99" y="184" type="qcurve" smooth="yes"/>
      <point x="112" y="184"/>
      <point x="126" y="180" type="qcurve"/>
      <point x="146" y="178"/>
      <point x="171" y="155"/>
      <point x="182" y="123"/>
      <point x="182" y="107" type="qcurve" smooth="yes"/>
      <point x="182" y="104"/>
      <point x="181" y="81"/>
      <point x="167" y="46"/>
      <point x="143" y="21"/>
    </contour>
  </outline>
</glyph>
<glyph name="slash" format="2">
  <advance width="400"/>
  <unicode hex="002F"/>
  <outline>
    <contour>
      <point x="313" y="681" type="qcurve"/>
      <point x="317" y="681"/>
      <point x="321" y="681" type="qcurve" smooth="yes"/>
      <point x="327" y="681"/>
      <point x="347" y="679"/>
      <point x="367" y="669"/>
      <point x="385" y="654"/>
      <point x="386" y="641" type="qcurve"/>
      <point x="386" y="624"/>
      <point x="366" y="564"/>
      <point x="334" y="487"/>
      <point x="293" y="394"/>
      <point x="241" y="280"/>
      <point x="207" y="214"/>
      <point x="197" y="196" type="qcurve"/>
      <point x="187" y="166"/>
      <point x="154" y="100"/>
      <point x="113" y="44"/>
      <point x="75" y="20"/>
      <point x="62" y="20" type="qcurve" smooth="yes"/>
      <point x="51" y="20"/>
      <point x="40" y="26" type="qcurve" smooth="yes"/>
      <point x="24" y="34"/>
      <point x="19" y="60"/>
      <point x="19" y="69" type="qcurve" smooth="yes"/>
      <point x="19" y="80"/>
      <point x="25" y="115"/>
      <point x="44" y="167"/>
      <point x="65" y="217"/>
      <point x="86" y="269"/>
      <point x="91" y="281" type="qcurve"/>
      <point x="127" y="349"/>
      <point x="238" y="588"/>
      <point x="239" y="588" type="qcurve"/>
      <point x="239" y="588"/>
      <point x="239" y="588" type="qcurve"/>
      <point x="246" y="602"/>
      <point x="260" y="630"/>
      <point x="277" y="655"/>
      <point x="297" y="676"/>
      <point x="312" y="681" type="qcurve"/>
      <point x="312" y="681"/>
      <point x="312" y="681" type="qcurve"/>
      <point x="312" y="681"/>
      <point x="312" y="681" type="qcurve"/>
      <point x="312" y="681"/>
      <point x="312" y="681" type="qcurve"/>
      <point x="312" y="681"/>
      <point x="313" y="681" type="qcurve"/>
      <point x="313" y="681"/>
      <point x="313" y="681" type="qcurve"/>
      <point x="313" y="681"/>
      <point x="313" y="681" type="qcurve"/>
      <point x="313" y="681"/>
      <point x="313" y="681" type="qcurve"/>
      <point x="313" y="681"/>
    </contour>
  </outline>
</glyph>
<glyph name="zero" format="2">
  <advance width="474"/>
  <unicode hex="0030"/>
  <outline>
    <contour>
      <point x="227" y="15" type="qcurve" smooth="yes"/>
      <point x="222" y="15"/>
      <point x="217" y="15" type="qcurve" smooth="yes"/>
      <point x="159" y="15"/>
      <point x="85" y="62"/>
      <point x="43" y="136"/>
      <point x="27" y="222"/>
      <point x="24" y="258" type="qcurve"/>
      <point x="20" y="293"/>
      <point x="20" y="327" type="qcurve" smooth="yes"/>
      <point x="20" y="350"/>
      <point x="26" y="430"/>
      <point x="37" y="497" type="qcurve"/>
      <point x="37" y="499" type="line"/>
      <point x="43" y="518"/>
      <point x="56" y="557"/>
      <point x="76" y="593"/>
      <point x="105" y="625"/>
      <point x="126" y="637" type="qcurve" smooth="yes"/>
      <point x="154" y="653"/>
      <point x="217" y="670"/>
      <point x="248" y="670" type="qcurve" smooth="yes"/>
      <point x="263" y="670"/>
      <point x="292" y="667"/>
      <point x="306" y="663" type="qcurve"/>
      <point x="307" y="663" type="line"/>
      <point x="336" y="651"/>
      <point x="388" y="610"/>
      <point x="408" y="580" type="qcurve"/>
      <point x="408" y="579" type="line"/>
      <point x="427" y="542"/>
      <point x="450" y="442"/>
      <point x="454" y="364"/>
      <point x="454" y="342" type="qcurve" smooth="yes"/>
      <point x="454" y="309"/>
      <point x="447" y="220"/>
      <point x="424" y="126"/>
      <point x="387" y="56"/>
      <point x="362" y="43" type="qcurve" smooth="yes"/>
      <point x="327" y="24"/>
      <point x="262" y="15"/>
    </contour>
    <contour>
      <point x="271" y="213" type="qcurve"/>
      <point x="276" y="225"/>
      <point x="285" y="278"/>
      <point x="290" y="336"/>
      <point x="290" y="363" type="qcurve" smooth="yes"/>
      <point x="290" y="369"/>
      <point x="289" y="407"/>
      <point x="277" y="461"/>
      <point x="254" y="493"/>
      <point x="235" y="493" type="qcurve"/>
      <point x="234" y="493"/>
      <point x="233" y="493" type="qcurve"/>
      <point x="214" y="491"/>
      <point x="191" y="451"/>
      <point x="179" y="395"/>
      <point x="178" y="356"/>
      <point x="178" y="347" type="qcurve" smooth="yes"/>
      <point x="178" y="329"/>
      <point x="179" y="316" type="qcurve" smooth="yes"/>
      <point x="182" y="293"/>
      <point x="187" y="234"/>
      <point x="200" y="209" type="qcurve"/>
      <point x="216" y="190"/>
      <point x="254" y="190"/>
    </contour>
  </outline>
</glyph>
<glyph name="one" format="2">
  <advance width="310"/>
  <unicode hex="0031"/>
  <outline>
    <contour>
      <point x="279" y="62" type="qcurve"/>
      <point x="274" y="44"/>
      <point x="242" y="19"/>
      <point x="215" y="13"/>
      <point x="207" y="13" type="qcurve" smooth="yes"/>
      <point x="197" y="13"/>
      <point x="168" y="21"/>
      <point x="158" y="38" type="qcurve"/>
      <point x="141" y="71"/>
      <point x="138" y="150"/>
      <point x="136" y="186" type="qcurve" smooth="yes"/>
      <point x="134" y="214"/>
      <point x="133" y="257"/>
      <point x="133" y="268" type="qcurve" smooth="yes"/>
      <point x="133" y="290"/>
      <point x="135" y="345"/>
      <point x="137" y="410"/>
      <point x="137" y="438" type="qcurve"/>
      <point x="115" y="418"/>
      <point x="85" y="412"/>
      <point x="77" y="412" type="qcurve" smooth="yes"/>
      <point x="65" y="412"/>
      <point x="37" y="423"/>
      <point x="19" y="451"/>
      <point x="19" y="467" type="qcurve" smooth="yes"/>
      <point x="19" y="471"/>
      <point x="19" y="474" type="qcurve"/>
      <point x="27" y="506"/>
      <point x="54" y="555"/>
      <point x="89" y="596"/>
      <point x="132" y="632"/>
      <point x="156" y="651" type="qcurve" smooth="yes"/>
      <point x="170" y="662"/>
      <point x="201" y="668"/>
      <point x="211" y="668" type="qcurve" smooth="yes"/>
      <point x="219" y="668"/>
      <point x="245" y="664"/>
      <point x="272" y="644"/>
      <point x="274" y="628" type="qcurve"/>
      <point x="284" y="577"/>
      <point x="284" y="529" type="qcurve" smooth="yes"/>
      <point x="284" y="521"/>
      <point x="283" y="484"/>
      <point x="283" y="456" type="qcurve" smooth="yes"/>
      <point x="283" y="427"/>
      <point x="284" y="398" type="qcurve"/>
      <point x="282" y="366"/>
      <point x="282" y="340" type="qcurve" smooth="yes"/>
      <point x="282" y="333"/>
      <point x="283" y="296"/>
      <point x="284" y="243"/>
      <point x="284" y="222" type="qcurve" smooth="yes"/>
      <point x="284" y="202"/>
      <point x="283" y="132"/>
    </contour>
  </outline>
</glyph>
<glyph name="two" format="2">
  <advance width="443"/>
  <unicode hex="0032"/>
  <outline>
    <contour>
      <point x="25" y="525" type="qcurve"/>
      <point x="25" y="529"/>
      <point x="25" y="532" type="qcurve" smooth="yes"/>
      <point x="25" y="568"/>
      <point x="81" y="633"/>
      <point x="169" y="677"/>
      <point x="230" y="683"/>
      <point x="240" y="683" type="qcurve" smooth="yes"/>
      <point x="278" y="683"/>
      <point x="309" y="668" type="qcurve"/>
      <point x="333" y="660"/>
      <point x="377" y="627"/>
      <point x="409" y="584"/>
      <point x="423" y="543"/>
      <point x="423" y="526" type="qcurve" smooth="yes"/>
      <point x="423" y="519"/>
      <point x="422" y="511" type="qcurve"/>
      <point x="420" y="442"/>
      <point x="379" y="346"/>
      <point x="322" y="274"/>
      <point x="258" y="220"/>
      <point x="233" y="194" type="qcurve"/>
      <point x="258" y="194"/>
      <point x="293" y="197"/>
      <point x="313" y="198"/>
      <point x="316" y="198" type="qcurve" smooth="yes"/>
      <point x="332" y="198"/>
      <point x="371" y="193"/>
      <point x="403" y="184" type="qcurve"/>
      <point x="421" y="171"/>
      <point x="432" y="131"/>
      <point x="432" y="116" type="qcurve" smooth="yes"/>
      <point x="432" y="107"/>
      <point x="426" y="73"/>
      <point x="398" y="34"/>
      <point x="376" y="31" type="qcurve"/>
      <point x="336" y="19"/>
      <point x="237" y="9"/>
      <point x="193" y="9" type="qcurve" smooth="yes"/>
      <point x="189" y="9"/>
      <point x="137" y="10"/>
      <point x="65" y="24"/>
      <point x="56" y="37" type="qcurve"/>
      <point x="42" y="49"/>
      <point x="25" y="86"/>
      <point x="21" y="117"/>
      <point x="21" y="127" type="qcurve" smooth="yes"/>
      <point x="21" y="137"/>
      <point x="25" y="168"/>
      <point x="35" y="183" type="qcurve" smooth="yes"/>
      <point x="60" y="219"/>
      <point x="133" y="300"/>
      <point x="200" y="377"/>
      <point x="241" y="440"/>
      <point x="241" y="461" type="qcurve" smooth="yes"/>
      <point x="241" y="464"/>
      <point x="240" y="468" type="qcurve"/>
      <point x="240" y="469"/>
      <point x="240" y="471" type="qcurve"/>
      <point x="240" y="477"/>
      <point x="224" y="498"/>
      <point x="216" y="500" type="qcurve" smooth="yes"/>
      <point x="214" y="501"/>
      <point x="211" y="501" type="qcurve" smooth="yes"/>
      <point x="202" y="501"/>
      <point x="172" y="491"/>
      <point x="130" y="476"/>
      <point x="91" y="465"/>
      <point x="76" y="465" type="qcurve" smooth="yes"/>
      <point x="72" y="465"/>
      <point x="49" y="467"/>
      <point x="26" y="494"/>
    </contour>
  </outline>
</glyph>
<glyph name="three" format="2">
  <advance width="453"/>
  <unicode hex="0033"/>
  <outline>
    <contour>
      <point x="25" y="111" type="qcurve"/>
      <point x="16" y="126"/>
      <point x="14" y="147"/>
      <point x="14" y="150" type="qcurve" smooth="yes"/>
      <point x="14" y="164"/>
      <point x="27" y="194"/>
      <point x="59" y="219"/>
      <point x="84" y="224" type="qcurve" smooth="yes"/>
      <point x="90" y="225"/>
      <point x="95" y="225" type="qcurve" smooth="yes"/>
      <point x="117" y="225"/>
      <point x="158" y="204"/>
      <point x="197" y="181"/>
      <point x="217" y="176"/>
      <point x="220" y="176" type="qcurve" smooth="yes"/>
      <point x="234" y="176"/>
      <point x="248" y="191" type="qcurve"/>
      <point x="263" y="216"/>
      <point x="264" y="234"/>
      <point x="264" y="235" type="qcurve"/>
      <point x="264" y="251"/>
      <point x="247" y="271"/>
      <point x="216" y="284"/>
      <point x="180" y="292"/>
      <point x="144" y="299"/>
      <point x="132" y="304" type="qcurve" smooth="yes"/>
      <point x="118" y="311"/>
      <point x="107" y="335"/>
      <point x="106" y="352"/>
      <point x="106" y="354" type="qcurve"/>
      <point x="106" y="365"/>
      <point x="112" y="388"/>
      <point x="118" y="399" type="qcurve"/>
      <point x="122" y="411"/>
      <point x="146" y="428"/>
      <point x="176" y="441"/>
      <point x="208" y="454"/>
      <point x="234" y="471"/>
      <point x="247" y="493"/>
      <point x="247" y="507" type="qcurve" smooth="yes"/>
      <point x="247" y="510"/>
      <point x="247" y="514" type="qcurve"/>
      <point x="239" y="530"/>
      <point x="223" y="530" type="qcurve"/>
      <point x="222" y="530"/>
      <point x="203" y="529"/>
      <point x="156" y="514"/>
      <point x="116" y="504"/>
      <point x="103" y="504" type="qcurve" smooth="yes"/>
      <point x="91" y="504"/>
      <point x="79" y="507" type="qcurve"/>
      <point x="54" y="510"/>
      <point x="27" y="543"/>
      <point x="24" y="569"/>
      <point x="24" y="573" type="qcurve" smooth="yes"/>
      <point x="24" y="589"/>
      <point x="40" y="626"/>
      <point x="60" y="636" type="qcurve"/>
      <point x="106" y="663"/>
      <point x="189" y="688"/>
      <point x="222" y="688" type="qcurve" smooth="yes"/>
      <point x="244" y="688"/>
      <point x="266" y="684" type="qcurve"/>
      <point x="295" y="682"/>
      <point x="347" y="656"/>
      <point x="388" y="617"/>
      <point x="414" y="569"/>
      <point x="417" y="544" type="qcurve"/>
      <point x="418" y="526"/>
      <point x="418" y="512" type="qcurve" smooth="yes"/>
      <point x="418" y="495"/>
      <point x="413" y="457"/>
      <point x="394" y="423"/>
      <point x="365" y="397"/>
      <point x="346" y="381" type="qcurve"/>
      <point x="373" y="366"/>
      <point x="413" y="318"/>
      <point x="423" y="292" type="qcurve" smooth="yes"/>
      <point x="432" y="266"/>
      <point x="432" y="239" type="qcurve" smooth="yes"/>
      <point x="432" y="212"/>
      <point x="403" y="130"/>
      <point x="365" y="87" type="qcurve"/>
      <point x="328" y="52"/>
      <point x="243" y="18"/>
      <point x="202" y="18" type="qcurve" smooth="yes"/>
      <point x="198" y="18"/>
      <point x="147" y="20"/>
      <point x="60" y="66"/>
    </contour>
  </outline>
</glyph>
<glyph name="four" format="2">
  <advance width="441"/>
  <unicode hex="0034"/>
  <outline>
    <contour>
      <point x="351" y="46" type="qcurve" smooth="yes"/>
      <point x="344" y="29"/>
      <point x="307" y="12"/>
      <point x="284" y="11"/>
      <point x="281" y="11" type="qcurve" smooth="yes"/>
      <point x="263" y="11"/>
      <point x="226" y="25"/>
      <point x="219" y="41" type="qcurve" smooth="yes"/>
      <point x="208" y="68"/>
      <point x="205" y="103"/>
      <point x="205" y="116" type="qcurve" smooth="yes"/>
      <point x="205" y="123"/>
      <point x="206" y="149"/>
      <point x="208" y="179"/>
      <point x="208" y="189" type="qcurve" smooth="yes"/>
      <point x="208" y="203"/>
      <point x="207" y="219" type="qcurve"/>
      <point x="196" y="220"/>
      <point x="184" y="220" type="qcurve" smooth="yes"/>
      <point x="172" y="220"/>
      <point x="139" y="217"/>
      <point x="120" y="217" type="qcurve" smooth="yes"/>
      <point x="115" y="217"/>
      <point x="86" y="218"/>
      <point x="44" y="233"/>
      <point x="31" y="254" type="qcurve"/>
      <point x="16" y="274"/>
      <point x="12" y="304"/>
      <point x="12" y="312" type="qcurve" smooth="yes"/>
      <point x="12" y="326"/>
      <point x="21" y="362"/>
      <point x="43" y="405"/>
      <point x="55" y="423" type="qcurve" smooth="yes"/>
      <point x="73" y="452"/>
      <point x="90" y="483" type="qcurve"/>
      <point x="90" y="483"/>
      <point x="91" y="484" type="qcurve"/>
      <point x="93" y="489" type="line"/>
      <point x="93" y="489"/>
      <point x="94" y="490" type="qcurve"/>
      <point x="96" y="494" type="line"/>
      <point x="97" y="495"/>
      <point x="97" y="496" type="qcurve"/>
      <point x="100" y="501" type="line"/>
      <point x="100" y="502"/>
      <point x="100" y="502" type="qcurve"/>
      <point x="103" y="507" type="line"/>
      <point x="104" y="508"/>
      <point x="104" y="509" type="qcurve"/>
      <point x="107" y="514" type="line"/>
      <point x="107" y="514"/>
      <point x="107" y="514" type="qcurve"/>
      <point x="110" y="519" type="line"/>
      <point x="110" y="520"/>
      <point x="111" y="521" type="qcurve"/>
      <point x="114" y="526" type="line"/>
      <point x="114" y="526"/>
      <point x="114" y="527" type="qcurve"/>
      <point x="117" y="532" type="line"/>
      <point x="117" y="533"/>
      <point x="118" y="534" type="qcurve"/>
      <point x="120" y="538" type="line"/>
      <point x="121" y="539"/>
      <point x="121" y="539" type="qcurve"/>
      <point x="123" y="544" type="line"/>
      <point x="124" y="545"/>
      <point x="124" y="545" type="qcurve"/>
      <point x="141" y="576"/>
      <point x="178" y="637"/>
      <point x="200" y="664" type="qcurve"/>
      <point x="208" y="679"/>
      <point x="242" y="688"/>
      <point x="256" y="688" type="qcurve" smooth="yes"/>
      <point x="263" y="688"/>
      <point x="293" y="684"/>
      <point x="328" y="664"/>
      <point x="331" y="649" type="qcurve" smooth="yes"/>
      <point x="333" y="641"/>
      <point x="333" y="633" type="qcurve" smooth="yes"/>
      <point x="333" y="622"/>
      <point x="324" y="590"/>
      <point x="304" y="550"/>
      <point x="280" y="512"/>
      <point x="272" y="496" type="qcurve" smooth="yes"/>
      <point x="258" y="465"/>
      <point x="218" y="407"/>
      <point x="204" y="376" type="qcurve"/>
      <point x="213" y="377"/>
      <point x="225" y="377"/>
      <point x="233" y="378" type="qcurve"/>
      <point x="236" y="389"/>
      <point x="247" y="412"/>
      <point x="265" y="430"/>
      <point x="283" y="437"/>
      <point x="291" y="437" type="qcurve" smooth="yes"/>
      <point x="297" y="437"/>
      <point x="305" y="435" type="qcurve"/>
      <point x="311" y="436"/>
      <point x="317" y="436" type="qcurve" smooth="yes"/>
      <point x="339" y="436"/>
      <point x="370" y="401"/>
      <point x="374" y="378" type="qcurve"/>
      <point x="383" y="376"/>
      <point x="396" y="376"/>
      <point x="406" y="374"/>
      <point x="416" y="369"/>
      <point x="423" y="362" type="qcurve" smooth="yes"/>
      <point x="441" y="342"/>
      <point x="441" y="319" type="qcurve" smooth="yes"/>
      <point x="441" y="313"/>
      <point x="434" y="277"/>
      <point x="414" y="254" type="qcurve" smooth="yes"/>
      <point x="406" y="246"/>
      <point x="397" y="239"/>
      <point x="390" y="237"/>
      <point x="387" y="237" type="qcurve"/>
      <point x="385" y="237"/>
      <point x="377" y="238"/>
      <point x="366" y="238" type="qcurve"/>
      <point x="366" y="227"/>
      <point x="366" y="217" type="qcurve" smooth="yes"/>
      <point x="366" y="197"/>
      <point x="369" y="157"/>
      <point x="370" y="132"/>
      <point x="370" y="127" type="qcurve" smooth="yes"/>
      <point x="370" y="111"/>
      <point x="364" y="74"/>
    </contour>
  </outline>
</glyph>
<glyph name="five" format="2">
  <advance width="431"/>
  <unicode hex="0035"/>
  <outline>
    <contour>
      <point x="26" y="147" type="qcurve"/>
      <point x="38" y="170"/>
      <point x="63" y="174"/>
      <point x="70" y="174" type="qcurve" smooth="yes"/>
      <point x="85" y="174"/>
      <point x="102" y="169" type="qcurve"/>
      <point x="118" y="169"/>
      <point x="146" y="164"/>
      <point x="158" y="164" type="qcurve" smooth="yes"/>
      <point x="161" y="164"/>
      <point x="179" y="165"/>
      <point x="215" y="176"/>
      <point x="237" y="190" type="qcurve"/>
      <point x="249" y="200"/>
      <point x="255" y="228"/>
      <point x="255" y="239" type="qcurve" smooth="yes"/>
      <point x="255" y="246"/>
      <point x="252" y="271"/>
      <point x="234" y="302"/>
      <point x="219" y="310" type="qcurve" smooth="yes"/>
      <point x="202" y="318"/>
      <point x="170" y="322"/>
      <point x="155" y="322" type="qcurve" smooth="yes"/>
      <point x="151" y="322"/>
      <point x="128" y="321"/>
      <point x="107" y="320"/>
      <point x="104" y="320" type="qcurve" smooth="yes"/>
      <point x="88" y="320"/>
      <point x="73" y="323" type="qcurve"/>
      <point x="60" y="323"/>
      <point x="41" y="338"/>
      <point x="28" y="359"/>
      <point x="23" y="382"/>
      <point x="23" y="391" type="qcurve" smooth="yes"/>
      <point x="23" y="394"/>
      <point x="23" y="397" type="qcurve"/>
      <point x="19" y="444"/>
      <point x="19" y="488" type="qcurve" smooth="yes"/>
      <point x="19" y="497"/>
      <point x="20" y="559"/>
      <point x="34" y="622" type="qcurve"/>
      <point x="42" y="641"/>
      <point x="82" y="670"/>
      <point x="113" y="670" type="qcurve" smooth="yes"/>
      <point x="125" y="670"/>
      <point x="136" y="670" type="qcurve" smooth="yes"/>
      <point x="154" y="670"/>
      <point x="201" y="672"/>
      <point x="240" y="673"/>
      <point x="249" y="673" type="qcurve" smooth="yes"/>
      <point x="269" y="673"/>
      <point x="317" y="671"/>
      <point x="346" y="665" type="qcurve"/>
      <point x="361" y="665"/>
      <point x="385" y="649"/>
      <point x="403" y="624"/>
      <point x="414" y="593"/>
      <point x="414" y="578" type="qcurve" smooth="yes"/>
      <point x="414" y="575"/>
      <point x="414" y="571" type="qcurve" smooth="yes"/>
      <point x="414" y="550"/>
      <point x="378" y="523"/>
      <point x="355" y="521" type="qcurve"/>
      <point x="314" y="519"/>
      <point x="289" y="519" type="qcurve" smooth="yes"/>
      <point x="285" y="519" type="line"/>
      <point x="284" y="519"/>
      <point x="283" y="519" type="qcurve"/>
      <point x="279" y="519" type="line"/>
      <point x="278" y="519"/>
      <point x="277" y="519" type="qcurve"/>
      <point x="267" y="519" type="line"/>
      <point x="267" y="519"/>
      <point x="266" y="519" type="qcurve"/>
      <point x="245" y="519" type="line" smooth="yes"/>
      <point x="226" y="519"/>
      <point x="193" y="518"/>
      <point x="169" y="516" type="qcurve"/>
      <point x="171" y="457" type="line"/>
      <point x="191" y="459"/>
      <point x="209" y="459" type="qcurve" smooth="yes"/>
      <point x="251" y="459"/>
      <point x="334" y="431"/>
      <point x="395" y="367"/>
      <point x="419" y="290"/>
      <point x="419" y="254" type="qcurve" smooth="yes"/>
      <point x="419" y="245"/>
      <point x="415" y="191"/>
      <point x="375" y="106"/>
      <point x="304" y="42"/>
      <point x="219" y="14"/>
      <point x="178" y="14" type="qcurve" smooth="yes"/>
      <point x="158" y="14"/>
      <point x="136" y="17" type="qcurve"/>
      <point x="103" y="23"/>
      <point x="51" y="37"/>
      <point x="20" y="64"/>
      <point x="16" y="91"/>
      <point x="16" y="96" type="qcurve" smooth="yes"/>
      <point x="16" y="117"/>
    </contour>
  </outline>
</glyph>
<glyph name="six" format="2">
  <advance width="498"/>
  <unicode hex="0036"/>
  <outline>
    <contour>
      <point x="433" y="93" type="qcurve"/>
      <point x="380" y="43"/>
      <point x="283" y="17"/>
      <point x="249" y="17" type="qcurve" smooth="yes"/>
      <point x="224" y="17"/>
      <point x="144" y="35"/>
      <point x="59" y="112"/>
      <point x="44" y="173" type="qcurve"/>
      <point x="25" y="242"/>
      <point x="25" y="308" type="qcurve" smooth="yes"/>
      <point x="25" y="313"/>
      <point x="27" y="389"/>
      <point x="65" y="511"/>
      <point x="137" y="608"/>
      <point x="234" y="666"/>
      <point x="305" y="673"/>
      <point x="317" y="673" type="qcurve" smooth="yes"/>
      <point x="367" y="673"/>
      <point x="422" y="653" type="qcurve" smooth="yes"/>
      <point x="440" y="646"/>
      <point x="460" y="613"/>
      <point x="461" y="592"/>
      <point x="461" y="590" type="qcurve"/>
      <point x="461" y="574"/>
      <point x="446" y="542"/>
      <point x="428" y="534" type="qcurve"/>
      <point x="420" y="528"/>
      <point x="407" y="528" type="qcurve" smooth="yes"/>
      <point x="404" y="528"/>
      <point x="384" y="530"/>
      <point x="349" y="534"/>
      <point x="333" y="534" type="qcurve" smooth="yes"/>
      <point x="327" y="534"/>
      <point x="297" y="533"/>
      <point x="254" y="512"/>
      <point x="217" y="463"/>
      <point x="205" y="417" type="qcurve"/>
      <point x="239" y="430"/>
      <point x="288" y="438"/>
      <point x="303" y="438" type="qcurve" smooth="yes"/>
      <point x="320" y="438"/>
      <point x="366" y="429"/>
      <point x="420" y="392"/>
      <point x="442" y="358" type="qcurve" smooth="yes"/>
      <point x="482" y="299"/>
      <point x="483" y="230"/>
      <point x="483" y="229" type="qcurve"/>
      <point x="483" y="163"/>
    </contour>
    <contour>
      <point x="322" y="253" type="qcurve"/>
      <point x="312" y="275"/>
      <point x="280" y="290"/>
      <point x="267" y="290" type="qcurve" smooth="yes"/>
      <point x="261" y="290"/>
      <point x="236" y="285"/>
      <point x="202" y="257"/>
      <point x="196" y="235" type="qcurve"/>
      <point x="196" y="233"/>
      <point x="196" y="231" type="qcurve"/>
      <point x="196" y="206"/>
      <point x="218" y="174"/>
      <point x="247" y="163"/>
      <point x="259" y="163" type="qcurve" smooth="yes"/>
      <point x="265" y="163"/>
      <point x="290" y="167"/>
      <point x="319" y="189"/>
      <point x="327" y="216"/>
      <point x="327" y="224" type="qcurve" smooth="yes"/>
      <point x="327" y="237"/>
    </contour>
  </outline>
</glyph>
<glyph name="seven" format="2">
  <advance width="423"/>
  <unicode hex="0037"/>
  <outline>
    <contour>
      <point x="24" y="546" type="qcurve" smooth="yes"/>
      <point x="20" y="567"/>
      <point x="20" y="584" type="qcurve" smooth="yes"/>
      <point x="20" y="616"/>
      <point x="56" y="661"/>
      <point x="134" y="677"/>
      <point x="177" y="677" type="qcurve" smooth="yes"/>
      <point x="189" y="677"/>
      <point x="260" y="674"/>
      <point x="321" y="674" type="qcurve"/>
      <point x="364" y="672"/>
      <point x="404" y="622"/>
      <point x="404" y="589" type="qcurve"/>
      <point x="387" y="517"/>
      <point x="345" y="389"/>
      <point x="294" y="267"/>
      <point x="235" y="146"/>
      <point x="202" y="80" type="qcurve"/>
      <point x="186" y="52"/>
      <point x="144" y="24"/>
      <point x="120" y="22"/>
      <point x="116" y="22" type="qcurve" smooth="yes"/>
      <point x="100" y="22"/>
      <point x="67" y="39"/>
      <point x="48" y="75"/>
      <point x="48" y="100" type="qcurve"/>
      <point x="48" y="102"/>
      <point x="49" y="132"/>
      <point x="65" y="166" type="qcurve"/>
      <point x="83" y="213"/>
      <point x="118" y="295"/>
      <point x="153" y="374"/>
      <point x="188" y="455"/>
      <point x="206" y="502" type="qcurve"/>
      <point x="188" y="504"/>
      <point x="169" y="504" type="qcurve" smooth="yes"/>
      <point x="159" y="504"/>
      <point x="131" y="503"/>
      <point x="114" y="503" type="qcurve" smooth="yes"/>
      <point x="103" y="503"/>
      <point x="66" y="504"/>
      <point x="29" y="522"/>
    </contour>
  </outline>
</glyph>
<glyph name="eight" format="2">
  <advance width="472"/>
  <unicode hex="0038"/>
  <outline>
    <contour>
      <point x="379" y="630" type="qcurve"/>
      <point x="406" y="608"/>
      <point x="432" y="548"/>
      <point x="432" y="516" type="qcurve"/>
      <point x="432" y="515"/>
      <point x="431" y="481"/>
      <point x="405" y="419"/>
      <point x="380" y="397" type="qcurve"/>
      <point x="420" y="367"/>
      <point x="456" y="285"/>
      <point x="456" y="241" type="qcurve"/>
      <point x="456" y="240"/>
      <point x="455" y="194"/>
      <point x="420" y="108"/>
      <point x="358" y="44"/>
      <point x="286" y="15"/>
      <point x="253" y="15" type="qcurve" smooth="yes"/>
      <point x="237" y="15"/>
      <point x="221" y="18" type="qcurve"/>
      <point x="217" y="18"/>
      <point x="214" y="18" type="qcurve" smooth="yes"/>
      <point x="181" y="18"/>
      <point x="119" y="36"/>
      <point x="68" y="70"/>
      <point x="30" y="117"/>
      <point x="20" y="144" type="qcurve"/>
      <point x="11" y="178"/>
      <point x="11" y="257"/>
      <point x="30" y="329"/>
      <point x="68" y="386"/>
      <point x="97" y="398" type="qcurve"/>
      <point x="65" y="425"/>
      <point x="45" y="497"/>
      <point x="45" y="531" type="qcurve" smooth="yes"/>
      <point x="45" y="535"/>
      <point x="45" y="538" type="qcurve"/>
      <point x="57" y="601"/>
      <point x="135" y="673"/>
      <point x="207" y="687"/>
      <point x="229" y="687" type="qcurve" smooth="yes"/>
      <point x="258" y="687"/>
      <point x="341" y="666"/>
    </contour>
    <contour>
      <point x="217" y="476" type="qcurve" smooth="yes"/>
      <point x="228" y="468"/>
      <point x="240" y="468" type="qcurve"/>
      <point x="241" y="468"/>
      <point x="255" y="469"/>
      <point x="274" y="483"/>
      <point x="280" y="498"/>
      <point x="280" y="503" type="qcurve" smooth="yes"/>
      <point x="280" y="510"/>
      <point x="276" y="517" type="qcurve"/>
      <point x="270" y="535"/>
      <point x="250" y="537"/>
      <point x="248" y="537" type="qcurve"/>
      <point x="234" y="537"/>
      <point x="208" y="522"/>
      <point x="203" y="503"/>
      <point x="203" y="500" type="qcurve" smooth="yes"/>
      <point x="203" y="488"/>
    </contour>
    <contour>
      <point x="184" y="197" type="qcurve"/>
      <point x="205" y="171"/>
      <point x="228" y="171" type="qcurve"/>
      <point x="229" y="171"/>
      <point x="253" y="172"/>
      <point x="284" y="204"/>
      <point x="286" y="230"/>
      <point x="286" y="231" type="qcurve"/>
      <point x="286" y="254"/>
      <point x="262" y="275" type="qcurve"/>
      <point x="249" y="290"/>
      <point x="212" y="290"/>
      <point x="183" y="267"/>
      <point x="175" y="239"/>
      <point x="175" y="231" type="qcurve" smooth="yes"/>
      <point x="175" y="215"/>
    </contour>
  </outline>
</glyph>
<glyph name="nine" format="2">
  <advance width="487"/>
  <unicode hex="0039"/>
  <outline>
    <contour>
      <point x="66" y="598" type="qcurve"/>
      <point x="108" y="653"/>
      <point x="201" y="682"/>
      <point x="235" y="682" type="qcurve" smooth="yes"/>
      <point x="258" y="682"/>
      <point x="338" y="664"/>
      <point x="429" y="585"/>
      <point x="447" y="525" type="qcurve" smooth="yes"/>
      <point x="470" y="452"/>
      <point x="472" y="376"/>
      <point x="472" y="370" type="qcurve" smooth="yes"/>
      <point x="472" y="306"/>
      <point x="439" y="188"/>
      <point x="371" y="91"/>
      <point x="276" y="31"/>
      <point x="199" y="21"/>
      <point x="182" y="21" type="qcurve" smooth="yes"/>
      <point x="137" y="21"/>
      <point x="87" y="36" type="qcurve" smooth="yes"/>
      <point x="69" y="42"/>
      <point x="49" y="79"/>
      <point x="47" y="104"/>
      <point x="47" y="109" type="qcurve" smooth="yes"/>
      <point x="47" y="125"/>
      <point x="60" y="160"/>
      <point x="78" y="169" type="qcurve"/>
      <point x="86" y="175"/>
      <point x="100" y="175" type="qcurve"/>
      <point x="102" y="175"/>
      <point x="121" y="174"/>
      <point x="162" y="169"/>
      <point x="208" y="169"/>
      <point x="250" y="186"/>
      <point x="287" y="229"/>
      <point x="298" y="269" type="qcurve"/>
      <point x="265" y="254"/>
      <point x="208" y="247"/>
      <point x="190" y="247" type="qcurve" smooth="yes"/>
      <point x="172" y="247"/>
      <point x="119" y="254"/>
      <point x="60" y="288"/>
      <point x="44" y="317" type="qcurve" smooth="yes"/>
      <point x="23" y="356"/>
      <point x="9" y="415"/>
      <point x="9" y="438" type="qcurve" smooth="yes"/>
      <point x="9" y="449"/>
      <point x="14" y="494"/>
      <point x="42" y="562"/>
    </contour>
    <contour>
      <point x="179" y="437" type="qcurve"/>
      <point x="190" y="415"/>
      <point x="222" y="396"/>
      <point x="237" y="396" type="qcurve"/>
      <point x="239" y="396"/>
      <point x="258" y="398"/>
      <point x="286" y="422"/>
      <point x="291" y="444" type="qcurve"/>
      <point x="291" y="472"/>
      <point x="270" y="504"/>
      <point x="244" y="514"/>
      <point x="233" y="514" type="qcurve" smooth="yes"/>
      <point x="228" y="514"/>
      <point x="206" y="510"/>
      <point x="181" y="490"/>
      <point x="174" y="467"/>
      <point x="174" y="460" type="qcurve" smooth="yes"/>
      <point x="174" y="449"/>
    </contour>
  </outline>
</glyph>
<glyph name="colon" format="2">
  <advance width="206"/>
  <unicode hex="003A"/>
  <outline>
    <contour>
      <point x="130" y="403" type="qcurve" smooth="yes"/>
      <point x="116" y="400"/>
      <point x="104" y="400" type="qcurve" smooth="yes"/>
      <point x="89" y="400"/>
      <point x="54" y="411"/>
      <point x="25" y="440"/>
      <point x="17" y="469"/>
      <point x="17" y="478" type="qcurve" smooth="yes"/>
      <point x="17" y="489"/>
      <point x="20" y="499" type="qcurve"/>
      <point x="23" y="515"/>
      <point x="40" y="544"/>
      <point x="67" y="563"/>
      <point x="94" y="569"/>
      <point x="102" y="569" type="qcurve" smooth="yes"/>
      <point x="115" y="569"/>
      <point x="129" y="565" type="qcurve"/>
      <point x="149" y="563"/>
      <point x="174" y="540"/>
      <point x="185" y="508"/>
      <point x="185" y="492" type="qcurve" smooth="yes"/>
      <point x="185" y="489"/>
      <point x="184" y="466"/>
      <point x="170" y="431"/>
      <point x="146" y="406"/>
    </contour>
    <contour>
      <point x="132" y="18" type="qcurve" smooth="yes"/>
      <point x="118" y="15"/>
      <point x="106" y="15" type="qcurve" smooth="yes"/>
      <point x="91" y="15"/>
      <point x="56" y="26"/>
      <point x="27" y="55"/>
      <point x="19" y="84"/>
      <point x="19" y="93" type="qcurve" smooth="yes"/>
      <point x="19" y="104"/>
      <point x="22" y="114" type="qcurve"/>
      <point x="25" y="130"/>
      <point x="42" y="159"/>
      <point x="69" y="178"/>
      <point x="96" y="184"/>
      <point x="104" y="184" type="qcurve" smooth="yes"/>
      <point x="117" y="184"/>
      <point x="131" y="180" type="qcurve"/>
      <point x="151" y="178"/>
      <point x="176" y="155"/>
      <point x="187" y="123"/>
      <point x="187" y="107" type="qcurve" smooth="yes"/>
      <point x="187" y="104"/>
      <point x="186" y="81"/>
      <point x="172" y="46"/>
      <point x="148" y="21"/>
    </contour>
  </outline>
</glyph>
<glyph name="semicolon" format="2">
  <advance width="216"/>
  <unicode hex="003B"/>
  <outline>
    <contour>
      <point x="130" y="403" type="qcurve" smooth="yes"/>
      <point x="116" y="400"/>
      <point x="104" y="400" type="qcurve" smooth="yes"/>
      <point x="89" y="400"/>
      <point x="54" y="411"/>
      <point x="25" y="440"/>
      <point x="17" y="469"/>
      <point x="17" y="478" type="qcurve" smooth="yes"/>
      <point x="17" y="489"/>
      <point x="20" y="499" type="qcurve"/>
      <point x="23" y="515"/>
      <point x="40" y="544"/>
      <point x="67" y="563"/>
      <point x="94" y="569"/>
      <point x="102" y="569" type="qcurve" smooth="yes"/>
      <point x="115" y="569"/>
      <point x="129" y="565" type="qcurve"/>
      <point x="149" y="563"/>
      <point x="174" y="540"/>
      <point x="185" y="508"/>
      <point x="185" y="492" type="qcurve" smooth="yes"/>
      <point x="185" y="489"/>
      <point x="184" y="466"/>
      <point x="170" y="431"/>
      <point x="146" y="406"/>
    </contour>
    <contour>
      <point x="43" y="-55" type="qcurve" smooth="yes"/>
      <point x="40" y="-49"/>
      <point x="40" y="-43" type="qcurve" smooth="yes"/>
      <point x="40" y="-39"/>
      <point x="43" y="-26"/>
      <point x="49" y="-7"/>
      <point x="51" y="4"/>
      <point x="51" y="6" type="qcurve"/>
      <point x="51" y="14"/>
      <point x="46" y="21" type="qcurve"/>
      <point x="37" y="40"/>
      <point x="22" y="75"/>
      <point x="22" y="89" type="qcurve" smooth="yes"/>
      <point x="22" y="97"/>
      <point x="24" y="106" type="qcurve"/>
      <point x="24" y="108"/>
      <point x="24" y="110" type="qcurve"/>
      <point x="24" y="132"/>
      <point x="44" y="165"/>
      <point x="77" y="186"/>
      <point x="102" y="189"/>
      <point x="106" y="189" type="qcurve" smooth="yes"/>
      <point x="121" y="189"/>
      <point x="135" y="183" type="qcurve"/>
      <point x="149" y="181"/>
      <point x="170" y="162"/>
      <point x="183" y="136"/>
      <point x="190" y="105"/>
      <point x="190" y="91" type="qcurve"/>
      <point x="187" y="44"/>
      <point x="151" y="-32"/>
      <point x="104" y="-75"/>
      <point x="78" y="-77"/>
      <point x="76" y="-77" type="qcurve"/>
      <point x="55" y="-77"/>
    </contour>
  </outline>
</glyph>
<glyph name="less" format="2">
  <advance width="389"/>
  <unicode hex="003C"/>
  <outline>
    <contour>
      <point x="326" y="123" type="qcurve" smooth="yes"/>
      <point x="315" y="123"/>
      <point x="273" y="129"/>
      <point x="220" y="143"/>
      <point x="160" y="163"/>
      <point x="104" y="191"/>
      <point x="56" y="228"/>
      <point x="41" y="250" type="qcurve" smooth="yes"/>
      <point x="37" y="257"/>
      <point x="33" y="288"/>
      <point x="33" y="297" type="qcurve"/>
      <point x="33" y="298"/>
      <point x="33" y="298" type="qcurve"/>
      <point x="33" y="299"/>
      <point x="33" y="299" type="qcurve"/>
      <point x="33" y="300" type="line"/>
      <point x="33" y="300"/>
      <point x="33" y="301" type="qcurve"/>
      <point x="33" y="301"/>
      <point x="33" y="302" type="qcurve"/>
      <point x="33" y="302"/>
      <point x="33" y="302" type="qcurve"/>
      <point x="33" y="303"/>
      <point x="33" y="303" type="qcurve"/>
      <point x="33" y="311" type="line" smooth="yes"/>
      <point x="33" y="320"/>
      <point x="34" y="324" type="qcurve" smooth="yes"/>
      <point x="40" y="366"/>
      <point x="70" y="411"/>
      <point x="91" y="425" type="qcurve" smooth="yes"/>
      <point x="103" y="433"/>
      <point x="141" y="453"/>
      <point x="187" y="474"/>
      <point x="235" y="493"/>
      <point x="279" y="505"/>
      <point x="304" y="508"/>
      <point x="310" y="508" type="qcurve" smooth="yes"/>
      <point x="321" y="508"/>
      <point x="328" y="505" type="qcurve" smooth="yes"/>
      <point x="338" y="502"/>
      <point x="351" y="484"/>
      <point x="357" y="461"/>
      <point x="358" y="435"/>
      <point x="358" y="425" type="qcurve" smooth="yes"/>
      <point x="358" y="409"/>
      <point x="341" y="384"/>
      <point x="313" y="365"/>
      <point x="277" y="349"/>
      <point x="241" y="335"/>
      <point x="208" y="324"/>
      <point x="196" y="319" type="qcurve"/>
      <point x="208" y="314"/>
      <point x="242" y="301"/>
      <point x="278" y="283"/>
      <point x="314" y="262"/>
      <point x="342" y="236"/>
      <point x="358" y="206"/>
      <point x="358" y="190" type="qcurve"/>
      <point x="357" y="180"/>
      <point x="352" y="157"/>
      <point x="343" y="137"/>
      <point x="332" y="123"/>
    </contour>
  </outline>
</glyph>
<glyph name="equal" format="2">
  <advance width="376"/>
  <unicode hex="003D"/>
  <outline>
    <contour>
      <point x="307" y="322" type="qcurve"/>
      <point x="284" y="316"/>
      <point x="165" y="315"/>
      <point x="159" y="315" type="qcurve" smooth="yes"/>
      <point x="56" y="315"/>
      <point x="27" y="350"/>
      <point x="20" y="377"/>
      <point x="20" y="386" type="qcurve" smooth="yes"/>
      <point x="20" y="395"/>
      <point x="22" y="403" type="qcurve" smooth="yes"/>
      <point x="25" y="417"/>
      <point x="41" y="444"/>
      <point x="66" y="461"/>
      <point x="165" y="461" type="qcurve" smooth="yes"/>
      <point x="171" y="461"/>
      <point x="287" y="460"/>
      <point x="307" y="454" type="qcurve"/>
      <point x="323" y="452"/>
      <point x="343" y="434"/>
      <point x="352" y="408"/>
      <point x="352" y="395" type="qcurve"/>
      <point x="352" y="393"/>
      <point x="351" y="374"/>
      <point x="340" y="345"/>
      <point x="320" y="324"/>
    </contour>
    <contour>
      <point x="307" y="138" type="qcurve"/>
      <point x="284" y="132"/>
      <point x="165" y="131"/>
      <point x="159" y="131" type="qcurve" smooth="yes"/>
      <point x="56" y="131"/>
      <point x="27" y="166"/>
      <point x="20" y="193"/>
      <point x="20" y="202" type="qcurve" smooth="yes"/>
      <point x="20" y="211"/>
      <point x="22" y="219" type="qcurve" smooth="yes"/>
      <point x="25" y="233"/>
      <point x="41" y="260"/>
      <point x="66" y="277"/>
      <point x="165" y="277" type="qcurve" smooth="yes"/>
      <point x="171" y="277"/>
      <point x="287" y="276"/>
      <point x="307" y="270" type="qcurve"/>
      <point x="323" y="268"/>
      <point x="343" y="250"/>
      <point x="352" y="224"/>
      <point x="352" y="211" type="qcurve"/>
      <point x="352" y="209"/>
      <point x="351" y="190"/>
      <point x="340" y="161"/>
      <point x="320" y="140"/>
    </contour>
  </outline>
</glyph>
<glyph name="question" format="2">
  <advance width="436"/>
  <unicode hex="003F"/>
  <outline>
    <contour>
      <point x="217" y="183" type="qcurve" smooth="yes"/>
      <point x="210" y="182"/>
      <point x="203" y="182" type="qcurve" smooth="yes"/>
      <point x="195" y="182"/>
      <point x="171" y="187"/>
      <point x="146" y="203"/>
      <point x="128" y="226"/>
      <point x="126" y="240" type="qcurve"/>
      <point x="119" y="265"/>
      <point x="119" y="288" type="qcurve" smooth="yes"/>
      <point x="119" y="322"/>
      <point x="158" y="409"/>
      <point x="209" y="444" type="qcurve"/>
      <point x="216" y="453"/>
      <point x="231" y="460"/>
      <point x="243" y="465"/>
      <point x="251" y="474"/>
      <point x="253" y="486" type="qcurve"/>
      <point x="256" y="492"/>
      <point x="256" y="498" type="qcurve" smooth="yes"/>
      <point x="256" y="504"/>
      <point x="249" y="520"/>
      <point x="231" y="535"/>
      <point x="217" y="537"/>
      <point x="215" y="537" type="qcurve"/>
      <point x="206" y="537"/>
      <point x="198" y="530" type="qcurve" smooth="yes"/>
      <point x="186" y="521"/>
      <point x="172" y="503"/>
      <point x="161" y="484"/>
      <point x="150" y="463"/>
      <point x="143" y="451" type="qcurve"/>
      <point x="127" y="436"/>
      <point x="100" y="434"/>
      <point x="95" y="434" type="qcurve" smooth="yes"/>
      <point x="78" y="434"/>
      <point x="42" y="446"/>
      <point x="13" y="476"/>
      <point x="12" y="496" type="qcurve"/>
      <point x="12" y="499"/>
      <point x="12" y="501" type="qcurve"/>
      <point x="12" y="525"/>
      <point x="29" y="571"/>
      <point x="62" y="613"/>
      <point x="106" y="647"/>
      <point x="130" y="659" type="qcurve"/>
      <point x="164" y="672"/>
      <point x="218" y="681"/>
      <point x="238" y="681" type="qcurve" smooth="yes"/>
      <point x="251" y="681"/>
      <point x="296" y="676"/>
      <point x="360" y="646"/>
      <point x="390" y="617" type="qcurve"/>
      <point x="411" y="590"/>
      <point x="419" y="538"/>
      <point x="419" y="524" type="qcurve" smooth="yes"/>
      <point x="419" y="499"/>
      <point x="402" y="433"/>
      <point x="346" y="354"/>
      <point x="300" y="324" type="qcurve"/>
      <point x="275" y="306"/>
      <point x="263" y="261"/>
      <point x="257" y="220"/>
      <point x="244" y="188"/>
    </contour>
    <contour>
      <point x="224" y="15" type="qcurve" smooth="yes"/>
      <point x="213" y="12"/>
      <point x="202" y="12" type="qcurve" smooth="yes"/>
      <point x="192" y="12"/>
      <point x="160" y="21"/>
      <point x="130" y="47"/>
      <point x="118" y="76"/>
      <point x="118" y="87" type="qcurve" smooth="yes"/>
      <point x="118" y="95"/>
      <point x="121" y="104" type="qcurve"/>
      <point x="124" y="120"/>
      <point x="147" y="144"/>
      <point x="177" y="158"/>
      <point x="198" y="160"/>
      <point x="201" y="160" type="qcurve" smooth="yes"/>
      <point x="215" y="160"/>
      <point x="228" y="155" type="qcurve"/>
      <point x="258" y="152"/>
      <point x="281" y="115"/>
      <point x="281" y="96" type="qcurve" smooth="yes"/>
      <point x="281" y="92"/>
      <point x="278" y="64"/>
      <point x="248" y="21"/>
    </contour>
  </outline>
</glyph>
<glyph name="at" format="2">
  <advance width="699"/>
  <unicode hex="0040"/>
  <outline>
    <contour>
      <point x="336" y="673" type="qcurve"/>
      <point x="420" y="673"/>
      <point x="541" y="632"/>
      <point x="622" y="551"/>
      <point x="665" y="430"/>
      <point x="671" y="350" type="qcurve"/>
      <point x="671" y="290"/>
      <point x="640" y="173"/>
      <point x="597" y="126" type="qcurve" smooth="yes"/>
      <point x="576" y="103"/>
      <point x="526" y="64"/>
      <point x="499" y="49" type="qcurve"/>
      <point x="483" y="42" type="line"/>
      <point x="471" y="38"/>
      <point x="458" y="34" type="qcurve" smooth="yes"/>
      <point x="447" y="31"/>
      <point x="420" y="27"/>
      <point x="408" y="27" type="qcurve" smooth="yes"/>
      <point x="388" y="27"/>
      <point x="373" y="35" type="qcurve"/>
      <point x="373" y="34" type="line"/>
      <point x="359" y="41"/>
      <point x="345" y="67"/>
      <point x="338" y="98"/>
      <point x="338" y="131"/>
      <point x="339" y="145" type="qcurve"/>
      <point x="339" y="150"/>
      <point x="341" y="159"/>
      <point x="341" y="163" type="qcurve"/>
      <point x="343" y="198" type="line"/>
      <point x="269" y="198"/>
      <point x="188" y="267"/>
      <point x="188" y="350" type="qcurve" smooth="yes"/>
      <point x="188" y="354"/>
      <point x="188" y="358" type="qcurve"/>
      <point x="189" y="388"/>
      <point x="214" y="438"/>
      <point x="256" y="474"/>
      <point x="310" y="494"/>
      <point x="339" y="494" type="qcurve" smooth="yes"/>
      <point x="383" y="494"/>
      <point x="438" y="462"/>
      <point x="468" y="410"/>
      <point x="479" y="343"/>
      <point x="479" y="307" type="qcurve" smooth="yes"/>
      <point x="479" y="284"/>
      <point x="476" y="236"/>
      <point x="474" y="215" type="qcurve"/>
      <point x="473" y="194" type="line"/>
      <point x="490" y="205"/>
      <point x="500" y="221" type="qcurve"/>
      <point x="538" y="276"/>
      <point x="538" y="354" type="qcurve" smooth="yes"/>
      <point x="538" y="360"/>
      <point x="538" y="366" type="qcurve"/>
      <point x="536" y="450"/>
      <point x="473" y="492" type="qcurve"/>
      <point x="411" y="536"/>
      <point x="313" y="536" type="qcurve" smooth="yes"/>
      <point x="218" y="536"/>
      <point x="181" y="482" type="qcurve" smooth="yes"/>
      <point x="144" y="429"/>
      <point x="144" y="364" type="qcurve" smooth="yes"/>
      <point x="144" y="334"/>
      <point x="152" y="270"/>
      <point x="177" y="213"/>
      <point x="223" y="169"/>
      <point x="262" y="159" type="qcurve"/>
      <point x="275" y="152"/>
      <point x="285" y="142" type="qcurve" smooth="yes"/>
      <point x="293" y="134"/>
      <point x="304" y="113"/>
      <point x="304" y="101" type="qcurve" smooth="yes"/>
      <point x="304" y="97"/>
      <point x="304" y="93" type="qcurve"/>
      <point x="303" y="88"/>
      <point x="302" y="80"/>
      <point x="302" y="75" type="qcurve"/>
      <point x="301" y="63"/>
      <point x="298" y="43"/>
      <point x="287" y="29"/>
      <point x="266" y="23"/>
      <point x="250" y="23" type="qcurve" smooth="yes"/>
      <point x="246" y="23"/>
      <point x="241" y="23" type="qcurve"/>
      <point x="179" y="36"/>
      <point x="94" y="100"/>
      <point x="41" y="188"/>
      <point x="17" y="295"/>
      <point x="17" y="351" type="qcurve" smooth="yes"/>
      <point x="17" y="418"/>
      <point x="33" y="475" type="qcurve" smooth="yes"/>
      <point x="52" y="539"/>
      <point x="131" y="603" type="qcurve"/>
      <point x="172" y="633"/>
      <point x="276" y="670"/>
    </contour>
    <contour>
      <point x="331" y="314" type="qcurve" smooth="yes"/>
      <point x="334" y="314"/>
      <point x="344" y="315"/>
      <point x="349" y="316" type="qcurve"/>
      <point x="349" y="321"/>
      <point x="350" y="331"/>
      <point x="350" y="336" type="qcurve" smooth="yes"/>
      <point x="350" y="346"/>
      <point x="349" y="361"/>
      <point x="348" y="368" type="qcurve"/>
      <point x="346" y="368"/>
      <point x="338" y="370"/>
      <point x="336" y="370" type="qcurve"/>
      <point x="332" y="371"/>
      <point x="319" y="372"/>
      <point x="315" y="372" type="qcurve"/>
      <point x="302" y="367"/>
      <point x="301" y="349"/>
      <point x="301" y="343" type="qcurve" smooth="yes"/>
      <point x="301" y="336"/>
      <point x="301" y="329" type="qcurve" smooth="yes"/>
      <point x="301" y="320"/>
      <point x="323" y="314"/>
    </contour>
  </outline>
</glyph>
<glyph name="A" format="2">
  <advance width="464"/>
  <unicode hex="0041"/>
  <outline>
    <contour>
      <point x="101" y="26" type="qcurve" smooth="yes"/>
      <point x="75" y="26"/>
      <point x="42" y="52"/>
      <point x="25" y="94"/>
      <point x="19" y="146"/>
      <point x="18" y="180"/>
      <point x="18" y="186" type="qcurve" smooth="yes"/>
      <point x="18" y="206"/>
      <point x="21" y="249"/>
      <point x="21" y="267" type="qcurve" smooth="yes"/>
      <point x="21" y="308"/>
      <point x="27" y="402"/>
      <point x="45" y="493"/>
      <point x="75" y="577"/>
      <point x="123" y="641"/>
      <point x="191" y="679"/>
      <point x="237" y="679" type="qcurve" smooth="yes"/>
      <point x="275" y="679"/>
      <point x="341" y="623"/>
      <point x="392" y="530"/>
      <point x="429" y="412"/>
      <point x="449" y="289"/>
      <point x="451" y="221"/>
      <point x="451" y="212" type="qcurve" smooth="yes"/>
      <point x="451" y="164"/>
      <point x="436" y="78"/>
      <point x="399" y="22"/>
      <point x="369" y="22" type="qcurve" smooth="yes"/>
      <point x="358" y="22"/>
      <point x="343" y="21"/>
      <point x="338" y="21" type="qcurve" smooth="yes"/>
      <point x="332" y="21"/>
      <point x="315" y="23"/>
      <point x="297" y="33"/>
      <point x="290" y="45" type="qcurve"/>
      <point x="289" y="46"/>
      <point x="289" y="47" type="qcurve"/>
      <point x="281" y="59"/>
      <point x="270" y="115"/>
      <point x="264" y="178"/>
      <point x="261" y="235"/>
      <point x="261" y="249" type="qcurve"/>
      <point x="259" y="262"/>
      <point x="240" y="270"/>
      <point x="231" y="270" type="qcurve" smooth="yes"/>
      <point x="227" y="270"/>
      <point x="211" y="267"/>
      <point x="192" y="253"/>
      <point x="192" y="242" type="qcurve"/>
      <point x="192" y="241"/>
      <point x="192" y="240" type="qcurve"/>
      <point x="193" y="213"/>
      <point x="195" y="168"/>
      <point x="195" y="160" type="qcurve" smooth="yes"/>
      <point x="195" y="132"/>
      <point x="183" y="73"/>
      <point x="143" y="26"/>
    </contour>
    <contour>
      <point x="221" y="510" type="qcurve" smooth="yes"/>
      <point x="213" y="510"/>
      <point x="201" y="483"/>
      <point x="194" y="447"/>
      <point x="190" y="413"/>
      <point x="190" y="406" type="qcurve" smooth="yes"/>
      <point x="190" y="386" type="line"/>
      <point x="207" y="388"/>
      <point x="240" y="391"/>
      <point x="256" y="391" type="qcurve"/>
      <point x="257" y="399"/>
      <point x="258" y="414"/>
      <point x="258" y="422" type="qcurve" smooth="yes"/>
      <point x="258" y="430"/>
      <point x="255" y="459"/>
      <point x="246" y="488"/>
      <point x="232" y="510"/>
    </contour>
  </outline>
</glyph>
<glyph name="C" format="2">
  <advance width="470"/>
  <unicode hex="0043"/>
  <outline>
    <contour>
      <point x="268" y="11" type="qcurve" smooth="yes"/>
      <point x="196" y="11"/>
      <point x="101" y="78"/>
      <point x="45" y="183"/>
      <point x="23" y="310"/>
      <point x="23" y="370" type="qcurve" smooth="yes"/>
      <point x="23" y="374"/>
      <point x="23" y="378" type="qcurve" smooth="yes"/>
      <point x="23" y="430"/>
      <point x="49" y="536"/>
      <point x="108" y="622"/>
      <point x="200" y="675"/>
      <point x="265" y="675" type="qcurve" smooth="yes"/>
      <point x="282" y="675"/>
      <point x="341" y="660"/>
      <point x="397" y="631"/>
      <point x="438" y="591"/>
      <point x="438" y="567" type="qcurve" smooth="yes"/>
      <point x="438" y="529"/>
      <point x="418" y="489"/>
      <point x="389" y="476"/>
      <point x="375" y="476" type="qcurve" smooth="yes"/>
      <point x="371" y="476"/>
      <point x="348" y="478"/>
      <point x="311" y="489"/>
      <point x="280" y="500"/>
      <point x="272" y="500" type="qcurve" smooth="yes"/>
      <point x="248" y="500"/>
      <point x="221" y="471"/>
      <point x="209" y="430"/>
      <point x="207" y="384"/>
      <point x="207" y="368" type="qcurve" smooth="yes"/>
      <point x="207" y="329"/>
      <point x="209" y="259"/>
      <point x="224" y="223" type="qcurve"/>
      <point x="224" y="219" type="line"/>
      <point x="238" y="195"/>
      <point x="262" y="195" type="qcurve"/>
      <point x="263" y="195"/>
      <point x="288" y="196"/>
      <point x="340" y="217"/>
      <point x="384" y="243"/>
      <point x="394" y="243" type="qcurve" smooth="yes"/>
      <point x="406" y="243"/>
      <point x="430" y="229"/>
      <point x="449" y="207"/>
      <point x="461" y="181"/>
      <point x="461" y="168" type="qcurve" smooth="yes"/>
      <point x="461" y="133"/>
      <point x="424" y="76"/>
      <point x="367" y="34"/>
      <point x="299" y="11"/>
    </contour>
  </outline>
</glyph>
<glyph name="D" format="2">
  <advance width="469"/>
  <unicode hex="0044"/>
  <outline>
    <contour>
      <point x="443" y="313" type="qcurve" smooth="yes"/>
      <point x="434" y="221"/>
      <point x="375" y="107"/>
      <point x="294" y="44"/>
      <point x="196" y="19"/>
      <point x="148" y="15" type="qcurve"/>
      <point x="126" y="15"/>
      <point x="99" y="14"/>
      <point x="95" y="14" type="qcurve" smooth="yes"/>
      <point x="78" y="14"/>
      <point x="47" y="21"/>
      <point x="30" y="42"/>
      <point x="30" y="60" type="qcurve" smooth="yes"/>
      <point x="30" y="66"/>
      <point x="31" y="72" type="qcurve"/>
      <point x="27" y="90"/>
      <point x="24" y="163"/>
      <point x="24" y="281"/>
      <point x="25" y="450"/>
      <point x="25" y="563" type="qcurve" smooth="yes"/>
      <point x="25" y="589"/>
      <point x="27" y="634"/>
      <point x="39" y="665"/>
      <point x="63" y="681"/>
      <point x="82" y="681" type="qcurve" smooth="yes"/>
      <point x="85" y="681"/>
      <point x="87" y="681" type="qcurve"/>
      <point x="112" y="683"/>
      <point x="136" y="683" type="qcurve" smooth="yes"/>
      <point x="208" y="683"/>
      <point x="334" y="639"/>
      <point x="420" y="538"/>
      <point x="446" y="420"/>
      <point x="446" y="368" type="qcurve" smooth="yes"/>
      <point x="446" y="341"/>
    </contour>
    <contour>
      <point x="284" y="342" type="qcurve"/>
      <point x="284" y="345"/>
      <point x="284" y="348" type="qcurve" smooth="yes"/>
      <point x="284" y="398"/>
      <point x="254" y="469"/>
      <point x="215" y="509"/>
      <point x="192" y="515"/>
      <point x="188" y="515" type="qcurve" smooth="yes"/>
      <point x="181" y="515"/>
      <point x="180" y="509" type="qcurve"/>
      <point x="180" y="189" type="line"/>
      <point x="193" y="189"/>
      <point x="229" y="209"/>
      <point x="261" y="248"/>
      <point x="283" y="305"/>
    </contour>
  </outline>
</glyph>
<glyph name="E" format="2">
  <advance width="472"/>
  <unicode hex="0045"/>
  <outline>
    <contour>
      <point x="271" y="15" type="line" smooth="yes"/>
      <point x="234" y="15"/>
      <point x="180" y="12"/>
      <point x="170" y="12" type="qcurve" smooth="yes"/>
      <point x="139" y="12"/>
      <point x="74" y="25"/>
      <point x="25" y="72"/>
      <point x="25" y="123" type="qcurve" smooth="yes"/>
      <point x="25" y="139"/>
      <point x="24" y="181"/>
      <point x="24" y="225"/>
      <point x="23" y="267"/>
      <point x="23" y="284" type="qcurve" smooth="yes"/>
      <point x="23" y="306"/>
      <point x="20" y="375"/>
      <point x="19" y="435"/>
      <point x="19" y="455" type="qcurve" smooth="yes"/>
      <point x="19" y="475"/>
      <point x="20" y="536"/>
      <point x="29" y="605"/>
      <point x="46" y="651"/>
      <point x="62" y="656" type="qcurve" smooth="yes"/>
      <point x="85" y="663"/>
      <point x="150" y="670"/>
      <point x="203" y="672"/>
      <point x="220" y="672" type="qcurve" smooth="yes"/>
      <point x="237" y="672"/>
      <point x="287" y="670"/>
      <point x="313" y="669" type="qcurve"/>
      <point x="334" y="667"/>
      <point x="384" y="661"/>
      <point x="427" y="643"/>
      <point x="457" y="609"/>
      <point x="457" y="579" type="qcurve" smooth="yes"/>
      <point x="457" y="559"/>
      <point x="439" y="531"/>
      <point x="411" y="514"/>
      <point x="377" y="507"/>
      <point x="362" y="507" type="qcurve" smooth="yes"/>
      <point x="327" y="507"/>
      <point x="263" y="505"/>
      <point x="243" y="505" type="qcurve" smooth="yes"/>
      <point x="218" y="505"/>
      <point x="192" y="506" type="qcurve"/>
      <point x="185" y="408" type="line"/>
      <point x="197" y="407"/>
      <point x="211" y="407" type="qcurve" smooth="yes"/>
      <point x="219" y="407"/>
      <point x="250" y="408"/>
      <point x="301" y="408"/>
      <point x="350" y="402"/>
      <point x="389" y="387"/>
      <point x="413" y="359"/>
      <point x="413" y="336" type="qcurve" smooth="yes"/>
      <point x="413" y="298"/>
      <point x="371" y="271"/>
      <point x="322" y="266"/>
      <point x="302" y="266" type="qcurve" smooth="yes"/>
      <point x="286" y="266"/>
      <point x="255" y="268"/>
      <point x="242" y="268" type="qcurve" smooth="yes"/>
      <point x="217" y="268"/>
      <point x="193" y="265" type="qcurve"/>
      <point x="195" y="173" type="line"/>
      <point x="217" y="173"/>
      <point x="258" y="174"/>
      <point x="271" y="174" type="qcurve" smooth="yes"/>
      <point x="285" y="174"/>
      <point x="327" y="173"/>
      <point x="380" y="169"/>
      <point x="403" y="163" type="qcurve"/>
      <point x="404" y="163" type="line"/>
      <point x="423" y="151"/>
      <point x="446" y="118"/>
      <point x="446" y="95" type="qcurve" smooth="yes"/>
      <point x="446" y="82"/>
      <point x="441" y="65" type="qcurve"/>
      <point x="439" y="64" type="line"/>
      <point x="424" y="43"/>
      <point x="385" y="23"/>
      <point x="341" y="15"/>
      <point x="318" y="15" type="qcurve"/>
      <point x="316" y="15"/>
      <point x="314" y="15" type="qcurve"/>
      <point x="312" y="15" type="line"/>
      <point x="309" y="15"/>
      <point x="307" y="15" type="qcurve"/>
      <point x="305" y="15" type="line"/>
      <point x="304" y="15"/>
      <point x="304" y="15" type="qcurve"/>
      <point x="302" y="15" type="line"/>
      <point x="301" y="15"/>
      <point x="299" y="15" type="qcurve"/>
      <point x="297" y="15" type="line"/>
      <point x="296" y="15"/>
      <point x="295" y="15" type="qcurve"/>
      <point x="278" y="15" type="line"/>
      <point x="278" y="15"/>
      <point x="278" y="15" type="qcurve"/>
      <point x="276" y="15" type="line"/>
      <point x="276" y="15"/>
      <point x="275" y="15" type="qcurve"/>
    </contour>
  </outline>
</glyph>
<glyph name="F" format="2">
  <advance width="450"/>
  <unicode hex="0046"/>
  <outline>
    <contour>
      <point x="127" y="16" type="qcurve" smooth="yes"/>
      <point x="89" y="16"/>
      <point x="52" y="41"/>
      <point x="38" y="83"/>
      <point x="38" y="108" type="qcurve"/>
      <point x="38" y="110"/>
      <point x="39" y="140"/>
      <point x="39" y="170" type="qcurve" smooth="yes"/>
      <point x="39" y="230"/>
      <point x="32" y="351"/>
      <point x="32" y="406" type="qcurve" smooth="yes"/>
      <point x="32" y="429"/>
      <point x="29" y="485"/>
      <point x="28" y="524"/>
      <point x="28" y="533" type="qcurve" smooth="yes"/>
      <point x="28" y="552"/>
      <point x="31" y="599"/>
      <point x="45" y="642"/>
      <point x="72" y="669"/>
      <point x="95" y="670" type="qcurve"/>
      <point x="107" y="674"/>
      <point x="166" y="679"/>
      <point x="232" y="680"/>
      <point x="262" y="680" type="qcurve"/>
      <point x="264" y="680" type="line"/>
      <point x="265" y="680"/>
      <point x="266" y="680" type="qcurve"/>
      <point x="267" y="680" type="line"/>
      <point x="269" y="680"/>
      <point x="270" y="680" type="qcurve"/>
      <point x="277" y="680" type="line"/>
      <point x="278" y="680"/>
      <point x="279" y="680" type="qcurve"/>
      <point x="302" y="680" type="line"/>
      <point x="302" y="680"/>
      <point x="303" y="680" type="qcurve"/>
      <point x="305" y="680" type="line"/>
      <point x="305" y="680"/>
      <point x="306" y="680" type="qcurve"/>
      <point x="339" y="680"/>
      <point x="393" y="674"/>
      <point x="427" y="653"/>
      <point x="434" y="624"/>
      <point x="434" y="614" type="qcurve" smooth="yes"/>
      <point x="434" y="597"/>
      <point x="428" y="573" type="qcurve"/>
      <point x="420" y="546"/>
      <point x="367" y="523"/>
      <point x="312" y="518"/>
      <point x="290" y="518" type="qcurve" smooth="yes"/>
      <point x="280" y="518"/>
      <point x="237" y="520"/>
      <point x="220" y="520" type="qcurve"/>
      <point x="220" y="429" type="line"/>
      <point x="245" y="432"/>
      <point x="287" y="435"/>
      <point x="295" y="435" type="qcurve" smooth="yes"/>
      <point x="319" y="435"/>
      <point x="370" y="424"/>
      <point x="411" y="389"/>
      <point x="411" y="353" type="qcurve" smooth="yes"/>
      <point x="411" y="330"/>
      <point x="388" y="304"/>
      <point x="352" y="291"/>
      <point x="306" y="288"/>
      <point x="260" y="287"/>
      <point x="219" y="286"/>
      <point x="205" y="282" type="qcurve"/>
      <point x="203" y="235"/>
      <point x="203" y="196" type="qcurve" smooth="yes"/>
      <point x="203" y="177"/>
      <point x="204" y="148"/>
      <point x="204" y="136" type="qcurve" smooth="yes"/>
      <point x="204" y="102"/>
      <point x="196" y="46"/>
      <point x="164" y="16"/>
    </contour>
  </outline>
</glyph>
<glyph name="G" format="2">
  <advance width="479"/>
  <unicode hex="0047"/>
  <outline>
    <contour>
      <point x="465" y="263" type="qcurve" smooth="yes"/>
      <point x="465" y="192"/>
      <point x="405" y="78"/>
      <point x="309" y="14"/>
      <point x="244" y="10"/>
      <point x="239" y="10" type="qcurve" smooth="yes"/>
      <point x="185" y="10"/>
      <point x="131" y="43" type="qcurve"/>
      <point x="87" y="77"/>
      <point x="35" y="187"/>
      <point x="21" y="288"/>
      <point x="21" y="327" type="qcurve" smooth="yes"/>
      <point x="21" y="354"/>
      <point x="30" y="451"/>
      <point x="72" y="570"/>
      <point x="143" y="661"/>
      <point x="220" y="692"/>
      <point x="254" y="692" type="qcurve" smooth="yes"/>
      <point x="276" y="692"/>
      <point x="360" y="675"/>
      <point x="431" y="620" type="qcurve"/>
      <point x="447" y="605"/>
      <point x="458" y="569"/>
      <point x="458" y="555" type="qcurve" smooth="yes"/>
      <point x="458" y="547"/>
      <point x="452" y="518"/>
      <point x="421" y="488"/>
      <point x="394" y="488" type="qcurve" smooth="yes"/>
      <point x="368" y="488"/>
      <point x="341" y="494"/>
      <point x="320" y="503"/>
      <point x="295" y="514"/>
      <point x="272" y="519" type="qcurve" smooth="yes"/>
      <point x="263" y="521"/>
      <point x="255" y="521" type="qcurve" smooth="yes"/>
      <point x="237" y="521"/>
      <point x="207" y="495"/>
      <point x="187" y="445"/>
      <point x="180" y="388"/>
      <point x="180" y="369" type="qcurve"/>
      <point x="180" y="368"/>
      <point x="180" y="367" type="qcurve"/>
      <point x="180" y="363" type="line"/>
      <point x="180" y="361"/>
      <point x="180" y="359" type="qcurve"/>
      <point x="180" y="354" type="line"/>
      <point x="180" y="353"/>
      <point x="180" y="352" type="qcurve"/>
      <point x="180" y="347" type="line"/>
      <point x="180" y="346"/>
      <point x="180" y="345" type="qcurve"/>
      <point x="180" y="343" type="line"/>
      <point x="180" y="342"/>
      <point x="180" y="341" type="qcurve"/>
      <point x="180" y="309" type="line" smooth="yes"/>
      <point x="180" y="274"/>
      <point x="192" y="211"/>
      <point x="222" y="168"/>
      <point x="252" y="168" type="qcurve" smooth="yes"/>
      <point x="282" y="168"/>
      <point x="303" y="202"/>
      <point x="303" y="237" type="qcurve" smooth="yes"/>
      <point x="303" y="253"/>
      <point x="277" y="262"/>
      <point x="245" y="273"/>
      <point x="219" y="299"/>
      <point x="219" y="331" type="qcurve" smooth="yes"/>
      <point x="219" y="353"/>
      <point x="255" y="384"/>
      <point x="301" y="395"/>
      <point x="322" y="395" type="qcurve" smooth="yes"/>
      <point x="332" y="395"/>
      <point x="374" y="391"/>
      <point x="429" y="361"/>
      <point x="465" y="305"/>
    </contour>
  </outline>
</glyph>
<glyph name="H" format="2">
  <advance width="500"/>
  <unicode hex="0048"/>
  <outline>
    <contour>
      <point x="214" y="285" type="qcurve"/>
      <point x="211" y="269"/>
      <point x="211" y="218"/>
      <point x="210" y="159"/>
      <point x="206" y="99"/>
      <point x="193" y="51"/>
      <point x="167" y="20"/>
      <point x="145" y="20" type="qcurve" smooth="yes"/>
      <point x="131" y="20"/>
      <point x="102" y="23"/>
      <point x="75" y="33"/>
      <point x="53" y="49"/>
      <point x="47" y="63" type="qcurve" smooth="yes"/>
      <point x="42" y="74"/>
      <point x="35" y="148"/>
      <point x="31" y="248"/>
      <point x="30" y="362"/>
      <point x="29" y="465"/>
      <point x="29" y="505" type="qcurve" smooth="yes"/>
      <point x="29" y="512" type="line"/>
      <point x="29" y="514"/>
      <point x="29" y="516" type="qcurve"/>
      <point x="29" y="525" type="line"/>
      <point x="29" y="526"/>
      <point x="29" y="527" type="qcurve"/>
      <point x="29" y="529" type="line"/>
      <point x="29" y="530"/>
      <point x="29" y="531" type="qcurve"/>
      <point x="29" y="533" type="line"/>
      <point x="29" y="534"/>
      <point x="29" y="535" type="qcurve"/>
      <point x="29" y="537" type="line"/>
      <point x="29" y="538"/>
      <point x="29" y="539" type="qcurve"/>
      <point x="29" y="557" type="line"/>
      <point x="29" y="557"/>
      <point x="29" y="558" type="qcurve"/>
      <point x="29" y="562" type="line" smooth="yes"/>
      <point x="29" y="585"/>
      <point x="41" y="631"/>
      <point x="57" y="649" type="qcurve"/>
      <point x="57" y="650" type="line"/>
      <point x="71" y="664"/>
      <point x="107" y="676"/>
      <point x="126" y="676" type="qcurve" smooth="yes"/>
      <point x="169" y="676"/>
      <point x="206" y="618"/>
      <point x="215" y="547"/>
      <point x="215" y="515" type="qcurve" smooth="yes"/>
      <point x="215" y="502"/>
      <point x="213" y="458"/>
      <point x="213" y="432" type="qcurve" smooth="yes"/>
      <point x="213" y="419"/>
      <point x="213" y="407" type="qcurve"/>
      <point x="235" y="409"/>
      <point x="264" y="410"/>
      <point x="286" y="412" type="qcurve"/>
      <point x="287" y="454"/>
      <point x="288" y="522"/>
      <point x="288" y="551" type="qcurve" smooth="yes"/>
      <point x="288" y="555" type="line"/>
      <point x="288" y="556"/>
      <point x="288" y="556" type="qcurve"/>
      <point x="288" y="559" type="line"/>
      <point x="288" y="560"/>
      <point x="288" y="560" type="qcurve"/>
      <point x="288" y="561" type="line"/>
      <point x="288" y="561"/>
      <point x="288" y="562" type="qcurve"/>
      <point x="288" y="563" type="line"/>
      <point x="288" y="563"/>
      <point x="288" y="564" type="qcurve"/>
      <point x="288" y="565" type="line"/>
      <point x="288" y="565"/>
      <point x="288" y="566" type="qcurve"/>
      <point x="288" y="583" type="line" smooth="yes"/>
      <point x="288" y="601"/>
      <point x="293" y="637"/>
      <point x="307" y="667"/>
      <point x="321" y="675" type="qcurve"/>
      <point x="356" y="685"/>
      <point x="381" y="685" type="qcurve" smooth="yes"/>
      <point x="388" y="685"/>
      <point x="422" y="681"/>
      <point x="455" y="651"/>
      <point x="467" y="600"/>
      <point x="467" y="567" type="qcurve" smooth="yes"/>
      <point x="467" y="452"/>
      <point x="464" y="216"/>
      <point x="464" y="101" type="qcurve" smooth="yes"/>
      <point x="464" y="85"/>
      <point x="451" y="55"/>
      <point x="430" y="31"/>
      <point x="402" y="17"/>
      <point x="387" y="17" type="qcurve" smooth="yes"/>
      <point x="363" y="17"/>
      <point x="328" y="35"/>
      <point x="304" y="64"/>
      <point x="291" y="103"/>
      <point x="290" y="124" type="qcurve" smooth="yes"/>
      <point x="288" y="215" type="line"/>
      <point x="287" y="228"/>
      <point x="287" y="240" type="qcurve" smooth="yes"/>
      <point x="287" y="246"/>
      <point x="288" y="256"/>
      <point x="288" y="259" type="qcurve" smooth="yes"/>
      <point x="288" y="274"/>
      <point x="286" y="288" type="qcurve"/>
      <point x="280" y="288" type="line"/>
      <point x="279" y="288"/>
      <point x="279" y="288" type="qcurve"/>
      <point x="275" y="288" type="line"/>
      <point x="274" y="288"/>
      <point x="274" y="288" type="qcurve"/>
      <point x="273" y="288" type="line"/>
      <point x="272" y="288"/>
      <point x="272" y="288" type="qcurve"/>
      <point x="271" y="288" type="line"/>
      <point x="270" y="288"/>
      <point x="269" y="288" type="qcurve"/>
      <point x="268" y="288" type="line"/>
      <point x="268" y="288"/>
      <point x="267" y="288" type="qcurve"/>
      <point x="249" y="288" type="line"/>
      <point x="248" y="288"/>
      <point x="248" y="288" type="qcurve"/>
      <point x="246" y="288" type="line"/>
      <point x="246" y="288"/>
      <point x="245" y="288" type="qcurve"/>
      <point x="244" y="288"/>
      <point x="244" y="288" type="qcurve"/>
      <point x="243" y="288" type="line"/>
      <point x="243" y="288"/>
      <point x="243" y="288" type="qcurve"/>
      <point x="242" y="288" type="line"/>
      <point x="242" y="288"/>
      <point x="242" y="288" type="qcurve"/>
      <point x="234" y="288" type="line" smooth="yes"/>
      <point x="227" y="288"/>
      <point x="219" y="286"/>
    </contour>
  </outline>
</glyph>
<glyph name="J" format="2">
  <advance width="422"/>
  <unicode hex="004A"/>
  <outline>
    <contour>
      <point x="364" y="106" type="qcurve"/>
      <point x="347" y="71"/>
      <point x="291" y="27"/>
      <point x="234" y="11"/>
      <point x="208" y="11" type="qcurve" smooth="yes"/>
      <point x="200" y="11"/>
      <point x="156" y="15"/>
      <point x="91" y="43"/>
      <point x="38" y="93"/>
      <point x="23" y="129" type="qcurve" smooth="yes"/>
      <point x="20" y="136"/>
      <point x="20" y="144" type="qcurve" smooth="yes"/>
      <point x="20" y="147"/>
      <point x="22" y="162"/>
      <point x="35" y="184"/>
      <point x="55" y="202"/>
      <point x="68" y="206" type="qcurve" smooth="yes"/>
      <point x="77" y="209"/>
      <point x="87" y="209" type="qcurve" smooth="yes"/>
      <point x="95" y="209"/>
      <point x="122" y="202"/>
      <point x="155" y="186"/>
      <point x="183" y="174"/>
      <point x="194" y="174" type="qcurve"/>
      <point x="195" y="174"/>
      <point x="209" y="175"/>
      <point x="225" y="200"/>
      <point x="229" y="232" type="qcurve"/>
      <point x="225" y="504" type="line"/>
      <point x="206" y="505"/>
      <point x="189" y="505" type="qcurve" smooth="yes"/>
      <point x="176" y="505"/>
      <point x="153" y="504"/>
      <point x="142" y="504" type="qcurve" smooth="yes"/>
      <point x="127" y="504"/>
      <point x="91" y="507"/>
      <point x="49" y="522"/>
      <point x="28" y="542" type="qcurve"/>
      <point x="15" y="564"/>
      <point x="15" y="586" type="qcurve" smooth="yes"/>
      <point x="15" y="589"/>
      <point x="17" y="616"/>
      <point x="49" y="653"/>
      <point x="105" y="676"/>
      <point x="142" y="676" type="qcurve"/>
      <point x="177" y="677"/>
      <point x="211" y="678"/>
      <point x="217" y="678" type="qcurve" smooth="yes"/>
      <point x="237" y="678"/>
      <point x="281" y="672"/>
      <point x="326" y="652"/>
      <point x="352" y="631" type="qcurve"/>
      <point x="366" y="614"/>
      <point x="379" y="587"/>
      <point x="385" y="557"/>
      <point x="388" y="518"/>
      <point x="391" y="488" type="qcurve"/>
      <point x="392" y="452"/>
      <point x="394" y="375"/>
      <point x="394" y="348" type="qcurve" smooth="yes"/>
      <point x="394" y="322"/>
      <point x="392" y="241"/>
      <point x="379" y="140"/>
    </contour>
  </outline>
</glyph>
<glyph name="K" format="2">
  <advance width="441"/>
  <unicode hex="004B"/>
  <outline>
    <contour>
      <point x="48" y="31" type="qcurve" smooth="yes"/>
      <point x="37" y="37"/>
      <point x="24" y="117"/>
      <point x="18" y="233"/>
      <point x="18" y="368"/>
      <point x="20" y="489"/>
      <point x="23" y="581"/>
      <point x="24" y="596" type="qcurve" smooth="yes"/>
      <point x="26" y="623"/>
      <point x="47" y="655"/>
      <point x="77" y="670"/>
      <point x="110" y="674"/>
      <point x="124" y="674" type="qcurve" smooth="yes"/>
      <point x="157" y="674"/>
      <point x="185" y="641"/>
      <point x="193" y="592"/>
      <point x="193" y="565" type="qcurve" smooth="yes"/>
      <point x="193" y="560"/>
      <point x="193" y="545"/>
      <point x="193" y="537" type="qcurve" smooth="yes"/>
      <point x="193" y="512"/>
      <point x="195" y="487" type="qcurve"/>
      <point x="211" y="507"/>
      <point x="245" y="569"/>
      <point x="284" y="628"/>
      <point x="330" y="671"/>
      <point x="358" y="671" type="qcurve" smooth="yes"/>
      <point x="369" y="671"/>
      <point x="395" y="659"/>
      <point x="418" y="639"/>
      <point x="434" y="615"/>
      <point x="435" y="603" type="qcurve"/>
      <point x="435" y="599"/>
      <point x="435" y="595" type="qcurve" smooth="yes"/>
      <point x="435" y="560"/>
      <point x="404" y="486"/>
      <point x="359" y="415"/>
      <point x="314" y="358"/>
      <point x="305" y="342" type="qcurve"/>
      <point x="319" y="322"/>
      <point x="361" y="264"/>
      <point x="401" y="198"/>
      <point x="431" y="130"/>
      <point x="433" y="101" type="qcurve"/>
      <point x="433" y="99"/>
      <point x="433" y="97" type="qcurve"/>
      <point x="433" y="81"/>
      <point x="416" y="52"/>
      <point x="388" y="29"/>
      <point x="357" y="16"/>
      <point x="345" y="16" type="qcurve" smooth="yes"/>
      <point x="315" y="16"/>
      <point x="276" y="53"/>
      <point x="246" y="106"/>
      <point x="219" y="166"/>
      <point x="201" y="189" type="qcurve"/>
      <point x="199" y="179"/>
      <point x="199" y="176" type="qcurve"/>
      <point x="199" y="175"/>
      <point x="200" y="173"/>
      <point x="201" y="161" type="qcurve" smooth="yes"/>
      <point x="202" y="152"/>
      <point x="202" y="143" type="qcurve" smooth="yes"/>
      <point x="202" y="104"/>
      <point x="177" y="46"/>
      <point x="132" y="16"/>
      <point x="104" y="16" type="qcurve"/>
      <point x="103" y="16"/>
      <point x="74" y="17"/>
    </contour>
  </outline>
</glyph>
<glyph name="N" format="2">
  <advance width="487"/>
  <unicode hex="004E"/>
  <outline>
    <contour>
      <point x="144" y="22" type="qcurve" smooth="yes"/>
      <point x="127" y="13"/>
      <point x="110" y="13" type="qcurve" smooth="yes"/>
      <point x="107" y="13"/>
      <point x="84" y="15"/>
      <point x="50" y="36"/>
      <point x="27" y="70"/>
      <point x="25" y="88" type="qcurve"/>
      <point x="25" y="133"/>
      <point x="23" y="241"/>
      <point x="21" y="352"/>
      <point x="20" y="428"/>
      <point x="20" y="449" type="qcurve" smooth="yes"/>
      <point x="20" y="479"/>
      <point x="22" y="551"/>
      <point x="31" y="616"/>
      <point x="39" y="629" type="qcurve"/>
      <point x="52" y="656"/>
      <point x="93" y="680"/>
      <point x="140" y="680"/>
      <point x="184" y="657"/>
      <point x="200" y="636" type="qcurve" smooth="yes"/>
      <point x="221" y="608"/>
      <point x="246" y="561"/>
      <point x="266" y="516"/>
      <point x="287" y="471"/>
      <point x="304" y="444" type="qcurve"/>
      <point x="304" y="456"/>
      <point x="304" y="467" type="qcurve" smooth="yes"/>
      <point x="304" y="494"/>
      <point x="300" y="547"/>
      <point x="299" y="578"/>
      <point x="299" y="583" type="qcurve" smooth="yes"/>
      <point x="299" y="601"/>
      <point x="304" y="636"/>
      <point x="316" y="655" type="qcurve"/>
      <point x="323" y="671"/>
      <point x="360" y="683"/>
      <point x="378" y="683" type="qcurve" smooth="yes"/>
      <point x="383" y="683"/>
      <point x="411" y="681"/>
      <point x="450" y="661"/>
      <point x="453" y="645" type="qcurve"/>
      <point x="458" y="626"/>
      <point x="462" y="551"/>
      <point x="463" y="490"/>
      <point x="463" y="478" type="qcurve" smooth="yes"/>
      <point x="463" y="440"/>
      <point x="460" y="341"/>
      <point x="458" y="226"/>
      <point x="456" y="138"/>
      <point x="456" y="108" type="qcurve" smooth="yes"/>
      <point x="456" y="88"/>
      <point x="456" y="70" type="qcurve"/>
      <point x="453" y="43"/>
      <point x="413" y="15"/>
      <point x="382" y="13"/>
      <point x="377" y="13" type="qcurve" smooth="yes"/>
      <point x="357" y="13"/>
      <point x="314" y="27"/>
      <point x="304" y="42" type="qcurve" smooth="yes"/>
      <point x="280" y="80"/>
      <point x="246" y="152"/>
      <point x="220" y="222"/>
      <point x="209" y="256" type="qcurve" smooth="yes"/>
      <point x="203" y="275"/>
      <point x="196" y="295" type="qcurve"/>
      <point x="196" y="297" type="line"/>
      <point x="191" y="310"/>
      <point x="187" y="324" type="qcurve"/>
      <point x="189" y="279"/>
      <point x="189" y="214"/>
      <point x="187" y="158"/>
      <point x="181" y="103"/>
      <point x="177" y="69" type="qcurve"/>
      <point x="172" y="56"/>
      <point x="161" y="30"/>
    </contour>
  </outline>
</glyph>
<glyph name="P" format="2">
  <advance width="456"/>
  <unicode hex="0050"/>
  <outline>
    <contour>
      <point x="109" y="25" type="qcurve" smooth="yes"/>
      <point x="90" y="25"/>
      <point x="63" y="46"/>
      <point x="43" y="78"/>
      <point x="32" y="113"/>
      <point x="30" y="128" type="qcurve"/>
      <point x="25" y="432" type="line"/>
      <point x="25" y="487"/>
      <point x="24" y="535"/>
      <point x="24" y="539" type="qcurve" smooth="yes"/>
      <point x="24" y="578"/>
      <point x="42" y="640"/>
      <point x="93" y="678"/>
      <point x="146" y="682" type="qcurve" smooth="yes"/>
      <point x="168" y="683"/>
      <point x="197" y="684"/>
      <point x="206" y="684" type="qcurve" smooth="yes"/>
      <point x="215" y="684"/>
      <point x="242" y="683"/>
      <point x="280" y="677"/>
      <point x="303" y="673" type="qcurve" smooth="yes"/>
      <point x="333" y="667"/>
      <point x="383" y="632"/>
      <point x="419" y="581"/>
      <point x="439" y="516"/>
      <point x="439" y="479" type="qcurve" smooth="yes"/>
      <point x="439" y="365"/>
      <point x="315" y="263"/>
      <point x="212" y="263" type="qcurve" smooth="yes"/>
      <point x="206" y="263"/>
      <point x="200" y="263" type="qcurve"/>
      <point x="199" y="147" type="line"/>
      <point x="199" y="124"/>
      <point x="191" y="87"/>
      <point x="181" y="65" type="qcurve"/>
      <point x="181" y="64" type="line"/>
      <point x="169" y="47"/>
      <point x="130" y="25"/>
    </contour>
    <contour>
      <point x="203" y="416" type="line"/>
      <point x="244" y="416"/>
      <point x="277" y="453"/>
      <point x="277" y="473" type="qcurve" smooth="yes"/>
      <point x="277" y="476"/>
      <point x="275" y="501"/>
      <point x="239" y="534"/>
      <point x="212" y="534" type="qcurve" smooth="yes"/>
      <point x="208" y="534"/>
      <point x="203" y="534" type="qcurve"/>
    </contour>
  </outline>
</glyph>
<glyph name="R" format="2">
  <advance width="453"/>
  <unicode hex="0052"/>
  <outline>
    <contour>
      <point x="54" y="25" type="qcurve" smooth="yes"/>
      <point x="35" y="37"/>
      <point x="18" y="118"/>
      <point x="13" y="212"/>
      <point x="13" y="255" type="qcurve" smooth="yes"/>
      <point x="13" y="270"/>
      <point x="14" y="345"/>
      <point x="14" y="397" type="qcurve" smooth="yes"/>
      <point x="14" y="474"/>
      <point x="11" y="538"/>
      <point x="11" y="545" type="qcurve" smooth="yes"/>
      <point x="11" y="590"/>
      <point x="38" y="656"/>
      <point x="116" y="686"/>
      <point x="190" y="686" type="qcurve" smooth="yes"/>
      <point x="199" y="686"/>
      <point x="209" y="686" type="qcurve"/>
      <point x="263" y="685"/>
      <point x="351" y="647"/>
      <point x="410" y="586"/>
      <point x="437" y="514"/>
      <point x="437" y="479" type="qcurve" smooth="yes"/>
      <point x="437" y="472"/>
      <point x="433" y="422"/>
      <point x="387" y="338"/>
      <point x="342" y="302" type="qcurve"/>
      <point x="347" y="289"/>
      <point x="369" y="250"/>
      <point x="395" y="204"/>
      <point x="421" y="154"/>
      <point x="440" y="110"/>
      <point x="444" y="87"/>
      <point x="444" y="82" type="qcurve" smooth="yes"/>
      <point x="444" y="71"/>
      <point x="439" y="64" type="qcurve" smooth="yes"/>
      <point x="405" y="18"/>
      <point x="373" y="15"/>
      <point x="370" y="15" type="qcurve" smooth="yes"/>
      <point x="343" y="15"/>
      <point x="288" y="69"/>
      <point x="228" y="178"/>
      <point x="194" y="247" type="qcurve"/>
      <point x="192" y="247"/>
      <point x="190" y="213"/>
      <point x="188" y="193" type="qcurve" smooth="yes"/>
      <point x="186" y="169"/>
      <point x="185" y="140" type="qcurve"/>
      <point x="185" y="96"/>
      <point x="161" y="37"/>
      <point x="125" y="8"/>
      <point x="102" y="8" type="qcurve"/>
      <point x="101" y="8"/>
      <point x="77" y="9"/>
    </contour>
    <contour>
      <point x="181" y="425" type="line"/>
      <point x="181" y="411"/>
      <point x="213" y="411"/>
      <point x="249" y="430"/>
      <point x="276" y="462"/>
      <point x="276" y="479" type="qcurve" smooth="yes"/>
      <point x="276" y="482"/>
      <point x="276" y="484" type="qcurve"/>
      <point x="273" y="506"/>
      <point x="251" y="529"/>
      <point x="221" y="538"/>
      <point x="205" y="538" type="qcurve"/>
      <point x="204" y="538"/>
      <point x="204" y="538" type="qcurve"/>
      <point x="203" y="538" type="line"/>
      <point x="202" y="538"/>
      <point x="201" y="538" type="qcurve"/>
      <point x="200" y="538" type="line"/>
      <point x="200" y="538"/>
      <point x="199" y="538" type="qcurve"/>
      <point x="198" y="538" type="line"/>
      <point x="198" y="538"/>
      <point x="197" y="538" type="qcurve"/>
      <point x="196" y="538" type="line"/>
      <point x="196" y="538"/>
      <point x="196" y="538" type="qcurve"/>
      <point x="193" y="538" type="line"/>
      <point x="192" y="538"/>
      <point x="192" y="538" type="qcurve"/>
      <point x="191" y="538" type="line"/>
      <point x="191" y="538"/>
      <point x="190" y="538" type="qcurve"/>
      <point x="177" y="538" type="line"/>
    </contour>
  </outline>
</glyph>
<glyph name="S" format="2">
  <advance width="459"/>
  <unicode hex="0053"/>
  <outline>
    <contour>
      <point x="231" y="668" type="qcurve" smooth="yes"/>
      <point x="255" y="668"/>
      <point x="327" y="658"/>
      <point x="393" y="631"/>
      <point x="440" y="584"/>
      <point x="440" y="547" type="qcurve" smooth="yes"/>
      <point x="440" y="507"/>
      <point x="408" y="475"/>
      <point x="380" y="474"/>
      <point x="377" y="474" type="qcurve" smooth="yes"/>
      <point x="355" y="474"/>
      <point x="299" y="488"/>
      <point x="246" y="501"/>
      <point x="207" y="501"/>
      <point x="202" y="485" type="qcurve" smooth="yes"/>
      <point x="199" y="473"/>
      <point x="199" y="464" type="qcurve" smooth="yes"/>
      <point x="199" y="452"/>
      <point x="215" y="430"/>
      <point x="258" y="414"/>
      <point x="316" y="400"/>
      <point x="372" y="373"/>
      <point x="420" y="326"/>
      <point x="431" y="284" type="qcurve" smooth="yes"/>
      <point x="441" y="246"/>
      <point x="441" y="213" type="qcurve" smooth="yes"/>
      <point x="441" y="192"/>
      <point x="427" y="124"/>
      <point x="373" y="56"/>
      <point x="297" y="21"/>
      <point x="259" y="21" type="qcurve" smooth="yes"/>
      <point x="238" y="21"/>
      <point x="182" y="27"/>
      <point x="123" y="42"/>
      <point x="67" y="64"/>
      <point x="26" y="97"/>
      <point x="11" y="131"/>
      <point x="11" y="145" type="qcurve" smooth="yes"/>
      <point x="11" y="156"/>
      <point x="14" y="168" type="qcurve" smooth="yes"/>
      <point x="22" y="199"/>
      <point x="46" y="229"/>
      <point x="69" y="235"/>
      <point x="77" y="235" type="qcurve" smooth="yes"/>
      <point x="85" y="235"/>
      <point x="112" y="229"/>
      <point x="150" y="217"/>
      <point x="190" y="204"/>
      <point x="210" y="204" type="qcurve" smooth="yes"/>
      <point x="219" y="204"/>
      <point x="237" y="211"/>
      <point x="249" y="224"/>
      <point x="250" y="234"/>
      <point x="250" y="235" type="qcurve"/>
      <point x="250" y="244"/>
      <point x="243" y="254" type="qcurve" smooth="yes"/>
      <point x="238" y="261"/>
      <point x="192" y="274"/>
      <point x="131" y="297"/>
      <point x="68" y="333"/>
      <point x="26" y="396"/>
      <point x="20" y="451"/>
      <point x="20" y="460" type="qcurve" smooth="yes"/>
      <point x="20" y="502"/>
      <point x="39" y="559" type="qcurve" smooth="yes"/>
      <point x="52" y="601"/>
      <point x="105" y="645"/>
      <point x="163" y="665"/>
      <point x="216" y="668"/>
    </contour>
  </outline>
</glyph>
<glyph name="U" format="2">
  <advance width="490"/>
  <unicode hex="0055"/>
  <outline>
    <contour>
      <point x="473" y="253" type="line" smooth="yes"/>
      <point x="473" y="188"/>
      <point x="433" y="93"/>
      <point x="360" y="34"/>
      <point x="281" y="17"/>
      <point x="250" y="17" type="qcurve" smooth="yes"/>
      <point x="224" y="17"/>
      <point x="197" y="21" type="qcurve" smooth="yes"/>
      <point x="147" y="27"/>
      <point x="84" y="61"/>
      <point x="48" y="116"/>
      <point x="32" y="193"/>
      <point x="29" y="242" type="qcurve"/>
      <point x="29" y="334"/>
      <point x="20" y="517"/>
      <point x="18" y="609" type="qcurve"/>
      <point x="18" y="634"/>
      <point x="54" y="664"/>
      <point x="92" y="673"/>
      <point x="106" y="673" type="qcurve" smooth="yes"/>
      <point x="117" y="673"/>
      <point x="155" y="666"/>
      <point x="171" y="651" type="qcurve" smooth="yes"/>
      <point x="185" y="639"/>
      <point x="197" y="585"/>
      <point x="200" y="525"/>
      <point x="200" y="498" type="qcurve" smooth="yes"/>
      <point x="200" y="485"/>
      <point x="199" y="428"/>
      <point x="199" y="345"/>
      <point x="204" y="268"/>
      <point x="212" y="240" type="qcurve"/>
      <point x="232" y="213"/>
      <point x="251" y="212"/>
      <point x="252" y="212" type="qcurve"/>
      <point x="270" y="212"/>
      <point x="299" y="253"/>
      <point x="310" y="316"/>
      <point x="310" y="344" type="qcurve" smooth="yes"/>
      <point x="310" y="365"/>
      <point x="308" y="387" type="qcurve"/>
      <point x="307" y="416"/>
      <point x="305" y="468"/>
      <point x="303" y="519"/>
      <point x="299" y="570"/>
      <point x="296" y="599" type="qcurve"/>
      <point x="296" y="603"/>
      <point x="296" y="606" type="qcurve" smooth="yes"/>
      <point x="296" y="644"/>
      <point x="340" y="679"/>
      <point x="382" y="682" type="qcurve"/>
      <point x="424" y="680"/>
      <point x="466" y="645"/>
      <point x="467" y="607" type="qcurve" smooth="yes"/>
      <point x="469" y="562"/>
      <point x="472" y="478"/>
      <point x="473" y="392"/>
      <point x="473" y="348" type="qcurve" smooth="yes"/>
      <point x="473" y="345"/>
      <point x="473" y="343" type="qcurve"/>
      <point x="473" y="328" type="line" smooth="yes"/>
      <point x="473" y="324"/>
      <point x="473" y="320" type="qcurve" smooth="yes"/>
      <point x="473" y="317" type="line"/>
      <point x="473" y="315"/>
      <point x="473" y="314" type="qcurve"/>
      <point x="473" y="311" type="line"/>
      <point x="473" y="310"/>
      <point x="473" y="308" type="qcurve"/>
    </contour>
  </outline>
</glyph>
<glyph name="V" format="2">
  <advance width="450"/>
  <unicode hex="0056"/>
  <outline>
    <contour>
      <point x="8" y="617" type="qcurve" smooth="yes"/>
      <point x="8" y="629"/>
      <point x="24" y="652"/>
      <point x="46" y="670"/>
      <point x="72" y="681"/>
      <point x="83" y="682" type="qcurve"/>
      <point x="84" y="682"/>
      <point x="85" y="682" type="qcurve"/>
      <point x="103" y="682"/>
      <point x="136" y="650"/>
      <point x="165" y="593"/>
      <point x="189" y="520"/>
      <point x="209" y="446"/>
      <point x="224" y="376"/>
      <point x="229" y="351" type="qcurve"/>
      <point x="235" y="375"/>
      <point x="248" y="443"/>
      <point x="263" y="517"/>
      <point x="281" y="590"/>
      <point x="303" y="648"/>
      <point x="331" y="684"/>
      <point x="349" y="684" type="qcurve" smooth="yes"/>
      <point x="361" y="684"/>
      <point x="390" y="680"/>
      <point x="416" y="668"/>
      <point x="436" y="643"/>
      <point x="440" y="622" type="qcurve" smooth="yes"/>
      <point x="443" y="606"/>
      <point x="443" y="584" type="qcurve" smooth="yes"/>
      <point x="443" y="573"/>
      <point x="440" y="522"/>
      <point x="426" y="431"/>
      <point x="405" y="332"/>
      <point x="381" y="239"/>
      <point x="358" y="160"/>
      <point x="349" y="135" type="qcurve" smooth="yes"/>
      <point x="334" y="93"/>
      <point x="283" y="32"/>
      <point x="235" y="19" type="qcurve"/>
      <point x="230" y="17"/>
      <point x="210" y="16"/>
      <point x="205" y="16" type="qcurve" smooth="yes"/>
      <point x="194" y="16"/>
      <point x="159" y="25"/>
      <point x="151" y="34" type="qcurve" smooth="yes"/>
      <point x="126" y="64"/>
      <point x="85" y="162"/>
      <point x="53" y="277"/>
      <point x="30" y="400"/>
      <point x="15" y="509"/>
      <point x="8" y="595"/>
    </contour>
  </outline>
</glyph>
<glyph name="X" format="2">
  <advance width="496"/>
  <unicode hex="0058"/>
  <outline>
    <contour>
      <point x="468" y="62" type="qcurve"/>
      <point x="446" y="32"/>
      <point x="407" y="14"/>
      <point x="391" y="14" type="qcurve" smooth="yes"/>
      <point x="385" y="14"/>
      <point x="356" y="20"/>
      <point x="315" y="52"/>
      <point x="280" y="98"/>
      <point x="252" y="152"/>
      <point x="243" y="177" type="qcurve"/>
      <point x="228" y="148"/>
      <point x="208" y="101"/>
      <point x="186" y="63"/>
      <point x="156" y="31"/>
      <point x="129" y="16" type="qcurve"/>
      <point x="121" y="14"/>
      <point x="111" y="14" type="qcurve" smooth="yes"/>
      <point x="105" y="14"/>
      <point x="78" y="17"/>
      <point x="43" y="31"/>
      <point x="21" y="51"/>
      <point x="21" y="64" type="qcurve"/>
      <point x="21" y="66"/>
      <point x="21" y="68" type="qcurve"/>
      <point x="21" y="73"/>
      <point x="21" y="78" type="qcurve" smooth="yes"/>
      <point x="21" y="107"/>
      <point x="43" y="175"/>
      <point x="78" y="250"/>
      <point x="118" y="325"/>
      <point x="133" y="362" type="qcurve"/>
      <point x="115" y="393"/>
      <point x="87" y="443"/>
      <point x="62" y="490"/>
      <point x="36" y="540"/>
      <point x="21" y="573" type="qcurve" smooth="yes"/>
      <point x="15" y="588"/>
      <point x="15" y="603" type="qcurve" smooth="yes"/>
      <point x="15" y="616"/>
      <point x="31" y="655"/>
      <point x="72" y="687"/>
      <point x="101" y="689"/>
      <point x="103" y="689" type="qcurve"/>
      <point x="127" y="689"/>
      <point x="146" y="672" type="qcurve"/>
      <point x="168" y="649"/>
      <point x="193" y="622"/>
      <point x="212" y="596"/>
      <point x="231" y="561"/>
      <point x="246" y="530" type="qcurve"/>
      <point x="249" y="547"/>
      <point x="270" y="593"/>
      <point x="302" y="640"/>
      <point x="343" y="679"/>
      <point x="382" y="696"/>
      <point x="398" y="696" type="qcurve" smooth="yes"/>
      <point x="405" y="696"/>
      <point x="435" y="691"/>
      <point x="457" y="668" type="qcurve"/>
      <point x="468" y="659"/>
      <point x="474" y="630"/>
      <point x="474" y="617" type="qcurve" smooth="yes"/>
      <point x="474" y="612"/>
      <point x="472" y="588"/>
      <point x="462" y="554"/>
      <point x="455" y="544" type="qcurve"/>
      <point x="434" y="504"/>
      <point x="411" y="456"/>
      <point x="393" y="420"/>
      <point x="374" y="385"/>
      <point x="358" y="357" type="qcurve"/>
      <point x="365" y="338"/>
      <point x="393" y="291"/>
      <point x="424" y="238"/>
      <point x="456" y="182"/>
      <point x="475" y="129"/>
      <point x="477" y="101"/>
      <point x="477" y="98" type="qcurve" smooth="yes"/>
      <point x="477" y="78"/>
    </contour>
  </outline>
</glyph>
<glyph name="Y" format="2">
  <advance width="472"/>
  <unicode hex="0059"/>
  <outline>
    <contour>
      <point x="321" y="40" type="qcurve"/>
      <point x="307" y="26"/>
      <point x="267" y="15"/>
      <point x="249" y="15" type="qcurve" smooth="yes"/>
      <point x="243" y="15"/>
      <point x="212" y="18"/>
      <point x="173" y="42"/>
      <point x="167" y="64" type="qcurve"/>
      <point x="159" y="100"/>
      <point x="152" y="172"/>
      <point x="151" y="243"/>
      <point x="151" y="313"/>
      <point x="149" y="348" type="qcurve"/>
      <point x="131" y="376"/>
      <point x="84" y="436"/>
      <point x="44" y="499"/>
      <point x="15" y="565"/>
      <point x="15" y="598" type="qcurve"/>
      <point x="14" y="607"/>
      <point x="14" y="614" type="qcurve" smooth="yes"/>
      <point x="14" y="637"/>
      <point x="39" y="670"/>
      <point x="74" y="681"/>
      <point x="88" y="681" type="qcurve" smooth="yes"/>
      <point x="96" y="681"/>
      <point x="128" y="675"/>
      <point x="141" y="663" type="qcurve"/>
      <point x="161" y="648"/>
      <point x="187" y="617"/>
      <point x="208" y="586"/>
      <point x="229" y="551"/>
      <point x="243" y="532" type="qcurve"/>
      <point x="252" y="551"/>
      <point x="265" y="580"/>
      <point x="280" y="606"/>
      <point x="300" y="634"/>
      <point x="315" y="651" type="qcurve"/>
      <point x="330" y="674"/>
      <point x="367" y="683"/>
      <point x="378" y="683" type="qcurve" smooth="yes"/>
      <point x="392" y="683"/>
      <point x="429" y="671"/>
      <point x="459" y="633"/>
      <point x="459" y="609" type="qcurve" smooth="yes"/>
      <point x="459" y="605"/>
      <point x="459" y="600" type="qcurve"/>
      <point x="457" y="573"/>
      <point x="428" y="503"/>
      <point x="390" y="433"/>
      <point x="351" y="371"/>
      <point x="338" y="352" type="qcurve"/>
      <point x="337" y="334"/>
      <point x="337" y="315" type="qcurve" smooth="yes"/>
      <point x="337" y="292"/>
      <point x="341" y="221"/>
      <point x="342" y="170"/>
      <point x="342" y="162" type="qcurve" smooth="yes"/>
      <point x="342" y="129"/>
      <point x="335" y="62"/>
    </contour>
  </outline>
</glyph>
<glyph name="bracketleft" format="2">
  <advance width="377"/>
  <unicode hex="005B"/>
  <outline>
    <contour>
      <point x="304" y="-179" type="qcurve"/>
      <point x="281" y="-185"/>
      <point x="183" y="-186"/>
      <point x="178" y="-186" type="qcurve" smooth="yes"/>
      <point x="94" y="-186"/>
      <point x="65" y="-151"/>
      <point x="60" y="-133" type="qcurve" smooth="yes"/>
      <point x="58" y="-125" type="line"/>
      <point x="50" y="-102"/>
      <point x="50" y="334" type="qcurve"/>
      <point x="51" y="781"/>
      <point x="57" y="801" type="qcurve"/>
      <point x="57" y="801"/>
      <point x="57" y="802" type="qcurve"/>
      <point x="57" y="802"/>
      <point x="57" y="802" type="qcurve"/>
      <point x="57" y="805" type="line"/>
      <point x="57" y="805"/>
      <point x="57" y="805" type="qcurve"/>
      <point x="57" y="806" type="line"/>
      <point x="58" y="811"/>
      <point x="60" y="817" type="qcurve" smooth="yes"/>
      <point x="63" y="831"/>
      <point x="79" y="858"/>
      <point x="104" y="875"/>
      <point x="185" y="875" type="qcurve" smooth="yes"/>
      <point x="190" y="875"/>
      <point x="284" y="874"/>
      <point x="304" y="868" type="qcurve"/>
      <point x="320" y="866"/>
      <point x="340" y="848"/>
      <point x="349" y="822"/>
      <point x="349" y="809" type="qcurve"/>
      <point x="349" y="807"/>
      <point x="348" y="788"/>
      <point x="337" y="759"/>
      <point x="317" y="738"/>
      <point x="304" y="736" type="qcurve"/>
      <point x="281" y="730"/>
      <point x="192" y="729" type="qcurve"/>
      <point x="195" y="617"/>
      <point x="196" y="327" type="qcurve"/>
      <point x="196" y="75"/>
      <point x="191" y="-40" type="qcurve"/>
      <point x="194" y="-40" type="line"/>
      <point x="284" y="-41"/>
      <point x="304" y="-47" type="qcurve"/>
      <point x="320" y="-49"/>
      <point x="340" y="-67"/>
      <point x="349" y="-93"/>
      <point x="349" y="-106" type="qcurve"/>
      <point x="349" y="-108"/>
      <point x="348" y="-127"/>
      <point x="337" y="-156"/>
      <point x="317" y="-177"/>
    </contour>
  </outline>
</glyph>
<glyph name="backslash" format="2">
  <advance width="408"/>
  <unicode hex="005C"/>
  <outline>
    <contour>
      <point x="90" y="681" type="qcurve"/>
      <point x="90" y="681"/>
      <point x="90" y="681" type="qcurve"/>
      <point x="90" y="681"/>
      <point x="90" y="681" type="qcurve"/>
      <point x="90" y="681"/>
      <point x="90" y="681" type="qcurve"/>
      <point x="90" y="681"/>
      <point x="91" y="681" type="qcurve"/>
      <point x="91" y="681"/>
      <point x="91" y="681" type="qcurve"/>
      <point x="91" y="681"/>
      <point x="91" y="681" type="qcurve"/>
      <point x="91" y="681"/>
      <point x="91" y="681" type="qcurve"/>
      <point x="91" y="681"/>
      <point x="91" y="681" type="qcurve"/>
      <point x="106" y="676"/>
      <point x="127" y="655"/>
      <point x="144" y="630"/>
      <point x="159" y="602"/>
      <point x="166" y="588" type="qcurve"/>
      <point x="166" y="588"/>
      <point x="166" y="588" type="qcurve"/>
      <point x="167" y="588"/>
      <point x="281" y="349"/>
      <point x="318" y="281" type="qcurve"/>
      <point x="323" y="269"/>
      <point x="345" y="217"/>
      <point x="366" y="167"/>
      <point x="386" y="115"/>
      <point x="392" y="80"/>
      <point x="392" y="69" type="qcurve" smooth="yes"/>
      <point x="392" y="60"/>
      <point x="387" y="34"/>
      <point x="371" y="26" type="qcurve" smooth="yes"/>
      <point x="360" y="20"/>
      <point x="348" y="20" type="qcurve" smooth="yes"/>
      <point x="335" y="20"/>
      <point x="296" y="44"/>
      <point x="253" y="100"/>
      <point x="219" y="166"/>
      <point x="164" y="280"/>
      <point x="110" y="394"/>
      <point x="68" y="487"/>
      <point x="35" y="564"/>
      <point x="15" y="624"/>
      <point x="15" y="641" type="qcurve"/>
      <point x="16" y="654"/>
      <point x="34" y="669"/>
      <point x="55" y="679"/>
      <point x="76" y="681"/>
      <point x="82" y="681" type="qcurve" smooth="yes"/>
      <point x="86" y="681"/>
    </contour>
  </outline>
</glyph>
<glyph name="bracketright" format="2">
  <advance width="377"/>
  <unicode hex="005D"/>
  <outline>
    <contour>
      <point x="96" y="-179" type="qcurve"/>
      <point x="83" y="-177"/>
      <point x="63" y="-156"/>
      <point x="52" y="-127"/>
      <point x="51" y="-108"/>
      <point x="51" y="-106" type="qcurve"/>
      <point x="51" y="-93"/>
      <point x="60" y="-67"/>
      <point x="80" y="-49"/>
      <point x="96" y="-47" type="qcurve"/>
      <point x="116" y="-41"/>
      <point x="206" y="-40" type="qcurve"/>
      <point x="209" y="-40" type="line"/>
      <point x="204" y="75"/>
      <point x="204" y="327" type="qcurve"/>
      <point x="205" y="617"/>
      <point x="208" y="729" type="qcurve"/>
      <point x="119" y="730"/>
      <point x="96" y="736" type="qcurve"/>
      <point x="83" y="738"/>
      <point x="63" y="759"/>
      <point x="52" y="788"/>
      <point x="51" y="807"/>
      <point x="51" y="809" type="qcurve"/>
      <point x="51" y="822"/>
      <point x="60" y="848"/>
      <point x="80" y="866"/>
      <point x="96" y="868" type="qcurve"/>
      <point x="116" y="874"/>
      <point x="210" y="875"/>
      <point x="215" y="875" type="qcurve" smooth="yes"/>
      <point x="296" y="875"/>
      <point x="321" y="858"/>
      <point x="337" y="831"/>
      <point x="340" y="817" type="qcurve" smooth="yes"/>
      <point x="342" y="811"/>
      <point x="343" y="806" type="qcurve"/>
      <point x="343" y="805"/>
      <point x="343" y="805" type="qcurve"/>
      <point x="343" y="805"/>
      <point x="343" y="805" type="qcurve"/>
      <point x="343" y="804" type="line"/>
      <point x="343" y="804"/>
      <point x="343" y="804" type="qcurve"/>
      <point x="343" y="804"/>
      <point x="343" y="804" type="qcurve"/>
      <point x="343" y="801" type="line"/>
      <point x="349" y="781"/>
      <point x="350" y="334" type="qcurve"/>
      <point x="350" y="-102"/>
      <point x="342" y="-125" type="qcurve"/>
      <point x="340" y="-133" type="line" smooth="yes"/>
      <point x="335" y="-151"/>
      <point x="306" y="-186"/>
      <point x="222" y="-186" type="qcurve" smooth="yes"/>
      <point x="217" y="-186"/>
      <point x="119" y="-185"/>
    </contour>
  </outline>
</glyph>
<glyph name="asciicircum" format="2">
  <advance width="489"/>
  <unicode hex="005E"/>
  <outline>
    <contour>
      <point x="463" y="311" type="qcurve" smooth="yes"/>
      <point x="463" y="305"/>
      <point x="449" y="294"/>
      <point x="429" y="285"/>
      <point x="406" y="280"/>
      <point x="396" y="279" type="qcurve"/>
      <point x="380" y="279"/>
      <point x="350" y="295"/>
      <point x="324" y="323"/>
      <point x="303" y="359"/>
      <point x="285" y="395"/>
      <point x="244" y="500"/>
      <point x="239" y="512" type="qcurve"/>
      <point x="234" y="500"/>
      <point x="223" y="467"/>
      <point x="209" y="431"/>
      <point x="193" y="395"/>
      <point x="154" y="302"/>
      <point x="129" y="285"/>
      <point x="113" y="285" type="qcurve" smooth="yes"/>
      <point x="103" y="285"/>
      <point x="77" y="286"/>
      <point x="54" y="292"/>
      <point x="36" y="305"/>
      <point x="33" y="315" type="qcurve" smooth="yes"/>
      <point x="30" y="322"/>
      <point x="30" y="333" type="qcurve" smooth="yes"/>
      <point x="30" y="339"/>
      <point x="33" y="364"/>
      <point x="65" y="473"/>
      <point x="84" y="521"/>
      <point x="105" y="567"/>
      <point x="125" y="605"/>
      <point x="133" y="617" type="qcurve" smooth="yes"/>
      <point x="147" y="638"/>
      <point x="192" y="668"/>
      <point x="234" y="674" type="qcurve" smooth="yes"/>
      <point x="238" y="675"/>
      <point x="247" y="675" type="qcurve"/>
      <point x="247" y="675"/>
      <point x="248" y="675" type="qcurve"/>
      <point x="249" y="675"/>
      <point x="249" y="675" type="qcurve"/>
      <point x="250" y="675" type="line"/>
      <point x="250" y="675"/>
      <point x="250" y="675" type="qcurve"/>
      <point x="251" y="675" type="line"/>
      <point x="252" y="675"/>
      <point x="252" y="675" type="qcurve"/>
      <point x="261" y="675" type="line"/>
      <point x="261" y="675"/>
      <point x="261" y="675" type="qcurve"/>
      <point x="270" y="675"/>
      <point x="301" y="671"/>
      <point x="308" y="667" type="qcurve" smooth="yes"/>
      <point x="330" y="652"/>
      <point x="367" y="604"/>
      <point x="395" y="548"/>
      <point x="415" y="488"/>
      <point x="457" y="364"/>
      <point x="463" y="322"/>
    </contour>
  </outline>
</glyph>
<glyph name="underscore" format="2">
  <advance width="495"/>
  <unicode hex="005F"/>
  <outline>
    <contour>
      <point x="430" y="20" type="qcurve"/>
      <point x="407" y="14"/>
      <point x="224" y="13"/>
      <point x="215" y="13" type="qcurve" smooth="yes"/>
      <point x="58" y="13"/>
      <point x="29" y="48"/>
      <point x="22" y="75"/>
      <point x="22" y="84" type="qcurve" smooth="yes"/>
      <point x="22" y="93"/>
      <point x="24" y="101" type="qcurve" smooth="yes"/>
      <point x="27" y="115"/>
      <point x="43" y="142"/>
      <point x="68" y="159"/>
      <point x="221" y="159" type="qcurve" smooth="yes"/>
      <point x="230" y="159"/>
      <point x="410" y="158"/>
      <point x="430" y="152" type="qcurve"/>
      <point x="446" y="150"/>
      <point x="466" y="132"/>
      <point x="475" y="106"/>
      <point x="475" y="93" type="qcurve"/>
      <point x="475" y="91"/>
      <point x="474" y="72"/>
      <point x="463" y="43"/>
      <point x="443" y="22"/>
    </contour>
  </outline>
</glyph>
<glyph name="grave" format="2">
  <advance width="297"/>
  <unicode hex="0060"/>
  <outline>
    <contour>
      <point x="142" y="921" type="qcurve"/>
      <point x="180" y="903"/>
      <point x="270" y="835"/>
      <point x="270" y="813" type="qcurve"/>
      <point x="270" y="813"/>
      <point x="268" y="790"/>
      <point x="249" y="756"/>
      <point x="234" y="748" type="qcurve"/>
      <point x="222" y="740"/>
      <point x="197" y="733"/>
      <point x="187" y="733" type="qcurve" smooth="yes"/>
      <point x="182" y="733"/>
      <point x="160" y="736"/>
      <point x="59" y="809"/>
      <point x="38" y="839"/>
      <point x="37" y="853"/>
      <point x="37" y="855" type="qcurve"/>
      <point x="37" y="866"/>
      <point x="50" y="891"/>
      <point x="75" y="913"/>
      <point x="101" y="926"/>
      <point x="117" y="927"/>
      <point x="119" y="927" type="qcurve"/>
      <point x="132" y="927"/>
    </contour>
  </outline>
</glyph>
<glyph name="b" format="2">
  <advance width="481"/>
  <unicode hex="0062"/>
  <outline>
    <contour>
      <point x="238" y="7" type="qcurve" smooth="yes"/>
      <point x="174" y="7"/>
      <point x="93" y="15"/>
      <point x="46" y="43"/>
      <point x="28" y="97"/>
      <point x="26" y="161"/>
      <point x="26" y="185" type="qcurve" smooth="yes"/>
      <point x="26" y="216"/>
      <point x="28" y="298"/>
      <point x="28" y="354" type="qcurve" smooth="yes"/>
      <point x="28" y="383"/>
      <point x="28" y="414" type="qcurve" smooth="yes"/>
      <point x="28" y="444"/>
      <point x="24" y="501"/>
      <point x="24" y="518" type="qcurve" smooth="yes"/>
      <point x="24" y="539"/>
      <point x="29" y="595"/>
      <point x="55" y="654"/>
      <point x="87" y="664" type="qcurve"/>
      <point x="110" y="670"/>
      <point x="170" y="676"/>
      <point x="196" y="676" type="qcurve" smooth="yes"/>
      <point x="207" y="676"/>
      <point x="257" y="674"/>
      <point x="335" y="658"/>
      <point x="398" y="622"/>
      <point x="438" y="563"/>
      <point x="440" y="520" type="qcurve"/>
      <point x="440" y="516"/>
      <point x="440" y="511" type="qcurve" smooth="yes"/>
      <point x="440" y="480"/>
      <point x="414" y="414"/>
      <point x="387" y="385" type="qcurve"/>
      <point x="413" y="378"/>
      <point x="444" y="344"/>
      <point x="461" y="299"/>
      <point x="466" y="246"/>
      <point x="466" y="219" type="qcurve" smooth="yes"/>
      <point x="466" y="167"/>
      <point x="430" y="88"/>
      <point x="368" y="34"/>
      <point x="285" y="7"/>
    </contour>
    <contour>
      <point x="221" y="436" type="qcurve" smooth="yes"/>
      <point x="241" y="436"/>
      <point x="277" y="467"/>
      <point x="277" y="494" type="qcurve" smooth="yes"/>
      <point x="277" y="518"/>
      <point x="251" y="535"/>
      <point x="237" y="535" type="qcurve"/>
      <point x="235" y="535"/>
      <point x="216" y="533"/>
      <point x="193" y="514"/>
      <point x="193" y="501" type="qcurve" smooth="yes"/>
      <point x="193" y="498"/>
      <point x="194" y="495" type="qcurve"/>
      <point x="194" y="469"/>
      <point x="210" y="436"/>
    </contour>
    <contour>
      <point x="291" y="224" type="qcurve" smooth="yes"/>
      <point x="291" y="255"/>
      <point x="262" y="291"/>
      <point x="241" y="294"/>
      <point x="239" y="294" type="qcurve"/>
      <point x="224" y="294"/>
      <point x="197" y="266"/>
      <point x="197" y="232" type="qcurve" smooth="yes"/>
      <point x="197" y="203"/>
      <point x="214" y="165"/>
      <point x="239" y="165" type="qcurve" smooth="yes"/>
      <point x="248" y="165"/>
      <point x="266" y="176"/>
      <point x="281" y="193"/>
      <point x="291" y="214"/>
    </contour>
  </outline>
</glyph>
<glyph name="l" format="2">
  <advance width="394"/>
  <unicode hex="006C"/>
  <outline>
    <contour>
      <point x="386" y="89" type="qcurve" smooth="yes"/>
      <point x="386" y="54"/>
      <point x="339" y="21"/>
      <point x="281" y="12"/>
      <point x="254" y="12" type="qcurve" smooth="yes"/>
      <point x="246" y="12"/>
      <point x="202" y="14"/>
      <point x="178" y="14" type="qcurve" smooth="yes"/>
      <point x="138" y="14"/>
      <point x="83" y="28"/>
      <point x="48" y="61"/>
      <point x="32" y="117"/>
      <point x="32" y="158" type="qcurve" smooth="yes"/>
      <point x="32" y="243"/>
      <point x="29" y="413"/>
      <point x="29" y="497" type="qcurve" smooth="yes"/>
      <point x="29" y="523"/>
      <point x="28" y="560"/>
      <point x="28" y="565" type="qcurve" smooth="yes"/>
      <point x="28" y="592"/>
      <point x="39" y="645"/>
      <point x="76" y="684"/>
      <point x="115" y="684" type="qcurve" smooth="yes"/>
      <point x="203" y="684"/>
      <point x="203" y="598" type="qcurve" smooth="yes"/>
      <point x="203" y="551"/>
      <point x="202" y="467"/>
      <point x="200" y="385"/>
      <point x="199" y="300"/>
      <point x="199" y="253" type="qcurve" smooth="yes"/>
      <point x="199" y="236"/>
      <point x="202" y="212"/>
      <point x="213" y="197"/>
      <point x="234" y="190"/>
      <point x="251" y="190" type="qcurve" smooth="yes"/>
      <point x="266" y="190"/>
      <point x="281" y="191"/>
      <point x="293" y="192"/>
      <point x="309" y="193"/>
      <point x="324" y="193" type="qcurve" smooth="yes"/>
      <point x="342" y="193"/>
      <point x="366" y="175"/>
      <point x="380" y="145"/>
      <point x="386" y="108"/>
    </contour>
  </outline>
</glyph>
<glyph name="m" format="2">
  <advance width="573"/>
  <unicode hex="006D"/>
  <outline>
    <contour>
      <point x="134" y="26" type="qcurve"/>
      <point x="121" y="19"/>
      <point x="100" y="17"/>
      <point x="95" y="17" type="qcurve" smooth="yes"/>
      <point x="85" y="17"/>
      <point x="59" y="23"/>
      <point x="36" y="40"/>
      <point x="33" y="54" type="qcurve" smooth="yes"/>
      <point x="22" y="109"/>
      <point x="18" y="212"/>
      <point x="18" y="255" type="qcurve" smooth="yes"/>
      <point x="18" y="272"/>
      <point x="19" y="349"/>
      <point x="23" y="450"/>
      <point x="23" y="490" type="qcurve" smooth="yes"/>
      <point x="23" y="506"/>
      <point x="23" y="522" type="qcurve"/>
      <point x="25" y="541"/>
      <point x="28" y="584"/>
      <point x="40" y="625"/>
      <point x="64" y="659"/>
      <point x="88" y="670" type="qcurve"/>
      <point x="99" y="676"/>
      <point x="126" y="676"/>
      <point x="152" y="669"/>
      <point x="175" y="656"/>
      <point x="181" y="648" type="qcurve" smooth="yes"/>
      <point x="210" y="607"/>
      <point x="246" y="515"/>
      <point x="270" y="472" type="qcurve"/>
      <point x="283" y="497"/>
      <point x="302" y="546"/>
      <point x="323" y="594"/>
      <point x="350" y="640"/>
      <point x="371" y="662" type="qcurve"/>
      <point x="387" y="675"/>
      <point x="422" y="684"/>
      <point x="437" y="684" type="qcurve" smooth="yes"/>
      <point x="443" y="684"/>
      <point x="471" y="681"/>
      <point x="509" y="663"/>
      <point x="522" y="648" type="qcurve" smooth="yes"/>
      <point x="534" y="634"/>
      <point x="539" y="600"/>
      <point x="541" y="583" type="qcurve"/>
      <point x="547" y="502"/>
      <point x="547" y="421" type="qcurve" smooth="yes"/>
      <point x="547" y="401"/>
      <point x="547" y="381" type="qcurve" smooth="yes"/>
      <point x="547" y="364"/>
      <point x="546" y="347" type="qcurve"/>
      <point x="546" y="341" type="line" smooth="yes"/>
      <point x="546" y="324"/>
      <point x="546" y="306" type="qcurve"/>
      <point x="545" y="300" type="line"/>
      <point x="544" y="243"/>
      <point x="543" y="185" type="qcurve"/>
      <point x="543" y="179" type="line" smooth="yes"/>
      <point x="543" y="161"/>
      <point x="544" y="138"/>
      <point x="544" y="134" type="qcurve" smooth="yes"/>
      <point x="544" y="119"/>
      <point x="540" y="86"/>
      <point x="526" y="51"/>
      <point x="511" y="36" type="qcurve"/>
      <point x="496" y="26"/>
      <point x="470" y="23"/>
      <point x="463" y="23" type="qcurve" smooth="yes"/>
      <point x="451" y="23"/>
      <point x="421" y="30"/>
      <point x="390" y="50"/>
      <point x="382" y="64" type="qcurve"/>
      <point x="373" y="91"/>
      <point x="371" y="135"/>
      <point x="371" y="152" type="qcurve" smooth="yes"/>
      <point x="371" y="163"/>
      <point x="372" y="201"/>
      <point x="375" y="243"/>
      <point x="375" y="257" type="qcurve" smooth="yes"/>
      <point x="375" y="271"/>
      <point x="374" y="284" type="qcurve"/>
      <point x="358" y="251"/>
      <point x="330" y="193"/>
      <point x="302" y="155"/>
      <point x="283" y="150"/>
      <point x="280" y="150" type="qcurve" smooth="yes"/>
      <point x="267" y="150"/>
      <point x="252" y="162" type="qcurve" smooth="yes"/>
      <point x="235" y="174"/>
      <point x="215" y="204"/>
      <point x="201" y="237"/>
      <point x="190" y="271"/>
      <point x="181" y="288" type="qcurve"/>
      <point x="178" y="251"/>
      <point x="176" y="195"/>
      <point x="175" y="145"/>
      <point x="172" y="98"/>
      <point x="169" y="70" type="qcurve"/>
      <point x="166" y="55"/>
      <point x="148" y="35"/>
    </contour>
  </outline>
</glyph>
<glyph name="o" format="2">
  <advance width="474"/>
  <unicode hex="006F"/>
  <outline>
    <contour>
      <point x="346" y="45" type="qcurve"/>
      <point x="280" y="19"/>
      <point x="229" y="19" type="qcurve" smooth="yes"/>
      <point x="216" y="19"/>
      <point x="146" y="29"/>
      <point x="69" y="96"/>
      <point x="29" y="201"/>
      <point x="24" y="258" type="qcurve"/>
      <point x="20" y="293"/>
      <point x="20" y="327" type="qcurve" smooth="yes"/>
      <point x="20" y="350"/>
      <point x="26" y="430"/>
      <point x="37" y="497" type="qcurve"/>
      <point x="37" y="499" type="line"/>
      <point x="43" y="518"/>
      <point x="56" y="557"/>
      <point x="76" y="593"/>
      <point x="105" y="625"/>
      <point x="126" y="637" type="qcurve" smooth="yes"/>
      <point x="166" y="660"/>
      <point x="231" y="670"/>
      <point x="249" y="670" type="qcurve" smooth="yes"/>
      <point x="278" y="670"/>
      <point x="307" y="663" type="qcurve"/>
      <point x="336" y="651"/>
      <point x="388" y="610"/>
      <point x="408" y="580" type="qcurve"/>
      <point x="408" y="579" type="line"/>
      <point x="427" y="542"/>
      <point x="453" y="444"/>
      <point x="460" y="360"/>
      <point x="460" y="329" type="qcurve" smooth="yes"/>
      <point x="460" y="305"/>
      <point x="455" y="227"/>
      <point x="428" y="133"/>
      <point x="381" y="61"/>
    </contour>
    <contour>
      <point x="271" y="213" type="qcurve"/>
      <point x="276" y="225"/>
      <point x="285" y="278"/>
      <point x="290" y="336"/>
      <point x="290" y="363" type="qcurve" smooth="yes"/>
      <point x="290" y="369"/>
      <point x="289" y="407"/>
      <point x="277" y="461"/>
      <point x="254" y="493"/>
      <point x="235" y="493" type="qcurve"/>
      <point x="234" y="493"/>
      <point x="233" y="493" type="qcurve"/>
      <point x="214" y="491"/>
      <point x="191" y="451"/>
      <point x="179" y="395"/>
      <point x="178" y="356"/>
      <point x="178" y="347" type="qcurve" smooth="yes"/>
      <point x="178" y="329"/>
      <point x="179" y="316" type="qcurve" smooth="yes"/>
      <point x="182" y="293"/>
      <point x="187" y="234"/>
      <point x="200" y="209" type="qcurve"/>
      <point x="216" y="190"/>
      <point x="254" y="190"/>
    </contour>
  </outline>
</glyph>
<glyph name="q" format="2">
  <advance width="475"/>
  <unicode hex="0071"/>
  <outline>
    <contour>
      <point x="460" y="360" type="qcurve"/>
      <point x="460" y="349"/>
      <point x="460" y="339" type="qcurve" smooth="yes"/>
      <point x="460" y="279"/>
      <point x="449" y="193"/>
      <point x="431" y="139"/>
      <point x="414" y="115"/>
      <point x="411" y="111" type="qcurve"/>
      <point x="425" y="85"/>
      <point x="433" y="52"/>
      <point x="433" y="43" type="qcurve" smooth="yes"/>
      <point x="433" y="33"/>
      <point x="430" y="25" type="qcurve"/>
      <point x="422" y="9"/>
      <point x="399" y="-16"/>
      <point x="374" y="-26"/>
      <point x="364" y="-26" type="qcurve" smooth="yes"/>
      <point x="359" y="-26"/>
      <point x="339" y="-23"/>
      <point x="324" y="-9" type="qcurve" smooth="yes"/>
      <point x="315" y="-1"/>
      <point x="297" y="19"/>
      <point x="287" y="33" type="qcurve"/>
      <point x="243" y="13"/>
      <point x="207" y="13" type="qcurve" smooth="yes"/>
      <point x="198" y="13"/>
      <point x="146" y="20"/>
      <point x="80" y="76"/>
      <point x="36" y="168"/>
      <point x="13" y="278"/>
      <point x="12" y="341"/>
      <point x="12" y="344" type="qcurve" smooth="yes"/>
      <point x="12" y="401"/>
      <point x="32" y="510"/>
      <point x="75" y="606"/>
      <point x="107" y="637" type="qcurve" smooth="yes"/>
      <point x="135" y="664"/>
      <point x="202" y="683"/>
      <point x="230" y="683" type="qcurve" smooth="yes"/>
      <point x="244" y="683"/>
      <point x="302" y="675"/>
      <point x="381" y="628"/>
      <point x="407" y="587" type="qcurve"/>
      <point x="436" y="533"/>
      <point x="459" y="413"/>
    </contour>
    <contour>
      <point x="237" y="517" type="qcurve"/>
      <point x="212" y="517"/>
      <point x="178" y="473"/>
      <point x="160" y="405"/>
      <point x="158" y="355"/>
      <point x="158" y="345" type="qcurve" smooth="yes"/>
      <point x="158" y="315"/>
      <point x="167" y="250"/>
      <point x="191" y="195"/>
      <point x="210" y="187" type="qcurve"/>
      <point x="202" y="213"/>
      <point x="202" y="264"/>
      <point x="216" y="273" type="qcurve" smooth="yes"/>
      <point x="229" y="282"/>
      <point x="243" y="292"/>
      <point x="251" y="293"/>
      <point x="251" y="293" type="qcurve"/>
      <point x="258" y="293"/>
      <point x="277" y="283"/>
      <point x="295" y="271" type="qcurve"/>
      <point x="296" y="296"/>
      <point x="300" y="348"/>
      <point x="300" y="363" type="qcurve" smooth="yes"/>
      <point x="300" y="384"/>
      <point x="294" y="443"/>
      <point x="267" y="504"/>
    </contour>
  </outline>
</glyph>
<glyph name="t" format="2">
  <advance width="431"/>
  <unicode hex="0074"/>
  <outline>
    <contour>
      <point x="422" y="615" type="qcurve" smooth="yes"/>
      <point x="422" y="612"/>
      <point x="422" y="609" type="qcurve" smooth="yes"/>
      <point x="422" y="572"/>
      <point x="400" y="529"/>
      <point x="362" y="507"/>
      <point x="315" y="501"/>
      <point x="293" y="499" type="qcurve"/>
      <point x="297" y="242" type="line"/>
      <point x="297" y="206"/>
      <point x="292" y="136"/>
      <point x="292" y="102" type="qcurve" smooth="yes"/>
      <point x="292" y="51"/>
      <point x="248" y="9"/>
      <point x="202" y="9" type="qcurve" smooth="yes"/>
      <point x="163" y="9"/>
      <point x="126" y="59"/>
      <point x="126" y="96" type="qcurve" smooth="yes"/>
      <point x="126" y="145"/>
      <point x="127" y="224"/>
      <point x="127" y="299"/>
      <point x="128" y="378"/>
      <point x="128" y="427" type="qcurve"/>
      <point x="131" y="496" type="line"/>
      <point x="114" y="497"/>
      <point x="71" y="505"/>
      <point x="34" y="524"/>
      <point x="9" y="556"/>
      <point x="9" y="583" type="qcurve" smooth="yes"/>
      <point x="9" y="592"/>
      <point x="15" y="627"/>
      <point x="41" y="661"/>
      <point x="91" y="686"/>
      <point x="133" y="686" type="qcurve" smooth="yes"/>
      <point x="137" y="686"/>
      <point x="140" y="686" type="qcurve"/>
      <point x="153" y="685"/>
      <point x="168" y="685" type="qcurve" smooth="yes"/>
      <point x="175" y="685"/>
      <point x="208" y="686"/>
      <point x="263" y="686"/>
      <point x="318" y="684"/>
      <point x="367" y="674"/>
      <point x="406" y="654"/>
      <point x="417" y="637" type="qcurve"/>
      <point x="417" y="636" type="line"/>
      <point x="422" y="624"/>
    </contour>
  </outline>
</glyph>
<glyph name="w" format="2">
  <advance width="650"/>
  <unicode hex="0077"/>
  <outline>
    <contour>
      <point x="73" y="678" type="qcurve" smooth="yes"/>
      <point x="92" y="681"/>
      <point x="124" y="681"/>
      <point x="150" y="666"/>
      <point x="170" y="630"/>
      <point x="176" y="598" type="qcurve"/>
      <point x="183" y="569"/>
      <point x="193" y="484"/>
      <point x="201" y="394"/>
      <point x="208" y="314"/>
      <point x="211" y="292" type="qcurve"/>
      <point x="218" y="315"/>
      <point x="229" y="348"/>
      <point x="243" y="377"/>
      <point x="259" y="409"/>
      <point x="271" y="430" type="qcurve"/>
      <point x="294" y="464"/>
      <point x="319" y="465"/>
      <point x="320" y="465" type="qcurve"/>
      <point x="343" y="465"/>
      <point x="389" y="424"/>
      <point x="431" y="351"/>
      <point x="447" y="311" type="qcurve"/>
      <point x="450" y="344"/>
      <point x="450" y="397"/>
      <point x="451" y="452"/>
      <point x="456" y="516"/>
      <point x="464" y="560" type="qcurve"/>
      <point x="469" y="604"/>
      <point x="497" y="660"/>
      <point x="533" y="688"/>
      <point x="573" y="688"/>
      <point x="608" y="665"/>
      <point x="632" y="621"/>
      <point x="634" y="590" type="qcurve"/>
      <point x="630" y="518"/>
      <point x="623" y="396"/>
      <point x="614" y="293"/>
      <point x="603" y="208"/>
      <point x="594" y="173" type="qcurve"/>
      <point x="587" y="138"/>
      <point x="570" y="86"/>
      <point x="544" y="49"/>
      <point x="505" y="24"/>
      <point x="477" y="15" type="qcurve"/>
      <point x="475" y="15"/>
      <point x="473" y="15" type="qcurve"/>
      <point x="438" y="15"/>
      <point x="389" y="49"/>
      <point x="357" y="104"/>
      <point x="338" y="171"/>
      <point x="330" y="202" type="qcurve"/>
      <point x="317" y="172"/>
      <point x="286" y="92"/>
      <point x="241" y="29"/>
      <point x="198" y="9"/>
      <point x="183" y="9" type="qcurve" smooth="yes"/>
      <point x="162" y="9"/>
      <point x="137" y="21" type="qcurve" smooth="yes"/>
      <point x="123" y="27"/>
      <point x="92" y="89"/>
      <point x="64" y="181"/>
      <point x="41" y="296"/>
      <point x="25" y="414"/>
      <point x="22" y="492"/>
      <point x="22" y="512" type="qcurve" smooth="yes"/>
      <point x="22" y="544"/>
      <point x="28" y="617"/>
      <point x="51" y="674"/>
    </contour>
  </outline>
</glyph>
<glyph name="z" format="2">
  <advance width="453"/>
  <unicode hex="007A"/>
  <outline>
    <contour>
      <point x="53" y="667" type="qcurve"/>
      <point x="86" y="680"/>
      <point x="173" y="689"/>
      <point x="216" y="689" type="qcurve" smooth="yes"/>
      <point x="220" y="689"/>
      <point x="272" y="688"/>
      <point x="352" y="681"/>
      <point x="373" y="678" type="qcurve"/>
      <point x="395" y="673"/>
      <point x="430" y="637"/>
      <point x="432" y="617" type="qcurve"/>
      <point x="430" y="591"/>
      <point x="422" y="545"/>
      <point x="406" y="495"/>
      <point x="379" y="437"/>
      <point x="338" y="359"/>
      <point x="280" y="257"/>
      <point x="241" y="188" type="qcurve"/>
      <point x="254" y="187"/>
      <point x="265" y="187" type="qcurve" smooth="yes"/>
      <point x="270" y="187"/>
      <point x="289" y="188"/>
      <point x="313" y="190"/>
      <point x="332" y="191"/>
      <point x="337" y="191" type="qcurve" smooth="yes"/>
      <point x="348" y="191"/>
      <point x="361" y="190" type="qcurve"/>
      <point x="382" y="187"/>
      <point x="416" y="162"/>
      <point x="438" y="128"/>
      <point x="441" y="105"/>
      <point x="441" y="102" type="qcurve" smooth="yes"/>
      <point x="441" y="88"/>
      <point x="434" y="77" type="qcurve"/>
      <point x="426" y="57"/>
      <point x="395" y="24"/>
      <point x="372" y="19" type="qcurve"/>
      <point x="323" y="14"/>
      <point x="275" y="14" type="qcurve" smooth="yes"/>
      <point x="258" y="14"/>
      <point x="205" y="16"/>
      <point x="169" y="16" type="qcurve" smooth="yes"/>
      <point x="140" y="16"/>
      <point x="111" y="15" type="qcurve"/>
      <point x="96" y="16"/>
      <point x="64" y="22"/>
      <point x="37" y="34"/>
      <point x="18" y="55"/>
      <point x="15" y="70" type="qcurve"/>
      <point x="15" y="109"/>
      <point x="40" y="190"/>
      <point x="58" y="225" type="qcurve"/>
      <point x="98" y="310"/>
      <point x="185" y="457"/>
      <point x="220" y="514" type="qcurve"/>
      <point x="205" y="516"/>
      <point x="191" y="516" type="qcurve" smooth="yes"/>
      <point x="180" y="516"/>
      <point x="145" y="512"/>
      <point x="121" y="511"/>
      <point x="119" y="511" type="qcurve"/>
      <point x="99" y="511"/>
      <point x="60" y="520"/>
      <point x="39" y="537" type="qcurve" smooth="yes"/>
      <point x="27" y="547"/>
      <point x="21" y="576"/>
      <point x="21" y="588" type="qcurve" smooth="yes"/>
      <point x="21" y="596"/>
      <point x="25" y="624"/>
      <point x="41" y="659"/>
    </contour>
  </outline>
</glyph>
<glyph name="braceleft" format="2">
  <advance width="366"/>
  <unicode hex="007B"/>
  <outline>
    <contour>
      <point x="331" y="7" type="qcurve"/>
      <point x="360" y="-19"/>
      <point x="376" y="-70"/>
      <point x="376" y="-86" type="qcurve" smooth="yes"/>
      <point x="376" y="-98"/>
      <point x="365" y="-134"/>
      <point x="329" y="-150"/>
      <point x="315" y="-150" type="qcurve" smooth="yes"/>
      <point x="296" y="-150"/>
      <point x="271" y="-141" type="qcurve" smooth="yes"/>
      <point x="232" y="-128"/>
      <point x="184" y="-72"/>
      <point x="158" y="1"/>
      <point x="150" y="85"/>
      <point x="150" y="127" type="qcurve" smooth="yes"/>
      <point x="150" y="149"/>
      <point x="147" y="169" type="qcurve" smooth="yes"/>
      <point x="145" y="186"/>
      <point x="136" y="221"/>
      <point x="128" y="232" type="qcurve" smooth="yes"/>
      <point x="120" y="242"/>
      <point x="97" y="252"/>
      <point x="71" y="261"/>
      <point x="47" y="273"/>
      <point x="38" y="286" type="qcurve" smooth="yes"/>
      <point x="33" y="292"/>
      <point x="30" y="310"/>
      <point x="30" y="315" type="qcurve" smooth="yes"/>
      <point x="30" y="325"/>
      <point x="38" y="350"/>
      <point x="65" y="377"/>
      <point x="91" y="383" type="qcurve" smooth="yes"/>
      <point x="114" y="388"/>
      <point x="142" y="432"/>
      <point x="149" y="455" type="qcurve"/>
      <point x="149" y="481" type="line" smooth="yes"/>
      <point x="149" y="520"/>
      <point x="150" y="573"/>
      <point x="150" y="578" type="qcurve" smooth="yes"/>
      <point x="150" y="617"/>
      <point x="158" y="694"/>
      <point x="183" y="760"/>
      <point x="231" y="810"/>
      <point x="271" y="823" type="qcurve" smooth="yes"/>
      <point x="295" y="830"/>
      <point x="313" y="830" type="qcurve" smooth="yes"/>
      <point x="328" y="830"/>
      <point x="365" y="816"/>
      <point x="376" y="784"/>
      <point x="376" y="774" type="qcurve" smooth="yes"/>
      <point x="376" y="760"/>
      <point x="360" y="715"/>
      <point x="331" y="692" type="qcurve" smooth="yes"/>
      <point x="325" y="687"/>
      <point x="319" y="653"/>
      <point x="317" y="627" type="qcurve"/>
      <point x="317" y="619"/>
      <point x="317" y="610" type="qcurve" smooth="yes"/>
      <point x="317" y="596"/>
      <point x="319" y="553"/>
      <point x="320" y="513"/>
      <point x="320" y="503" type="qcurve" smooth="yes"/>
      <point x="320" y="483"/>
      <point x="317" y="432"/>
      <point x="303" y="380"/>
      <point x="273" y="339"/>
      <point x="247" y="330" type="qcurve"/>
      <point x="273" y="317"/>
      <point x="301" y="270"/>
      <point x="313" y="212"/>
      <point x="315" y="147"/>
      <point x="317" y="84"/>
      <point x="322" y="27"/>
    </contour>
  </outline>
</glyph>
<glyph name="bar" format="2">
  <advance width="228"/>
  <unicode hex="007C"/>
  <outline>
    <contour>
      <point x="168" y="-156" type="qcurve"/>
      <point x="158" y="-161"/>
      <point x="129" y="-169"/>
      <point x="112" y="-170"/>
      <point x="110" y="-170" type="qcurve"/>
      <point x="97" y="-170"/>
      <point x="72" y="-163"/>
      <point x="63" y="-152" type="qcurve" smooth="yes"/>
      <point x="53" y="-139"/>
      <point x="41" y="-77"/>
      <point x="34" y="5"/>
      <point x="32" y="98"/>
      <point x="32" y="369"/>
      <point x="33" y="622"/>
      <point x="33" y="642" type="qcurve"/>
      <point x="33" y="643" type="line"/>
      <point x="33" y="645"/>
      <point x="33" y="647" type="qcurve"/>
      <point x="33" y="649" type="line"/>
      <point x="33" y="649"/>
      <point x="33" y="650" type="qcurve"/>
      <point x="33" y="656" type="line"/>
      <point x="33" y="657"/>
      <point x="33" y="657" type="qcurve"/>
      <point x="33" y="659" type="line"/>
      <point x="33" y="660"/>
      <point x="33" y="661" type="qcurve"/>
      <point x="33" y="662" type="line"/>
      <point x="33" y="663"/>
      <point x="33" y="664" type="qcurve"/>
      <point x="33" y="666" type="line"/>
      <point x="33" y="667"/>
      <point x="33" y="668" type="qcurve"/>
      <point x="33" y="701" type="line" smooth="yes"/>
      <point x="33" y="737"/>
      <point x="47" y="804"/>
      <point x="84" y="853"/>
      <point x="120" y="853" type="qcurve" smooth="yes"/>
      <point x="140" y="853"/>
      <point x="168" y="825"/>
      <point x="185" y="781"/>
      <point x="194" y="727"/>
      <point x="199" y="674"/>
      <point x="199" y="651" type="qcurve" smooth="yes"/>
      <point x="199" y="645" type="line" smooth="yes"/>
      <point x="199" y="642"/>
      <point x="199" y="637" type="qcurve" smooth="yes"/>
      <point x="199" y="625" type="line"/>
      <point x="199" y="623"/>
      <point x="199" y="621" type="qcurve"/>
      <point x="199" y="594" type="line" smooth="yes"/>
      <point x="199" y="590"/>
      <point x="199" y="587" type="qcurve" smooth="yes"/>
      <point x="199" y="435" type="line" smooth="yes"/>
      <point x="199" y="361"/>
      <point x="197" y="32"/>
      <point x="197" y="-42" type="qcurve"/>
      <point x="197" y="-43"/>
      <point x="197" y="-44" type="qcurve"/>
      <point x="197" y="-45" type="line"/>
      <point x="197" y="-46"/>
      <point x="197" y="-48" type="qcurve"/>
      <point x="197" y="-50" type="line"/>
      <point x="197" y="-51"/>
      <point x="197" y="-51" type="qcurve"/>
      <point x="197" y="-54" type="line"/>
      <point x="197" y="-54"/>
      <point x="197" y="-55" type="qcurve"/>
      <point x="197" y="-72" type="line" smooth="yes"/>
      <point x="197" y="-87"/>
      <point x="193" y="-117"/>
      <point x="182" y="-144"/>
      <point x="170" y="-155" type="qcurve"/>
      <point x="169" y="-155"/>
      <point x="169" y="-156"/>
    </contour>
  </outline>
</glyph>
<glyph name="braceright" format="2">
  <advance width="339"/>
  <unicode hex="007D"/>
  <outline>
    <contour>
      <point x="18" y="8" type="qcurve"/>
      <point x="27" y="28"/>
      <point x="33" y="84"/>
      <point x="34" y="147"/>
      <point x="36" y="212"/>
      <point x="49" y="270"/>
      <point x="77" y="316"/>
      <point x="103" y="329" type="qcurve"/>
      <point x="77" y="338"/>
      <point x="47" y="378"/>
      <point x="32" y="431"/>
      <point x="29" y="481"/>
      <point x="29" y="501" type="qcurve" smooth="yes"/>
      <point x="29" y="511"/>
      <point x="30" y="550"/>
      <point x="32" y="592"/>
      <point x="32" y="606" type="qcurve" smooth="yes"/>
      <point x="32" y="615"/>
      <point x="32" y="623" type="qcurve"/>
      <point x="30" y="649"/>
      <point x="24" y="683"/>
      <point x="18" y="688" type="qcurve" smooth="yes"/>
      <point x="-12" y="711"/>
      <point x="-28" y="755"/>
      <point x="-28" y="768" type="qcurve" smooth="yes"/>
      <point x="-28" y="779"/>
      <point x="-16" y="811"/>
      <point x="21" y="825"/>
      <point x="36" y="825" type="qcurve" smooth="yes"/>
      <point x="55" y="825"/>
      <point x="79" y="818" type="qcurve" smooth="yes"/>
      <point x="120" y="805"/>
      <point x="169" y="755"/>
      <point x="194" y="690"/>
      <point x="202" y="614"/>
      <point x="202" y="575" type="qcurve" smooth="yes"/>
      <point x="202" y="570"/>
      <point x="203" y="517"/>
      <point x="203" y="479" type="qcurve" smooth="yes"/>
      <point x="203" y="453" type="line"/>
      <point x="210" y="430"/>
      <point x="238" y="386"/>
      <point x="262" y="381" type="qcurve" smooth="yes"/>
      <point x="289" y="376"/>
      <point x="316" y="349"/>
      <point x="323" y="324"/>
      <point x="323" y="315" type="qcurve" smooth="yes"/>
      <point x="323" y="310"/>
      <point x="320" y="291"/>
      <point x="316" y="285" type="qcurve" smooth="yes"/>
      <point x="307" y="272"/>
      <point x="282" y="260"/>
      <point x="256" y="252"/>
      <point x="232" y="242"/>
      <point x="224" y="232" type="qcurve" smooth="yes"/>
      <point x="216" y="221"/>
      <point x="207" y="186"/>
      <point x="205" y="169" type="qcurve" smooth="yes"/>
      <point x="202" y="149"/>
      <point x="202" y="127" type="qcurve" smooth="yes"/>
      <point x="202" y="85"/>
      <point x="194" y="2"/>
      <point x="168" y="-70"/>
      <point x="119" y="-125"/>
      <point x="79" y="-138" type="qcurve" smooth="yes"/>
      <point x="54" y="-147"/>
      <point x="34" y="-147" type="qcurve" smooth="yes"/>
      <point x="20" y="-147"/>
      <point x="-17" y="-131"/>
      <point x="-28" y="-96"/>
      <point x="-28" y="-84" type="qcurve" smooth="yes"/>
      <point x="-28" y="-68"/>
      <point x="-12" y="-18"/>
    </contour>
  </outline>
</glyph>
<glyph name="asciitilde" format="2">
  <advance width="641"/>
  <unicode hex="007E"/>
  <outline>
    <contour>
      <point x="608" y="392" type="line"/>
      <point x="600" y="394" type="line"/>
      <point x="600" y="393"/>
      <point x="599" y="392"/>
      <point x="599" y="391" type="qcurve"/>
    </contour>
    <contour>
      <point x="603" y="411" type="qcurve" smooth="yes"/>
      <point x="603" y="400"/>
      <point x="600" y="394" type="qcurve" smooth="yes"/>
      <point x="593" y="381"/>
      <point x="556" y="344"/>
      <point x="524" y="321" type="qcurve"/>
      <point x="495" y="298"/>
      <point x="451" y="273"/>
      <point x="440" y="271" type="qcurve" smooth="yes"/>
      <point x="417" y="267"/>
      <point x="395" y="266"/>
      <point x="389" y="266" type="qcurve" smooth="yes"/>
      <point x="382" y="266"/>
      <point x="361" y="268"/>
      <point x="350" y="270" type="qcurve" smooth="yes"/>
      <point x="339" y="272"/>
      <point x="281" y="302"/>
      <point x="249" y="322" type="qcurve"/>
      <point x="241" y="329" type="line"/>
      <point x="230" y="341" type="line"/>
      <point x="189" y="308" type="line"/>
      <point x="151" y="270"/>
      <point x="122" y="270" type="qcurve"/>
      <point x="122" y="260" type="line"/>
      <point x="111" y="261"/>
      <point x="77" y="273"/>
      <point x="60" y="290" type="qcurve"/>
      <point x="43" y="300"/>
      <point x="28" y="327"/>
      <point x="28" y="337" type="qcurve" smooth="yes"/>
      <point x="28" y="351"/>
      <point x="53" y="404"/>
      <point x="85" y="433" type="qcurve"/>
      <point x="129" y="469"/>
      <point x="153" y="482" type="qcurve" smooth="yes"/>
      <point x="176" y="495"/>
      <point x="220" y="498"/>
      <point x="229" y="498" type="qcurve" smooth="yes"/>
      <point x="250" y="498"/>
      <point x="284" y="490"/>
      <point x="316" y="474"/>
      <point x="348" y="451"/>
      <point x="367" y="435" type="qcurve" smooth="yes"/>
      <point x="369" y="433"/>
      <point x="377" y="425"/>
      <point x="382" y="417" type="qcurve"/>
      <point x="392" y="407" type="line"/>
      <point x="420" y="435" type="line"/>
      <point x="419" y="435" type="line"/>
      <point x="456" y="467"/>
      <point x="500" y="492"/>
      <point x="514" y="492" type="qcurve" smooth="yes"/>
      <point x="534" y="492"/>
      <point x="579" y="459"/>
      <point x="593" y="438" type="qcurve" smooth="yes"/>
      <point x="601" y="427"/>
      <point x="603" y="414"/>
    </contour>
  </outline>
</glyph>
<glyph name="exclamdown" format="2">
  <advance width="216"/>
  <unicode hex="00A1"/>
  <outline>
    <contour>
      <point x="114" y="683" type="qcurve" smooth="yes"/>
      <point x="117" y="683"/>
      <point x="121" y="683" type="qcurve" smooth="yes"/>
      <point x="137" y="683"/>
      <point x="165" y="665"/>
      <point x="184" y="632"/>
      <point x="186" y="608"/>
      <point x="186" y="605" type="qcurve" smooth="yes"/>
      <point x="186" y="589"/>
      <point x="173" y="555"/>
      <point x="139" y="526"/>
      <point x="110" y="520" type="qcurve"/>
      <point x="81" y="523"/>
      <point x="44" y="550"/>
      <point x="27" y="587"/>
      <point x="27" y="607" type="qcurve"/>
      <point x="27" y="608"/>
      <point x="28" y="630"/>
      <point x="49" y="664"/>
      <point x="83" y="683"/>
      <point x="105" y="683" type="qcurve" smooth="yes"/>
      <point x="110" y="683"/>
    </contour>
    <contour>
      <point x="121" y="491" type="qcurve"/>
      <point x="148" y="490"/>
      <point x="178" y="431"/>
      <point x="192" y="341"/>
      <point x="193" y="274"/>
      <point x="193" y="260" type="qcurve" smooth="yes"/>
      <point x="193" y="221"/>
      <point x="188" y="136"/>
      <point x="180" y="63"/>
      <point x="178" y="51" type="qcurve" smooth="yes"/>
      <point x="175" y="34"/>
      <point x="141" y="13"/>
      <point x="114" y="9"/>
      <point x="108" y="9" type="qcurve" smooth="yes"/>
      <point x="95" y="9"/>
      <point x="63" y="19"/>
      <point x="56" y="36" type="qcurve"/>
      <point x="43" y="51"/>
      <point x="30" y="104"/>
      <point x="25" y="166"/>
      <point x="25" y="197" type="qcurve" smooth="yes"/>
      <point x="25" y="204"/>
      <point x="26" y="248"/>
      <point x="30" y="322"/>
      <point x="34" y="390"/>
      <point x="34" y="415" type="qcurve" smooth="yes"/>
      <point x="34" y="418"/>
      <point x="34" y="420" type="qcurve"/>
      <point x="34" y="451"/>
      <point x="76" y="492"/>
      <point x="107" y="492" type="qcurve" smooth="yes"/>
      <point x="114" y="492"/>
    </contour>
  </outline>
</glyph>
<glyph name="cent" format="2">
  <advance width="377"/>
  <unicode hex="00A2"/>
  <outline>
    <contour>
      <point x="139" y="584" type="line" smooth="yes"/>
      <point x="139" y="608"/>
      <point x="149" y="652"/>
      <point x="176" y="684"/>
      <point x="202" y="684" type="qcurve" smooth="yes"/>
      <point x="216" y="684"/>
      <point x="236" y="666"/>
      <point x="248" y="637"/>
      <point x="255" y="601"/>
      <point x="258" y="566"/>
      <point x="258" y="551" type="qcurve" smooth="yes"/>
      <point x="258" y="548" type="line"/>
      <point x="268" y="544"/>
      <point x="279" y="539" type="qcurve" smooth="yes"/>
      <point x="299" y="530"/>
      <point x="328" y="503"/>
      <point x="328" y="488" type="qcurve" smooth="yes"/>
      <point x="328" y="463"/>
      <point x="314" y="436"/>
      <point x="294" y="427"/>
      <point x="283" y="427" type="qcurve" smooth="yes"/>
      <point x="280" y="427"/>
      <point x="263" y="429"/>
      <point x="237" y="436"/>
      <point x="214" y="443"/>
      <point x="209" y="443" type="qcurve" smooth="yes"/>
      <point x="191" y="443"/>
      <point x="172" y="424"/>
      <point x="163" y="397"/>
      <point x="162" y="367"/>
      <point x="162" y="356" type="qcurve" smooth="yes"/>
      <point x="162" y="331"/>
      <point x="163" y="284"/>
      <point x="174" y="261" type="qcurve"/>
      <point x="174" y="258" type="line"/>
      <point x="184" y="242"/>
      <point x="201" y="242" type="qcurve"/>
      <point x="202" y="242"/>
      <point x="220" y="243"/>
      <point x="258" y="257"/>
      <point x="289" y="274"/>
      <point x="297" y="274" type="qcurve" smooth="yes"/>
      <point x="305" y="274"/>
      <point x="322" y="265"/>
      <point x="336" y="250"/>
      <point x="345" y="233"/>
      <point x="345" y="224" type="qcurve" smooth="yes"/>
      <point x="345" y="201"/>
      <point x="318" y="164"/>
      <point x="297" y="150" type="qcurve" smooth="yes"/>
      <point x="279" y="137"/>
      <point x="257" y="129" type="qcurve"/>
      <point x="257" y="74" type="line" smooth="yes"/>
      <point x="257" y="64"/>
      <point x="254" y="44"/>
      <point x="246" y="26"/>
      <point x="238" y="19" type="qcurve"/>
      <point x="236" y="18" type="line" smooth="yes"/>
      <point x="229" y="15"/>
      <point x="208" y="10"/>
      <point x="195" y="9"/>
      <point x="193" y="9" type="qcurve"/>
      <point x="184" y="9"/>
      <point x="167" y="14"/>
      <point x="160" y="21" type="qcurve"/>
      <point x="153" y="30"/>
      <point x="145" y="71"/>
      <point x="142" y="98" type="qcurve" smooth="yes"/>
      <point x="140" y="114"/>
      <point x="140" y="132" type="qcurve"/>
      <point x="129" y="137"/>
      <point x="119" y="142" type="qcurve"/>
      <point x="86" y="165"/>
      <point x="45" y="234"/>
      <point x="29" y="318"/>
      <point x="29" y="358" type="qcurve" smooth="yes"/>
      <point x="29" y="395"/>
      <point x="48" y="467"/>
      <point x="91" y="524"/>
      <point x="124" y="541" type="qcurve" smooth="yes"/>
      <point x="131" y="545"/>
      <point x="139" y="548" type="qcurve"/>
    </contour>
  </outline>
</glyph>
<glyph name="sterling" format="2">
  <advance width="559"/>
  <unicode hex="00A3"/>
  <outline>
    <contour>
      <point x="457" y="201" type="qcurve" smooth="yes"/>
      <point x="477" y="195"/>
      <point x="510" y="167"/>
      <point x="528" y="131"/>
      <point x="528" y="111" type="qcurve"/>
      <point x="528" y="110"/>
      <point x="527" y="87"/>
      <point x="514" y="65" type="qcurve" smooth="yes"/>
      <point x="505" y="49"/>
      <point x="479" y="33"/>
      <point x="455" y="29"/>
      <point x="446" y="29" type="qcurve" smooth="yes"/>
      <point x="439" y="29"/>
      <point x="414" y="32"/>
      <point x="397" y="35" type="qcurve" smooth="yes"/>
      <point x="382" y="38"/>
      <point x="369" y="38" type="qcurve"/>
      <point x="367" y="38"/>
      <point x="350" y="37"/>
      <point x="312" y="31"/>
      <point x="256" y="22"/>
      <point x="212" y="18" type="qcurve" smooth="yes"/>
      <point x="186" y="15"/>
      <point x="166" y="15" type="qcurve" smooth="yes"/>
      <point x="152" y="15"/>
      <point x="113" y="20"/>
      <point x="83" y="38"/>
      <point x="72" y="66"/>
      <point x="72" y="84" type="qcurve" smooth="yes"/>
      <point x="72" y="87"/>
      <point x="72" y="89" type="qcurve"/>
      <point x="72" y="103"/>
      <point x="82" y="129"/>
      <point x="90" y="139" type="qcurve" smooth="yes"/>
      <point x="98" y="150"/>
      <point x="109" y="159" type="qcurve"/>
      <point x="109" y="178"/>
      <point x="104" y="244"/>
      <point x="101" y="292" type="qcurve"/>
      <point x="70" y="293"/>
      <point x="37" y="298"/>
      <point x="35" y="300" type="qcurve" smooth="yes"/>
      <point x="27" y="311"/>
      <point x="22" y="339"/>
      <point x="22" y="347" type="qcurve" smooth="yes"/>
      <point x="22" y="353"/>
      <point x="23" y="358" type="qcurve" smooth="yes"/>
      <point x="25" y="366"/>
      <point x="33" y="383"/>
      <point x="41" y="388" type="qcurve" smooth="yes"/>
      <point x="46" y="391"/>
      <point x="95" y="392" type="qcurve"/>
      <point x="93" y="427"/>
      <point x="93" y="460" type="qcurve" smooth="yes"/>
      <point x="93" y="469"/>
      <point x="94" y="518"/>
      <point x="99" y="549" type="qcurve" smooth="yes"/>
      <point x="105" y="589"/>
      <point x="139" y="639"/>
      <point x="181" y="667"/>
      <point x="224" y="676"/>
      <point x="241" y="676" type="qcurve" smooth="yes"/>
      <point x="267" y="676"/>
      <point x="314" y="666"/>
      <point x="332" y="661" type="qcurve" smooth="yes"/>
      <point x="353" y="655"/>
      <point x="371" y="647" type="qcurve"/>
      <point x="392" y="636"/>
      <point x="401" y="596"/>
      <point x="401" y="582" type="qcurve" smooth="yes"/>
      <point x="401" y="570"/>
      <point x="393" y="533"/>
      <point x="367" y="508"/>
      <point x="354" y="508" type="qcurve" smooth="yes"/>
      <point x="346" y="508"/>
      <point x="338" y="511" type="qcurve" smooth="yes"/>
      <point x="317" y="520"/>
      <point x="302" y="520" type="qcurve" smooth="yes"/>
      <point x="294" y="520"/>
      <point x="270" y="511"/>
      <point x="254" y="476"/>
      <point x="253" y="450"/>
      <point x="253" y="447" type="qcurve" smooth="yes"/>
      <point x="253" y="427"/>
      <point x="257" y="408" type="qcurve" smooth="yes"/>
      <point x="258" y="405"/>
      <point x="258" y="403" type="qcurve"/>
      <point x="258" y="402"/>
      <point x="257" y="397"/>
      <point x="257" y="392" type="qcurve"/>
      <point x="334" y="392"/>
      <point x="403" y="390"/>
      <point x="409" y="388" type="qcurve"/>
      <point x="422" y="387"/>
      <point x="435" y="359"/>
      <point x="435" y="325"/>
      <point x="422" y="296"/>
      <point x="410" y="295" type="qcurve"/>
      <point x="404" y="293"/>
      <point x="337" y="292"/>
      <point x="264" y="291" type="qcurve"/>
      <point x="266" y="269"/>
      <point x="269" y="235"/>
      <point x="271" y="223" type="qcurve" smooth="yes"/>
      <point x="273" y="209"/>
      <point x="274" y="197" type="qcurve"/>
      <point x="293" y="208"/>
      <point x="320" y="213" type="qcurve" smooth="yes"/>
      <point x="338" y="217"/>
      <point x="362" y="217" type="qcurve" smooth="yes"/>
      <point x="370" y="217"/>
      <point x="412" y="215"/>
    </contour>
  </outline>
</glyph>
<glyph name="currency" format="2">
  <advance width="504"/>
  <unicode hex="00A4"/>
  <outline>
    <contour>
      <point x="421" y="208" type="line"/>
      <point x="455" y="174"/>
      <point x="466" y="133" type="qcurve" smooth="yes"/>
      <point x="469" y="124"/>
      <point x="469" y="112" type="qcurve"/>
      <point x="469" y="110"/>
      <point x="468" y="95"/>
      <point x="461" y="68"/>
      <point x="448" y="45"/>
      <point x="439" y="39" type="qcurve" smooth="yes"/>
      <point x="412" y="19"/>
      <point x="388" y="19" type="qcurve" smooth="yes"/>
      <point x="384" y="19"/>
      <point x="379" y="20" type="qcurve" smooth="yes"/>
      <point x="362" y="22"/>
      <point x="334" y="56"/>
      <point x="322" y="78" type="qcurve"/>
      <point x="307" y="94"/>
      <point x="269" y="107"/>
      <point x="252" y="107" type="qcurve" smooth="yes"/>
      <point x="248" y="107"/>
      <point x="224" y="105"/>
      <point x="194" y="85"/>
      <point x="192" y="67" type="qcurve"/>
      <point x="186" y="39"/>
      <point x="152" y="15"/>
      <point x="120" y="15" type="qcurve"/>
      <point x="118" y="15"/>
      <point x="115" y="15" type="qcurve"/>
      <point x="114" y="15" type="line"/>
      <point x="79" y="19"/>
      <point x="44" y="49"/>
      <point x="39" y="72" type="qcurve"/>
      <point x="40" y="71" type="line"/>
      <point x="39" y="75"/>
      <point x="39" y="81" type="qcurve" smooth="yes"/>
      <point x="39" y="90"/>
      <point x="45" y="128"/>
      <point x="53" y="154" type="qcurve"/>
      <point x="61" y="174"/>
      <point x="73" y="191" type="qcurve"/>
      <point x="42" y="224"/>
      <point x="15" y="314"/>
      <point x="15" y="362" type="qcurve" smooth="yes"/>
      <point x="15" y="405"/>
      <point x="43" y="483"/>
      <point x="69" y="513" type="qcurve"/>
      <point x="32" y="549"/>
      <point x="21" y="590" type="qcurve" smooth="yes"/>
      <point x="18" y="599"/>
      <point x="18" y="608" type="qcurve" smooth="yes"/>
      <point x="18" y="638"/>
      <point x="47" y="660" type="qcurve"/>
      <point x="76" y="678"/>
      <point x="100" y="678" type="qcurve" smooth="yes"/>
      <point x="104" y="678"/>
      <point x="107" y="678" type="qcurve"/>
      <point x="124" y="676"/>
      <point x="161" y="645"/>
      <point x="172" y="623" type="qcurve"/>
      <point x="187" y="606"/>
      <point x="226" y="595"/>
      <point x="241" y="595" type="qcurve" smooth="yes"/>
      <point x="246" y="595"/>
      <point x="271" y="597"/>
      <point x="302" y="618"/>
      <point x="304" y="636" type="qcurve"/>
      <point x="311" y="664"/>
      <point x="344" y="689"/>
      <point x="375" y="689" type="qcurve" smooth="yes"/>
      <point x="378" y="689"/>
      <point x="380" y="689" type="qcurve"/>
      <point x="381" y="689" type="line"/>
      <point x="417" y="686"/>
      <point x="452" y="663"/>
      <point x="457" y="640" type="qcurve"/>
      <point x="456" y="641" type="line"/>
      <point x="457" y="637"/>
      <point x="457" y="631" type="qcurve" smooth="yes"/>
      <point x="457" y="622"/>
      <point x="451" y="590"/>
      <point x="443" y="564" type="qcurve"/>
      <point x="438" y="553"/>
      <point x="426" y="532"/>
      <point x="419" y="522" type="qcurve"/>
      <point x="444" y="494"/>
      <point x="470" y="414"/>
      <point x="474" y="362" type="qcurve"/>
      <point x="474" y="322"/>
      <point x="453" y="242"/>
      <point x="423" y="210" type="qcurve"/>
    </contour>
    <contour>
      <point x="324" y="366" type="qcurve"/>
      <point x="323" y="400"/>
      <point x="276" y="436"/>
      <point x="237" y="436" type="qcurve" smooth="yes"/>
      <point x="217" y="436"/>
      <point x="192" y="423"/>
      <point x="176" y="404"/>
      <point x="170" y="379"/>
      <point x="170" y="367" type="qcurve" smooth="yes"/>
      <point x="170" y="352"/>
      <point x="174" y="322"/>
      <point x="188" y="298"/>
      <point x="217" y="283"/>
      <point x="243" y="283" type="qcurve" smooth="yes"/>
      <point x="269" y="283"/>
      <point x="301" y="296"/>
      <point x="319" y="319"/>
      <point x="324" y="345"/>
      <point x="324" y="358" type="qcurve" smooth="yes"/>
      <point x="324" y="362"/>
    </contour>
  </outline>
</glyph>
